{"glyphs":{"0":{"ha":833,"x_min":76,"x_max":757,"o":"m 757 388 q 676 62 757 175 q 415 -51 596 -51 q 157 63 238 -51 q 76 388 76 176 l 76 543 q 158 867 76 753 q 415 981 240 981 q 675 867 593 981 q 757 543 757 754 l 757 388 m 657 544 q 597 812 657 731 q 415 893 536 893 q 238 811 300 893 q 176 544 176 729 l 176 386 q 238 118 176 200 q 415 36 300 36 q 596 117 535 36 q 657 386 657 199 l 657 544 z "},"1":{"ha":833,"x_min":146,"x_max":529,"o":"m 432 -36 l 432 843 l 190 696 l 146 774 l 456 965 l 529 965 l 529 -36 l 432 -36 z "},"2":{"ha":833,"x_min":107,"x_max":743,"o":"m 481 485 q 547 568 522 533 q 585 630 572 603 q 603 678 599 657 q 608 718 608 699 l 608 729 q 559 848 608 804 q 418 892 510 892 q 293 860 351 892 q 186 740 235 828 l 108 789 q 153 855 126 821 q 217 917 179 889 q 303 963 254 944 q 415 981 353 981 q 536 963 482 981 q 628 912 590 944 q 686 833 665 879 q 707 731 707 786 l 707 717 q 693 638 707 676 q 656 564 679 600 q 603 492 633 528 q 540 418 572 456 l 229 53 l 743 53 l 743 -36 l 107 -36 l 107 47 l 481 485 z "},"3":{"ha":833,"x_min":83,"x_max":740,"o":"m 117 825 q 161 883 135 856 q 223 933 188 911 q 303 967 258 954 q 406 981 349 981 q 528 963 474 981 q 622 912 583 944 q 681 833 660 879 q 701 731 701 786 l 701 717 q 693 655 701 688 q 665 592 685 622 q 613 535 646 561 q 529 492 579 508 q 687 410 633 474 q 740 258 740 346 l 740 238 q 722 132 740 183 q 665 40 704 81 q 560 -26 625 -1 q 404 -51 496 -51 q 235 -24 317 -51 q 83 60 154 3 l 132 138 q 270 61 206 85 q 404 38 335 38 q 515 56 469 38 q 590 102 561 74 q 631 166 618 131 q 644 236 644 201 l 644 254 q 622 348 644 311 q 565 406 599 385 q 490 436 531 428 q 413 444 449 444 l 300 444 l 300 528 l 417 528 q 499 545 464 528 q 556 590 533 563 q 591 652 579 618 q 603 718 603 686 l 603 729 q 551 848 603 804 q 407 892 499 892 q 292 867 347 892 q 193 775 236 843 l 117 825 z "},"4":{"ha":833,"x_min":54,"x_max":800,"o":"m 653 590 l 653 275 l 800 275 l 800 186 l 653 186 l 653 -36 l 556 -36 l 556 186 l 54 186 l 54 275 l 540 965 l 651 965 l 167 275 l 556 275 l 556 590 l 653 590 z "},"5":{"ha":833,"x_min":92,"x_max":756,"o":"m 660 265 q 601 441 660 386 q 433 496 542 496 q 319 472 369 496 q 236 417 269 449 l 144 417 l 176 965 l 692 965 l 692 876 l 263 876 l 247 513 q 338 564 281 544 q 457 583 394 583 q 587 559 531 583 q 681 493 643 535 q 737 394 718 451 q 756 269 756 336 l 756 249 q 738 141 756 194 q 680 45 719 88 q 575 -24 640 3 q 417 -51 510 -51 q 236 -22 314 -51 q 92 60 158 8 l 142 139 q 280 60 214 83 q 417 38 346 38 q 530 58 483 38 q 606 108 576 78 q 647 176 635 139 q 660 247 660 213 l 660 265 z "},"6":{"ha":833,"x_min":92,"x_max":758,"o":"m 671 833 q 570 877 624 861 q 458 893 517 893 q 339 865 388 893 q 258 782 290 836 q 210 649 226 728 q 188 471 193 571 q 220 518 199 493 q 273 564 242 543 q 346 598 304 585 q 440 611 388 611 q 562 590 504 611 q 663 530 619 569 q 733 433 707 490 q 758 301 758 375 l 758 268 q 733 135 758 194 q 665 35 708 76 q 560 -29 621 -7 q 431 -51 500 -51 q 298 -27 360 -51 q 190 47 236 -3 q 118 174 144 97 q 92 356 92 251 l 92 389 q 117 663 92 550 q 190 846 143 775 q 306 949 238 917 q 460 981 374 981 q 594 963 528 981 q 717 913 660 944 l 671 833 m 197 288 q 214 185 197 231 q 261 106 231 139 q 334 54 292 72 q 428 36 376 36 q 522 52 479 36 q 597 98 565 68 q 645 172 628 128 q 663 272 663 215 l 663 293 q 643 392 663 349 q 592 466 624 436 q 517 511 560 496 q 429 526 475 526 q 343 510 385 526 q 269 464 301 493 q 217 394 238 435 q 197 306 197 353 l 197 288 z "},"7":{"ha":833,"x_min":86,"x_max":757,"o":"m 351 -36 l 242 -36 l 649 876 l 86 876 l 86 965 l 757 965 l 757 890 l 351 -36 z "},"8":{"ha":833,"x_min":94,"x_max":739,"o":"m 221 710 q 235 633 221 669 q 274 571 249 597 q 336 529 300 544 q 417 514 372 514 q 497 529 461 514 q 559 571 533 544 q 599 633 585 597 q 613 710 613 669 l 613 726 q 559 849 613 804 q 417 894 506 894 q 274 849 326 894 q 221 726 221 804 l 221 710 m 193 221 q 208 149 193 182 q 253 90 224 115 q 323 51 282 65 q 417 36 364 36 q 511 51 469 36 q 581 90 553 65 q 625 149 610 115 q 640 221 640 182 l 640 238 q 624 318 640 282 q 578 381 607 354 q 508 421 549 407 q 417 435 467 435 q 327 421 368 435 q 256 381 286 407 q 210 319 226 356 q 193 238 193 283 l 193 221 m 94 242 q 145 388 94 325 q 278 476 196 451 q 166 569 206 510 q 126 708 126 629 l 126 731 q 148 831 126 785 q 208 910 169 876 q 301 962 247 943 q 417 981 354 981 q 533 962 479 981 q 625 910 586 943 q 685 831 664 876 q 707 731 707 785 l 707 708 q 667 569 707 629 q 554 476 628 510 q 628 442 594 464 q 687 388 663 419 q 725 320 711 357 q 739 242 739 283 l 739 218 q 716 108 739 158 q 651 23 693 58 q 549 -32 608 -12 q 417 -51 489 -51 q 285 -32 344 -51 q 183 23 225 -12 q 117 108 140 58 q 94 218 94 158 l 94 242 z "},"9":{"ha":833,"x_min":75,"x_max":742,"o":"m 160 99 q 261 54 207 71 q 375 38 315 38 q 503 66 451 38 q 585 149 554 94 q 629 281 615 203 q 646 456 643 358 q 614 408 635 433 q 562 362 593 383 q 488 326 531 340 q 393 311 446 311 q 272 333 329 311 q 170 394 214 354 q 101 492 126 435 q 75 624 75 550 l 75 657 q 100 790 75 731 q 169 892 125 850 q 273 958 213 935 q 403 981 333 981 q 534 956 472 981 q 642 881 596 932 q 715 753 688 831 q 742 572 742 676 l 742 531 q 719 253 742 365 q 650 74 696 142 q 535 -23 604 6 q 372 -51 465 -51 q 240 -33 304 -51 q 119 17 176 -15 l 160 99 m 636 638 q 619 740 636 693 q 572 822 603 788 q 499 874 542 856 q 406 893 457 893 q 311 876 354 893 q 237 829 268 860 q 188 753 206 799 q 171 653 171 708 l 171 632 q 190 531 171 575 q 242 458 210 488 q 316 412 274 428 q 404 396 358 396 q 490 413 447 396 q 564 460 532 429 q 616 531 596 490 q 636 619 636 571 l 636 638 z "},"\u0000":{"ha":347,"x_min":0,"x_max":0,"o":""},"!":{"ha":389,"x_min":128,"x_max":261,"o":"m 128 61 l 261 61 l 261 -75 l 128 -75 l 128 61 m 154 206 l 138 992 l 251 992 l 235 206 l 154 206 z "},"\"":{"ha":518,"x_min":106,"x_max":413,"o":"m 119 678 l 106 1014 l 214 1014 l 200 678 l 119 678 m 318 678 l 304 1014 l 413 1014 l 399 678 l 318 678 z "},"#":{"ha":813,"x_min":53,"x_max":767,"o":"m 724 354 l 724 269 l 560 269 l 517 -36 l 438 -36 l 481 269 l 283 269 l 242 -36 l 161 -36 l 204 269 l 53 269 l 53 354 l 215 354 l 247 582 l 96 582 l 96 667 l 260 667 l 301 965 l 381 965 l 339 667 l 535 667 l 576 965 l 657 965 l 614 667 l 767 667 l 767 582 l 603 582 l 571 354 l 724 354 m 524 582 l 326 582 l 294 354 l 492 354 l 524 582 z "},"$":{"ha":839,"x_min":76,"x_max":761,"o":"m 385 -25 q 216 8 294 -21 q 76 85 138 38 l 126 161 q 258 88 193 113 q 385 60 322 64 l 385 435 q 249 477 304 453 q 159 532 193 501 q 110 600 125 563 q 94 682 94 638 l 94 713 q 174 883 94 819 q 385 954 253 946 l 385 1043 l 461 1043 l 461 954 q 609 925 544 949 q 721 869 674 901 l 674 800 q 580 845 633 828 q 461 868 526 863 l 461 513 q 603 467 546 492 q 695 410 660 442 q 746 341 731 379 q 761 254 761 303 l 761 224 q 741 131 761 174 q 682 55 721 88 q 588 2 643 22 q 461 -24 532 -18 l 461 -129 l 385 -129 l 385 -25 m 665 251 q 656 303 665 279 q 624 347 647 326 q 562 385 601 368 q 461 418 522 403 l 461 61 q 612 117 558 72 q 665 224 665 161 l 665 251 m 190 686 q 200 636 190 658 q 232 595 210 614 q 292 560 254 576 q 385 531 329 544 l 385 868 q 245 820 300 861 q 190 710 190 779 l 190 686 z "},"%":{"ha":1207,"x_min":97,"x_max":1110,"o":"m 260 -35 l 858 965 l 946 965 l 349 -35 l 260 -35 m 894 476 q 1053 416 996 476 q 1110 246 1110 356 l 1110 183 q 1053 13 1110 74 q 894 -47 996 -47 q 736 13 793 -47 q 679 183 679 74 l 679 246 q 736 416 679 356 q 894 476 793 476 m 894 24 q 992 61 956 24 q 1029 186 1029 99 l 1029 243 q 992 368 1029 331 q 894 406 956 406 q 797 368 833 406 q 760 243 760 331 l 760 186 q 797 61 760 99 q 894 24 833 24 m 313 976 q 471 916 414 976 q 528 746 528 856 l 528 683 q 471 513 528 574 q 313 453 414 453 q 154 513 211 453 q 97 683 97 574 l 97 746 q 154 916 97 856 q 313 976 211 976 m 313 524 q 410 561 374 524 q 447 686 447 599 l 447 743 q 410 868 447 831 q 313 906 374 906 q 215 868 251 906 q 178 743 178 831 l 178 686 q 215 561 178 599 q 313 524 251 524 z "},"&":{"ha":922,"x_min":50,"x_max":896,"o":"m 843 482 q 818 294 843 379 q 746 140 793 208 l 896 -36 l 785 -36 l 690 75 q 545 -22 628 8 q 379 -51 463 -51 l 371 -51 q 250 -35 308 -51 q 147 13 192 -18 q 76 90 103 44 q 50 194 50 136 l 50 228 q 64 314 50 275 q 108 387 78 353 q 188 454 139 421 q 310 524 238 488 l 283 556 q 247 599 267 576 q 211 649 228 622 q 184 704 194 675 q 174 765 174 733 l 174 790 q 189 858 174 824 q 235 919 204 892 q 310 963 265 946 q 414 981 356 981 q 514 963 469 981 q 590 919 558 946 q 638 858 621 892 q 654 790 654 824 l 654 764 q 644 699 654 731 q 608 634 633 667 q 542 568 583 601 q 440 500 501 535 l 688 208 q 736 331 719 261 q 753 482 753 400 l 843 482 m 376 32 q 522 60 456 32 q 636 140 588 88 l 365 458 q 267 401 308 428 q 197 348 225 375 q 156 291 169 321 q 143 222 143 261 l 143 199 q 160 135 143 165 q 209 81 178 104 q 283 45 240 58 q 376 32 326 32 m 264 769 q 276 718 264 744 q 306 665 288 692 q 345 613 324 639 q 386 563 367 586 q 478 621 443 593 q 533 674 514 649 q 558 724 551 700 q 564 769 564 747 l 564 785 q 552 831 564 810 q 519 867 540 851 q 472 891 499 882 q 414 900 444 900 q 356 891 383 900 q 308 867 329 882 q 276 831 288 851 q 264 785 264 810 l 264 769 z "},"'":{"ha":319,"x_min":106,"x_max":214,"o":"m 119 678 l 106 1014 l 214 1014 l 200 678 l 119 678 z "},"(":{"ha":435,"x_min":107,"x_max":400,"o":"m 210 381 q 251 67 210 222 q 400 -236 293 -89 l 311 -236 q 157 44 207 -112 q 107 388 107 201 l 107 443 q 157 785 107 629 q 311 1064 207 940 l 400 1064 q 253 772 297 925 q 210 450 210 618 l 210 381 z "},")":{"ha":435,"x_min":35,"x_max":328,"o":"m 225 450 q 181 772 225 618 q 35 1064 138 925 l 124 1064 q 278 785 228 940 q 328 443 328 629 l 328 388 q 278 44 328 201 q 124 -236 228 -112 l 35 -236 q 183 67 142 -89 q 225 381 225 222 l 225 450 z "},"*":{"ha":638,"x_min":63,"x_max":575,"o":"m 106 567 l 63 646 l 260 742 l 63 836 l 106 915 l 282 800 l 274 1013 l 365 1013 l 356 800 l 533 915 l 575 836 l 378 742 l 575 646 l 533 567 l 356 682 l 365 471 l 274 471 l 283 682 l 106 567 z "},"+":{"ha":833,"x_min":75,"x_max":758,"o":"m 463 789 l 463 488 l 758 488 l 758 399 l 463 399 l 463 78 l 371 78 l 371 399 l 75 399 l 75 488 l 371 488 l 371 789 l 463 789 z "},",":{"ha":340,"x_min":65,"x_max":246,"o":"m 124 69 l 246 69 l 146 -243 l 65 -243 l 124 69 z "},"-":{"ha":572,"x_min":69,"x_max":503,"o":"m 69 508 l 503 508 l 503 419 l 69 419 l 69 508 z "},".":{"ha":340,"x_min":100,"x_max":240,"o":"m 100 63 l 240 63 l 240 -76 l 100 -76 l 100 63 z "},"/":{"ha":540,"x_min":14,"x_max":526,"o":"m 526 1054 l 107 -174 l 14 -174 l 432 1054 l 526 1054 z "},":":{"ha":424,"x_min":142,"x_max":282,"o":"m 142 174 l 282 174 l 282 35 l 142 35 l 142 174 m 142 788 l 282 788 l 282 649 l 142 649 l 142 788 z "},";":{"ha":424,"x_min":107,"x_max":288,"o":"m 142 788 l 282 788 l 282 649 l 142 649 l 142 788 m 165 181 l 288 181 l 188 -132 l 107 -132 l 165 181 z "},"<":{"ha":833,"x_min":90,"x_max":743,"o":"m 201 440 l 743 158 l 743 57 l 90 404 l 90 486 l 743 833 l 743 733 l 201 449 l 201 440 z "},"=":{"ha":833,"x_min":103,"x_max":731,"o":"m 103 636 l 731 636 l 731 546 l 103 546 l 103 636 m 103 343 l 731 343 l 731 253 l 103 253 l 103 343 z "},">":{"ha":833,"x_min":90,"x_max":743,"o":"m 632 449 l 90 733 l 90 833 l 743 486 l 743 404 l 90 57 l 90 158 l 632 440 l 632 449 z "},"?":{"ha":722,"x_min":64,"x_max":646,"o":"m 261 61 l 394 61 l 394 -75 l 261 -75 l 261 61 m 281 196 l 281 261 q 287 323 281 296 q 309 376 293 350 q 351 431 325 403 q 415 497 376 460 q 463 543 440 521 q 505 590 486 565 q 535 642 524 614 q 546 707 546 671 l 546 729 q 495 848 546 804 q 357 892 444 892 q 228 863 286 892 q 126 786 169 835 l 64 850 q 110 896 82 872 q 174 938 138 919 q 256 969 211 957 q 354 981 301 981 q 569 913 493 981 q 646 731 646 844 l 646 707 q 630 617 646 656 q 588 545 614 578 q 531 483 563 513 q 467 424 499 454 q 426 383 443 401 q 398 345 410 364 q 381 305 386 326 q 375 257 375 283 l 375 196 l 281 196 z "},"@":{"ha":1365,"x_min":69,"x_max":1296,"o":"m 1046 63 q 990 69 1018 63 q 938 91 963 76 q 893 128 913 106 q 864 182 874 150 l 863 182 q 825 126 850 149 q 771 90 800 104 q 712 71 742 76 q 657 65 682 65 q 465 138 528 65 q 401 336 401 210 l 401 442 q 467 641 401 569 q 656 713 533 713 q 772 687 726 713 q 840 624 817 661 l 840 704 l 939 704 l 939 258 q 971 174 939 200 q 1047 149 1003 149 q 1110 163 1082 149 q 1160 209 1139 178 q 1192 291 1181 240 q 1204 413 1204 342 l 1204 428 q 1170 640 1204 546 q 1069 801 1136 735 q 902 902 1003 867 q 668 938 801 938 q 460 901 554 938 q 300 798 367 865 q 197 633 233 731 q 161 411 161 535 l 161 388 q 197 157 161 258 q 300 -15 232 56 q 468 -122 368 -85 q 696 -158 568 -158 q 903 -136 803 -158 q 1092 -68 1004 -114 l 1131 -147 q 934 -220 1043 -194 q 700 -246 825 -246 q 438 -202 554 -246 q 239 -76 321 -158 q 113 123 157 6 q 69 386 69 240 l 69 413 q 111 657 69 544 q 230 851 153 769 q 418 978 307 932 q 668 1024 529 1024 q 938 980 821 1024 q 1135 858 1056 936 q 1255 672 1214 781 q 1296 432 1296 563 l 1296 414 q 1285 293 1296 356 q 1245 180 1274 231 q 1168 96 1217 129 q 1046 63 1119 63 m 503 353 q 544 206 503 251 q 667 160 586 160 q 790 202 743 160 q 838 329 838 244 l 838 468 q 826 523 838 496 q 792 572 814 550 q 739 606 771 593 q 667 619 707 619 q 544 572 586 619 q 503 425 503 525 l 503 353 z "},"A":{"ha":914,"x_min":31,"x_max":883,"o":"m 883 -36 l 779 -36 l 668 275 l 244 275 l 131 -36 l 31 -36 l 403 965 l 513 965 l 883 -36 m 275 360 l 638 360 l 540 631 q 522 679 531 656 q 504 731 514 703 q 483 795 494 760 q 457 879 472 831 q 432 795 443 831 q 411 731 421 760 q 393 679 401 703 q 375 631 385 656 l 275 360 z "},"B":{"ha":854,"x_min":115,"x_max":799,"o":"m 115 965 l 435 965 q 753 721 753 965 l 753 692 q 744 627 753 658 q 717 569 736 596 q 667 523 699 543 q 592 492 636 503 q 741 422 683 478 q 799 263 799 367 l 799 228 q 720 34 799 104 q 478 -36 642 -36 l 115 -36 l 115 965 m 211 50 l 469 50 q 644 95 588 50 q 700 229 700 140 l 700 260 q 688 340 700 306 q 644 399 675 375 q 564 434 614 422 q 439 446 514 446 l 211 446 l 211 50 m 211 881 l 211 528 l 438 528 q 599 564 542 528 q 656 694 656 600 l 656 719 q 601 844 656 808 q 428 881 546 881 l 211 881 z "},"C":{"ha":875,"x_min":90,"x_max":817,"o":"m 475 981 q 652 955 575 981 q 792 881 729 929 l 742 804 q 613 871 674 853 q 475 889 551 889 q 352 863 406 889 q 263 791 299 838 q 208 680 226 744 q 189 536 189 615 l 189 408 q 267 132 189 222 q 485 42 346 42 q 645 72 579 42 q 760 144 711 101 l 817 68 q 682 -17 761 18 q 483 -51 603 -51 q 190 69 289 -51 q 90 408 90 190 l 90 532 q 191 863 90 746 q 475 981 292 981 z "},"D":{"ha":928,"x_min":115,"x_max":833,"o":"m 428 965 q 726 855 618 965 q 833 536 833 744 l 833 393 q 726 74 833 185 q 428 -36 618 -36 l 115 -36 l 115 965 l 428 965 m 213 50 l 429 50 q 553 71 496 50 q 650 135 610 92 q 713 244 690 179 q 736 400 736 310 l 736 529 q 713 684 736 618 q 650 794 690 750 q 553 858 610 838 q 429 879 496 879 l 213 879 l 213 50 z "},"E":{"ha":817,"x_min":115,"x_max":728,"o":"m 718 965 l 718 879 l 213 879 l 213 521 l 689 521 l 689 435 l 213 435 l 213 50 l 728 50 l 728 -36 l 115 -36 l 115 965 l 718 965 z "},"F":{"ha":779,"x_min":115,"x_max":710,"o":"m 115 -36 l 115 965 l 710 965 l 710 879 l 213 879 l 213 496 l 681 496 l 681 410 l 213 410 l 213 -36 l 115 -36 z "},"G":{"ha":911,"x_min":90,"x_max":828,"o":"m 479 981 q 663 955 585 981 q 803 881 740 929 l 753 804 q 622 871 685 853 q 479 889 558 889 q 353 863 407 889 q 262 791 299 838 q 207 680 225 744 q 189 536 189 615 l 189 408 q 499 42 189 42 q 562 44 529 42 q 626 53 594 47 q 685 69 657 60 q 733 92 713 79 l 733 408 l 497 408 l 497 494 l 828 494 l 828 38 q 678 -31 763 -10 q 494 -51 594 -51 q 189 69 288 -51 q 90 408 90 190 l 90 532 q 190 863 90 746 q 479 981 289 981 z "},"H":{"ha":940,"x_min":115,"x_max":825,"o":"m 728 438 l 213 438 l 213 -36 l 115 -36 l 115 965 l 213 965 l 213 535 l 728 535 l 728 965 l 825 965 l 825 -36 l 728 -36 l 728 438 z "},"I":{"ha":328,"x_min":115,"x_max":213,"o":"m 115 965 l 213 965 l 213 -36 l 115 -36 l 115 965 z "},"J":{"ha":629,"x_min":28,"x_max":518,"o":"m 421 965 l 518 965 l 518 229 q 497 92 518 146 q 441 6 476 38 q 360 -39 406 -26 q 263 -51 314 -51 q 138 -35 200 -51 q 28 25 76 -18 l 75 104 q 164 54 119 68 q 257 40 208 40 q 383 88 346 40 q 421 239 421 135 l 421 965 z "},"K":{"ha":894,"x_min":115,"x_max":853,"o":"m 410 538 l 853 -36 l 728 -36 l 340 467 l 213 335 l 213 -36 l 115 -36 l 115 965 l 213 965 l 213 460 l 696 965 l 826 965 l 410 538 z "},"L":{"ha":742,"x_min":115,"x_max":714,"o":"m 213 965 l 213 50 l 714 50 l 714 -36 l 115 -36 l 115 965 l 213 965 z "},"M":{"ha":1144,"x_min":115,"x_max":1029,"o":"m 261 697 q 246 728 253 715 q 233 756 239 742 q 222 785 228 769 q 211 824 217 801 l 211 -36 l 115 -36 l 115 965 l 235 965 l 574 232 l 914 965 l 1029 965 l 1029 -36 l 933 -36 l 933 824 q 924 785 929 801 q 914 756 919 769 q 901 728 908 742 q 886 697 894 715 l 618 131 l 526 131 l 261 697 z "},"N":{"ha":946,"x_min":115,"x_max":831,"o":"m 115 965 l 231 965 l 690 182 q 713 141 703 161 q 738 89 722 121 l 738 965 l 831 965 l 831 -36 l 715 -36 l 254 750 q 232 790 242 772 q 208 840 222 808 l 208 -36 l 115 -36 l 115 965 z "},"O":{"ha":961,"x_min":90,"x_max":871,"o":"m 481 981 q 646 949 574 981 q 768 860 718 918 q 844 719 818 801 q 871 533 871 636 l 871 396 q 844 210 871 293 q 768 69 818 128 q 646 -20 718 11 q 481 -51 574 -51 q 315 -20 388 -51 q 193 69 243 11 q 117 210 143 128 q 90 396 90 293 l 90 533 q 116 719 90 636 q 192 860 142 801 q 315 949 242 918 q 481 981 388 981 m 481 36 q 694 130 615 36 q 772 404 772 224 l 772 525 q 694 799 772 706 q 481 893 615 893 q 267 799 346 893 q 189 525 189 706 l 189 404 q 267 130 189 224 q 481 36 346 36 z "},"P":{"ha":831,"x_min":115,"x_max":775,"o":"m 115 965 l 454 965 q 594 944 533 965 q 694 884 654 922 q 755 793 735 846 q 775 679 775 740 l 775 650 q 753 536 775 589 q 691 444 732 483 q 590 382 650 404 q 454 360 531 360 l 213 360 l 213 -36 l 115 -36 l 115 965 m 213 878 l 213 447 l 431 447 q 618 503 560 447 q 676 653 676 558 l 676 678 q 620 822 676 767 q 446 878 564 878 l 213 878 z "},"Q":{"ha":961,"x_min":90,"x_max":892,"o":"m 481 981 q 646 949 574 981 q 768 860 718 918 q 844 719 818 801 q 871 533 871 636 l 871 396 q 775 76 871 193 l 892 -40 l 829 -106 l 708 15 q 481 -51 614 -51 q 315 -20 388 -51 q 193 69 243 11 q 117 210 143 128 q 90 396 90 293 l 90 533 q 116 719 90 636 q 192 860 142 801 q 315 949 242 918 q 481 981 388 981 m 481 36 q 640 82 574 36 l 511 213 l 574 278 l 706 146 q 756 256 738 192 q 774 404 774 321 l 774 525 q 694 799 774 704 q 481 893 614 893 q 267 799 347 893 q 188 525 188 704 l 188 404 q 267 131 188 225 q 481 36 347 36 z "},"R":{"ha":875,"x_min":115,"x_max":797,"o":"m 500 397 q 481 396 490 396 q 463 396 472 396 l 213 396 l 213 -36 l 115 -36 l 115 965 l 461 965 q 594 945 536 965 q 694 888 653 925 q 756 801 735 851 q 776 693 776 751 l 776 672 q 728 515 776 581 q 596 418 679 449 l 797 -36 l 693 -36 l 500 397 m 213 878 l 213 483 l 432 483 q 620 534 563 483 q 678 676 678 585 l 678 690 q 622 828 678 778 q 447 878 565 878 l 213 878 z "},"S":{"ha":842,"x_min":83,"x_max":768,"o":"m 419 39 q 524 53 478 39 q 603 91 571 67 q 653 147 636 115 q 669 211 669 178 l 669 240 q 658 303 669 275 q 618 353 647 331 q 538 395 589 376 q 407 432 488 414 q 260 477 319 451 q 166 535 201 503 q 116 608 131 568 q 101 694 101 647 l 101 726 q 126 830 101 783 q 194 910 150 876 q 298 962 238 943 q 429 981 358 981 q 603 956 531 981 q 726 896 675 932 l 681 817 q 569 872 632 851 q 429 892 507 892 q 342 881 383 892 q 269 848 300 869 q 219 796 238 826 q 200 726 200 765 l 200 699 q 212 640 200 667 q 251 593 224 614 q 324 554 278 572 q 438 521 369 536 q 599 473 535 499 q 700 414 663 447 q 753 339 738 381 q 768 243 768 297 l 768 211 q 744 110 768 157 q 677 26 721 63 q 569 -31 633 -10 q 424 -51 504 -51 q 237 -22 324 -51 q 83 60 150 8 l 133 142 q 280 63 208 88 q 419 39 351 39 z "},"T":{"ha":793,"x_min":28,"x_max":765,"o":"m 765 965 l 765 879 l 444 879 l 444 -36 l 347 -36 l 347 879 l 28 879 l 28 965 l 765 965 z "},"U":{"ha":933,"x_min":111,"x_max":822,"o":"m 467 36 q 662 119 597 36 q 726 390 726 203 l 726 965 l 822 965 l 822 354 q 728 47 822 146 q 467 -51 635 -51 q 204 47 297 -51 q 111 354 111 146 l 111 965 l 207 965 l 207 390 q 272 119 207 203 q 467 36 336 36 z "},"V":{"ha":888,"x_min":31,"x_max":857,"o":"m 31 965 l 138 965 l 446 64 l 447 64 l 756 965 l 857 965 l 499 -36 l 388 -36 l 31 965 z "},"W":{"ha":1331,"x_min":42,"x_max":1289,"o":"m 42 965 l 146 965 l 371 68 l 372 68 l 611 965 l 721 965 l 960 68 l 961 68 l 1188 965 l 1289 965 l 1013 -36 l 901 -36 l 664 853 l 426 -36 l 315 -36 l 42 965 z "},"X":{"ha":890,"x_min":47,"x_max":843,"o":"m 507 483 l 843 -36 l 724 -36 l 444 418 l 158 -36 l 47 -36 l 385 485 l 64 965 l 178 965 l 450 546 l 713 965 l 822 965 l 507 483 z "},"Y":{"ha":836,"x_min":28,"x_max":808,"o":"m 469 374 l 469 -36 l 372 -36 l 372 374 l 28 965 l 138 965 l 422 463 l 700 965 l 808 965 l 469 374 z "},"Z":{"ha":829,"x_min":39,"x_max":779,"o":"m 753 900 l 156 47 l 779 47 l 779 -36 l 39 -36 l 39 40 l 629 882 l 72 882 l 72 965 l 753 965 l 753 900 z "},"[":{"ha":494,"x_min":115,"x_max":442,"o":"m 442 -236 l 115 -236 l 115 1064 l 442 1064 l 442 978 l 208 978 l 208 -150 l 442 -150 l 442 -236 z "},"\\":{"ha":1315,"x_min":56,"x_max":1260,"o":"m 56 561 l 192 561 l 94 965 l 188 965 l 276 561 l 511 561 l 608 965 l 708 965 l 806 561 l 1042 561 l 1133 965 l 1222 965 l 1124 561 l 1260 561 l 1260 490 l 1106 490 l 978 -36 l 872 -36 l 746 490 l 568 490 l 442 -36 l 336 -36 l 208 490 l 56 490 l 56 561 m 926 68 l 931 68 l 1025 490 l 824 490 l 926 68 m 388 68 l 392 68 l 493 490 l 293 490 l 388 68 m 585 561 l 729 561 l 657 861 l 585 561 z "},"]":{"ha":494,"x_min":53,"x_max":379,"o":"m 53 -150 l 286 -150 l 286 978 l 53 978 l 53 1064 l 379 1064 l 379 -236 l 53 -236 l 53 -150 z "},"^":{"ha":728,"x_min":69,"x_max":658,"o":"m 561 557 l 364 921 l 167 557 l 69 557 l 319 1006 l 410 1006 l 658 557 l 561 557 z "},"_":{"ha":667,"x_min":0,"x_max":667,"o":"m 667 -181 l 0 -181 l 0 -104 l 667 -104 l 667 -181 z "},"`":{"ha":833,"x_min":286,"x_max":547,"o":"m 458 789 l 286 985 l 401 985 l 547 789 l 458 789 z "},"a":{"ha":740,"x_min":74,"x_max":642,"o":"m 314 -47 q 140 10 207 -47 q 74 167 74 67 l 74 197 q 140 346 74 289 q 338 403 207 403 l 549 403 l 549 472 q 503 598 549 554 q 371 642 458 642 q 254 620 310 642 q 150 565 199 599 l 104 638 q 222 700 157 674 q 372 726 286 726 q 570 664 499 726 q 642 488 642 601 l 642 -36 l 550 -36 l 550 56 l 549 56 q 516 19 538 38 q 465 -15 494 0 q 314 -47 401 -47 m 549 324 l 339 324 q 208 288 249 324 q 168 193 168 251 l 168 171 q 182 109 168 135 q 219 67 196 83 q 270 42 242 50 q 328 35 299 35 q 408 46 372 35 q 478 78 444 57 q 528 126 508 97 q 549 197 549 154 l 549 324 z "},"b":{"ha":804,"x_min":111,"x_max":726,"o":"m 204 53 l 204 -36 l 111 -36 l 111 1014 l 206 1014 l 206 607 q 299 695 239 664 q 429 726 358 726 q 551 705 496 726 q 644 642 606 683 q 705 542 683 601 q 726 406 726 482 l 726 274 q 704 138 726 197 q 642 37 682 78 q 548 -26 603 -4 q 429 -47 493 -47 q 293 -17 350 -47 q 206 53 236 13 l 204 53 m 632 392 q 576 576 632 513 q 424 640 519 640 q 346 626 385 640 q 276 585 307 613 q 225 520 244 558 q 206 432 206 482 l 206 213 q 222 148 206 179 q 267 92 238 117 q 335 51 296 67 q 424 36 375 36 q 576 102 519 36 q 632 288 632 168 l 632 392 z "},"c":{"ha":686,"x_min":76,"x_max":653,"o":"m 386 726 q 525 708 465 726 q 632 653 585 689 l 589 579 q 488 628 536 615 q 386 642 439 642 q 229 576 286 642 q 172 392 172 510 l 172 296 q 231 106 172 172 q 389 39 289 39 q 517 60 467 39 q 608 113 568 82 l 653 38 q 607 7 632 22 q 550 -20 582 -8 q 478 -40 518 -32 q 388 -47 438 -47 q 158 42 240 -47 q 76 296 76 132 l 76 389 q 99 534 76 471 q 163 640 122 597 q 260 704 203 682 q 386 726 317 726 z "},"d":{"ha":804,"x_min":78,"x_max":693,"o":"m 600 63 l 599 63 q 504 -21 567 6 q 376 -47 442 -47 q 257 -26 311 -47 q 163 37 203 -4 q 100 138 122 78 q 78 274 78 197 l 78 406 q 100 542 78 482 q 162 642 122 601 q 256 705 201 683 q 375 726 311 726 q 514 694 458 726 q 599 621 569 663 l 599 1014 l 693 1014 l 693 -36 l 600 -36 l 600 63 m 172 288 q 229 101 172 167 q 381 36 286 36 q 466 48 426 36 q 535 84 506 60 q 581 145 564 108 q 599 232 599 182 l 599 457 q 583 523 599 490 q 538 583 567 556 q 468 626 508 610 q 381 643 428 643 q 228 577 285 643 q 172 392 172 511 l 172 288 z "},"e":{"ha":757,"x_min":76,"x_max":682,"o":"m 588 388 l 588 400 q 533 581 588 518 q 381 643 479 643 q 226 577 281 643 q 171 400 171 511 l 171 388 l 588 388 m 665 38 q 554 -21 621 6 q 393 -47 488 -47 q 160 42 243 -47 q 76 296 76 132 l 76 389 q 158 638 76 549 q 381 726 239 726 q 605 635 528 726 q 682 386 682 544 l 682 308 l 171 308 l 171 296 q 231 103 171 171 q 394 36 290 36 q 526 58 469 36 q 624 110 583 81 l 665 38 z "},"f":{"ha":519,"x_min":44,"x_max":492,"o":"m 172 632 l 44 632 l 44 713 l 172 713 l 172 807 q 185 909 172 868 q 222 975 197 950 q 282 1011 246 1000 q 365 1022 318 1022 q 433 1017 396 1022 q 492 1004 469 1013 l 478 926 q 372 940 428 940 q 291 910 315 940 q 267 803 267 879 l 267 713 l 474 713 l 474 632 l 267 632 l 267 -36 l 172 -36 l 172 632 z "},"g":{"ha":804,"x_min":76,"x_max":692,"o":"m 597 76 l 596 76 q 502 -7 564 19 q 375 -33 440 -33 q 256 -12 310 -33 q 161 51 201 10 q 99 151 121 92 q 76 288 76 211 l 76 406 q 99 542 76 482 q 160 642 121 601 q 255 705 200 683 q 374 726 310 726 q 513 694 457 726 q 599 621 569 663 l 599 713 l 692 713 l 692 -24 q 609 -265 692 -183 q 386 -346 526 -346 q 245 -325 307 -346 q 136 -268 183 -304 l 179 -194 q 229 -224 206 -212 q 277 -244 253 -236 q 328 -254 301 -251 q 386 -257 354 -257 q 544 -201 490 -257 q 597 -26 597 -144 l 597 76 m 171 301 q 228 115 171 181 q 379 50 285 50 q 465 62 425 50 q 533 98 504 74 q 580 159 563 122 q 597 246 597 196 l 597 457 q 581 523 597 490 q 536 583 565 556 q 467 626 507 610 q 379 643 426 643 q 227 577 283 643 q 171 392 171 511 l 171 301 z "},"h":{"ha":808,"x_min":111,"x_max":703,"o":"m 433 726 q 633 656 563 726 q 703 468 703 586 l 703 -36 l 608 -36 l 608 444 q 600 520 608 485 q 570 583 592 556 q 512 625 549 610 q 419 640 475 640 q 333 623 372 640 q 265 578 293 606 q 222 517 238 550 q 206 450 206 483 l 206 -36 l 111 -36 l 111 1014 l 206 1014 l 206 608 q 239 651 218 629 q 288 689 260 672 q 353 716 317 706 q 433 726 389 726 z "},"i":{"ha":325,"x_min":111,"x_max":214,"o":"m 115 713 l 210 713 l 210 -36 l 115 -36 l 115 713 m 111 961 l 214 961 l 214 856 l 111 856 l 111 961 z "},"j":{"ha":338,"x_min":-97,"x_max":226,"o":"m 124 961 l 226 961 l 226 856 l 124 856 l 124 961 m 222 -128 q 173 -298 222 -250 q 29 -346 124 -346 q -38 -341 -1 -346 q -97 -328 -75 -336 l -83 -250 q 22 -264 -33 -264 q 103 -232 79 -264 q 128 -124 128 -200 l 128 713 l 222 713 l 222 -128 z "},"k":{"ha":750,"x_min":111,"x_max":719,"o":"m 393 425 l 719 -36 l 604 -36 l 326 363 l 206 246 l 206 -36 l 111 -36 l 111 1014 l 206 1014 l 206 358 l 567 713 l 693 713 l 393 425 z "},"l":{"ha":317,"x_min":111,"x_max":206,"o":"m 111 1014 l 206 1014 l 206 -36 l 111 -36 l 111 1014 z "},"m":{"ha":1219,"x_min":111,"x_max":1114,"o":"m 868 726 q 1055 657 996 726 q 1114 468 1114 588 l 1114 -36 l 1019 -36 l 1019 443 q 1012 525 1019 489 q 985 587 1004 561 q 934 626 967 613 q 851 640 901 640 q 771 624 806 640 q 712 581 736 607 q 674 521 688 554 q 660 456 661 488 l 660 -36 l 565 -36 l 565 443 q 558 525 565 489 q 531 587 550 561 q 480 626 513 613 q 397 640 447 640 q 315 623 351 640 q 255 578 279 606 q 218 517 231 550 q 206 450 206 483 l 206 -36 l 111 -36 l 111 713 l 204 713 l 204 608 q 235 652 217 631 q 281 690 254 674 q 340 717 307 707 q 414 726 372 726 q 560 691 504 726 q 640 590 615 656 q 673 638 653 614 q 722 682 693 663 q 787 714 750 701 q 868 726 824 726 z "},"n":{"ha":808,"x_min":111,"x_max":703,"o":"m 433 726 q 633 656 563 726 q 703 468 703 586 l 703 -36 l 608 -36 l 608 444 q 600 520 608 485 q 570 583 592 556 q 512 625 549 610 q 419 640 475 640 q 333 623 372 640 q 265 578 293 606 q 222 517 238 550 q 206 450 206 483 l 206 -36 l 111 -36 l 111 713 l 204 713 l 204 608 q 238 651 217 629 q 288 689 258 672 q 353 716 317 706 q 433 726 389 726 z "},"o":{"ha":789,"x_min":76,"x_max":713,"o":"m 394 726 q 629 638 546 726 q 713 386 713 549 l 713 293 q 629 42 713 131 q 394 -47 546 -47 q 160 42 243 -47 q 76 293 76 131 l 76 386 q 160 638 76 550 q 394 726 243 726 m 394 36 q 558 101 499 36 q 617 299 617 165 l 617 381 q 558 578 617 514 q 394 643 499 643 q 231 578 290 643 q 172 381 172 514 l 172 299 q 231 101 172 165 q 394 36 290 36 z "},"p":{"ha":804,"x_min":111,"x_max":726,"o":"m 206 53 l 206 -333 l 111 -333 l 111 713 l 204 713 l 204 607 q 298 695 238 664 q 429 726 358 726 q 551 705 496 726 q 644 642 606 683 q 705 542 683 601 q 726 406 726 482 l 726 274 q 704 138 726 197 q 642 37 682 78 q 548 -26 603 -4 q 429 -47 493 -47 q 294 -17 350 -47 q 207 53 238 13 l 206 53 m 632 392 q 576 576 632 513 q 424 640 519 640 q 346 626 385 640 q 276 585 307 613 q 225 520 244 558 q 206 432 206 482 l 206 213 q 222 148 206 179 q 267 92 238 117 q 335 51 296 67 q 424 36 375 36 q 576 102 519 36 q 632 288 632 168 l 632 392 z "},"q":{"ha":804,"x_min":78,"x_max":693,"o":"m 599 63 l 597 63 q 503 -21 565 6 q 376 -47 442 -47 q 257 -26 311 -47 q 163 37 203 -4 q 100 138 122 78 q 78 274 78 197 l 78 406 q 100 542 78 482 q 162 642 122 601 q 256 705 201 683 q 375 726 311 726 q 515 694 458 726 q 600 621 571 663 l 600 713 l 693 713 l 693 -333 l 599 -333 l 599 63 m 172 288 q 229 101 172 167 q 381 36 286 36 q 466 48 426 36 q 535 84 506 60 q 581 145 564 108 q 599 232 599 182 l 599 457 q 583 523 599 490 q 538 583 567 556 q 468 626 508 610 q 381 643 428 643 q 228 577 285 643 q 172 392 172 511 l 172 288 z "},"r":{"ha":543,"x_min":111,"x_max":526,"o":"m 497 615 q 407 631 458 631 q 324 613 361 631 q 260 563 286 594 q 219 486 233 531 q 206 389 206 442 l 206 -36 l 111 -36 l 111 713 l 204 713 l 204 581 q 235 633 217 607 q 281 681 254 660 q 342 714 308 701 q 419 726 376 726 q 477 723 451 726 q 526 711 503 719 l 497 615 z "},"s":{"ha":688,"x_min":67,"x_max":629,"o":"m 349 38 q 488 74 440 38 q 535 158 535 110 l 535 172 q 488 258 535 229 q 333 308 442 288 q 231 335 276 319 q 153 374 185 350 q 103 430 121 397 q 85 508 85 463 l 85 528 q 101 604 85 568 q 151 667 118 640 q 235 710 185 694 q 356 726 286 726 q 504 705 442 726 q 613 649 567 683 l 569 578 q 474 626 522 610 q 353 643 425 643 q 224 609 268 643 q 179 526 179 575 l 179 511 q 228 435 179 463 q 367 390 278 407 q 567 315 506 364 q 629 176 629 267 l 629 156 q 608 74 629 111 q 551 9 588 36 q 464 -33 514 -18 q 354 -47 414 -47 q 191 -23 263 -47 q 67 40 119 1 l 113 115 q 223 59 164 81 q 349 38 282 38 z "},"t":{"ha":539,"x_min":42,"x_max":489,"o":"m 169 632 l 42 632 l 42 713 l 169 713 l 169 906 l 264 906 l 264 713 l 471 713 l 471 632 l 264 632 l 264 176 q 288 69 264 100 q 369 39 313 39 q 475 53 425 39 l 489 -25 q 430 -38 467 -33 q 363 -43 393 -43 q 277 -32 314 -43 q 217 4 240 -21 q 181 70 193 29 q 169 172 169 111 l 169 632 z "},"u":{"ha":803,"x_min":106,"x_max":690,"o":"m 367 -47 q 172 24 239 -47 q 106 211 106 94 l 106 713 l 200 713 l 200 235 q 208 159 200 194 q 235 97 215 124 q 290 54 254 69 q 381 39 325 39 q 467 56 428 39 q 535 99 507 72 q 580 160 564 126 q 596 226 596 193 l 596 713 l 690 713 l 690 -36 l 597 -36 l 597 68 q 513 -11 571 25 q 367 -47 456 -47 z "},"v":{"ha":696,"x_min":24,"x_max":672,"o":"m 297 -36 l 24 713 l 125 713 l 351 61 l 574 713 l 672 713 l 403 -36 l 297 -36 z "},"w":{"ha":1047,"x_min":28,"x_max":1019,"o":"m 232 -36 l 28 713 l 124 713 l 289 58 l 472 713 l 579 713 l 767 58 l 928 713 l 1019 713 l 819 -36 l 710 -36 l 524 607 l 342 -36 l 232 -36 z "},"x":{"ha":707,"x_min":31,"x_max":676,"o":"m 413 351 l 676 -36 l 567 -36 l 354 293 l 135 -36 l 31 -36 l 297 351 l 46 713 l 151 713 l 357 407 l 561 713 l 664 713 l 413 351 z "},"y":{"ha":701,"x_min":24,"x_max":678,"o":"m 121 713 l 353 69 l 581 713 l 678 713 l 289 -346 l 208 -317 l 304 -49 l 24 713 l 121 713 z "},"z":{"ha":678,"x_min":42,"x_max":629,"o":"m 610 649 l 153 42 l 629 42 l 629 -36 l 42 -36 l 42 36 l 493 635 l 69 635 l 69 713 l 610 713 l 610 649 z "},"{":{"ha":582,"x_min":53,"x_max":529,"o":"m 53 476 q 165 505 129 478 q 200 592 200 532 l 200 871 q 247 1019 200 974 q 400 1064 293 1064 l 529 1064 l 529 979 l 413 979 q 323 959 353 979 q 293 868 293 939 l 293 601 q 290 550 293 576 q 275 500 286 524 q 242 458 264 476 q 185 431 221 439 q 241 405 219 422 q 274 364 263 388 q 290 313 286 340 q 293 260 293 286 l 293 -49 q 301 -105 293 -85 q 324 -135 308 -125 q 361 -149 339 -146 q 413 -151 383 -151 l 529 -151 l 529 -236 l 400 -236 q 247 -194 293 -236 q 200 -51 200 -153 l 200 268 q 165 357 200 329 q 53 386 129 385 l 53 476 z "},"|":{"ha":390,"x_min":153,"x_max":238,"o":"m 238 -236 l 153 -236 l 153 1063 l 238 1063 l 238 -236 z "},"}":{"ha":582,"x_min":53,"x_max":529,"o":"m 529 386 q 417 357 453 385 q 382 268 382 329 l 382 -51 q 335 -194 382 -153 q 182 -236 289 -236 l 53 -236 l 53 -151 l 169 -151 q 221 -149 199 -151 q 258 -135 243 -146 q 281 -105 274 -125 q 289 -49 289 -85 l 289 260 q 292 313 289 286 q 308 364 296 340 q 340 405 319 388 q 397 431 361 422 q 340 458 361 439 q 307 500 318 476 q 292 550 296 524 q 289 601 289 576 l 289 868 q 259 959 289 939 q 169 979 229 979 l 53 979 l 53 1064 l 182 1064 q 335 1019 289 1064 q 382 871 382 974 l 382 592 q 417 505 382 532 q 529 476 453 478 l 529 386 z "},"~":{"ha":833,"x_min":88,"x_max":746,"o":"m 547 336 q 464 358 497 336 q 403 404 431 379 q 348 451 375 429 q 285 472 321 472 q 234 458 254 472 q 201 422 214 443 q 183 376 189 400 q 174 332 176 351 l 88 332 q 108 418 93 378 q 147 489 124 458 q 205 538 171 519 q 285 556 239 556 q 369 534 335 556 q 431 488 403 513 q 486 441 460 463 q 549 419 513 419 q 599 432 579 419 q 632 465 619 444 q 651 510 644 485 q 660 560 657 535 l 746 560 q 727 474 740 514 q 690 403 714 433 q 632 354 667 372 q 547 336 597 336 z "},"₩":{"ha":1315,"x_min":56,"x_max":1260,"o":"m 56 561 l 192 561 l 94 965 l 188 965 l 276 561 l 511 561 l 608 965 l 708 965 l 806 561 l 1042 561 l 1133 965 l 1222 965 l 1124 561 l 1260 561 l 1260 490 l 1106 490 l 978 -36 l 872 -36 l 746 490 l 568 490 l 442 -36 l 336 -36 l 208 490 l 56 490 l 56 561 m 926 68 l 931 68 l 1025 490 l 824 490 l 926 68 m 388 68 l 392 68 l 493 490 l 293 490 l 388 68 m 585 561 l 729 561 l 657 861 l 585 561 z "},"‐":{"ha":581,"x_min":47,"x_max":533,"o":"m 533 353 l 47 353 l 47 454 l 533 454 l 533 353 z "},"©":{"ha":1167,"x_min":76,"x_max":1090,"o":"m 583 -46 q 382 -6 475 -46 q 221 104 289 35 q 115 267 153 174 q 76 465 76 360 q 115 663 76 569 q 221 824 153 756 q 382 933 289 893 q 583 974 475 974 q 785 933 692 974 q 945 824 878 893 q 1051 663 1013 756 q 1090 465 1090 569 q 1051 267 1090 360 q 945 104 1013 174 q 785 -6 878 35 q 583 -46 692 -46 m 583 15 q 760 49 679 15 q 899 143 840 83 q 990 285 957 203 q 1022 465 1022 368 q 990 643 1022 561 q 899 785 957 725 q 760 878 840 844 q 583 913 679 913 q 407 878 488 913 q 268 785 326 844 q 177 643 210 725 q 144 465 144 561 q 177 285 144 368 q 268 143 210 203 q 407 49 326 83 q 583 15 488 15 m 596 757 q 708 740 663 757 q 789 696 753 724 l 744 626 q 671 664 706 654 q 596 674 636 674 q 490 632 533 674 q 447 503 447 590 l 447 431 q 491 295 447 338 q 597 253 535 253 q 691 267 654 253 q 760 306 728 282 l 803 235 q 724 190 774 211 q 597 169 675 169 q 417 238 481 169 q 353 429 353 306 l 353 500 q 419 690 353 624 q 596 757 486 757 z "},"　":{"ha":1264,"x_min":0,"x_max":0,"o":""},"、":{"ha":1264,"x_min":92,"x_max":447,"o":"m 358 -153 q 293 -68 324 -106 q 232 2 263 -31 q 167 65 201 35 q 92 128 133 94 l 171 197 q 250 135 215 164 q 317 74 285 106 q 380 8 349 43 q 447 -74 411 -28 l 358 -153 z "},"。":{"ha":1264,"x_min":44,"x_max":440,"o":"m 242 -147 q 163 -132 199 -147 q 100 -90 126 -117 q 59 -26 74 -62 q 44 51 44 10 q 59 128 44 93 q 100 191 74 164 q 163 233 126 218 q 242 249 199 249 q 323 233 286 249 q 385 191 360 218 q 426 128 411 164 q 440 51 440 93 q 426 -26 440 10 q 385 -90 411 -62 q 323 -132 360 -117 q 242 -147 286 -147 m 242 -76 q 335 -39 300 -76 q 369 51 369 -1 q 335 142 369 104 q 242 179 300 179 q 150 142 185 179 q 115 51 115 104 q 150 -39 115 -1 q 242 -76 185 -76 z "},"·":{"ha":1264,"x_min":561,"x_max":701,"o":"m 561 490 l 701 490 l 701 351 l 561 351 l 561 490 z "},"‥":{"ha":1264,"x_min":363,"x_max":900,"o":"m 760 490 l 900 490 l 900 351 l 760 351 l 760 490 m 363 490 l 503 490 l 503 351 l 363 351 l 363 490 z "},"…":{"ha":1264,"x_min":193,"x_max":1072,"o":"m 932 490 l 1072 490 l 1072 351 l 932 351 l 932 490 m 563 490 l 703 490 l 703 351 l 563 351 l 563 490 m 193 490 l 333 490 l 333 351 l 193 351 l 193 490 z "},"¨":{"ha":833,"x_min":263,"x_max":571,"o":"m 479 926 l 571 926 l 571 826 l 479 826 l 479 926 m 263 926 l 354 926 l 354 826 l 263 826 l 263 926 z "},"〃":{"ha":1264,"x_min":363,"x_max":901,"o":"m 651 619 l 439 190 l 363 190 l 536 619 l 651 619 m 901 619 l 689 190 l 613 190 l 786 619 l 901 619 z "},"­":{"ha":572,"x_min":0,"x_max":572,"o":"m 572 393 l 0 393 l 0 474 l 572 474 l 572 393 z "},"—":{"ha":1144,"x_min":0,"x_max":1144,"o":"m 1144 393 l 0 393 l 0 474 l 1144 474 l 1144 393 z "},"‖":{"ha":1264,"x_min":471,"x_max":793,"o":"m 549 -250 l 471 -250 l 471 1083 l 549 1083 l 549 -250 m 793 -250 l 714 -250 l 714 1083 l 793 1083 l 793 -250 z "},"＼":{"ha":1264,"x_min":58,"x_max":1206,"o":"m 1206 -171 l 1163 -214 l 58 1007 l 100 1053 l 1206 -171 z "},"∼":{"ha":1264,"x_min":233,"x_max":1031,"o":"m 1031 471 q 992 422 1015 446 q 940 381 968 399 q 882 351 913 363 q 821 340 851 340 q 719 353 761 340 q 632 389 676 365 q 547 427 596 408 q 443 446 499 446 q 354 422 392 446 q 290 358 317 397 l 233 396 q 272 444 249 421 q 324 486 296 468 q 382 515 351 504 q 443 526 413 526 q 545 514 503 526 q 632 478 588 501 q 721 438 676 454 q 821 421 765 421 q 910 445 872 421 q 974 508 947 469 l 1031 471 z "},"‘":{"ha":278,"x_min":65,"x_max":239,"o":"m 181 758 l 65 758 l 163 1071 l 239 1071 l 181 758 z "},"’":{"ha":278,"x_min":39,"x_max":213,"o":"m 97 1051 l 213 1051 l 115 739 l 39 739 l 97 1051 z "},"“":{"ha":486,"x_min":69,"x_max":447,"o":"m 389 758 l 274 758 l 371 1071 l 447 1071 l 389 758 m 185 758 l 69 758 l 167 1071 l 243 1071 l 185 758 z "},"”":{"ha":486,"x_min":39,"x_max":417,"o":"m 97 1051 l 213 1051 l 115 739 l 39 739 l 97 1051 m 301 1051 l 417 1051 l 319 739 l 243 739 l 301 1051 z "},"〔":{"ha":478,"x_min":56,"x_max":426,"o":"m 426 -135 l 388 -203 l 56 -18 l 56 854 l 388 1039 l 426 971 l 139 810 l 139 28 l 426 -135 z "},"〕":{"ha":497,"x_min":61,"x_max":432,"o":"m 432 -18 l 100 -203 l 61 -135 l 349 28 l 349 810 q 206 890 279 850 q 61 971 132 931 l 100 1039 l 432 854 l 432 -18 z "},"〈":{"ha":649,"x_min":61,"x_max":589,"o":"m 589 -142 l 535 -183 l 61 418 l 533 1019 l 589 978 l 147 418 l 589 -142 z "},"〉":{"ha":663,"x_min":67,"x_max":594,"o":"m 594 418 l 122 -183 l 67 -142 l 508 418 l 67 978 l 121 1019 l 594 418 z "},"《":{"ha":658,"x_min":40,"x_max":613,"o":"m 460 -176 l 403 -210 l 40 418 l 403 1046 l 460 1013 l 115 418 l 460 -176 m 613 -176 l 556 -210 l 193 418 l 556 1046 l 613 1013 l 269 418 l 613 -176 z "},"》":{"ha":658,"x_min":38,"x_max":610,"o":"m 457 418 l 94 -210 l 38 -176 l 381 418 l 38 1013 l 94 1046 l 457 418 m 610 418 l 247 -210 l 190 -176 l 535 418 l 190 1013 l 247 1046 l 610 418 z "},"「":{"ha":488,"x_min":38,"x_max":450,"o":"m 450 983 l 139 983 l 139 468 l 38 468 l 38 1068 l 450 1068 l 450 983 z "},"」":{"ha":488,"x_min":38,"x_max":450,"o":"m 450 -232 l 38 -232 l 38 -147 l 349 -147 l 349 368 l 450 368 l 450 -232 z "},"『":{"ha":494,"x_min":42,"x_max":453,"o":"m 390 975 l 390 1010 l 104 1010 l 104 526 l 154 526 l 154 975 l 390 975 m 453 917 l 217 917 l 217 468 l 42 468 l 42 1068 l 453 1068 l 453 917 z "},"』":{"ha":494,"x_min":42,"x_max":453,"o":"m 390 -174 l 390 310 l 340 310 l 340 -139 l 104 -139 l 104 -174 l 390 -174 m 453 -232 l 42 -232 l 42 -81 l 278 -81 l 278 368 l 453 368 l 453 -232 z "},"【":{"ha":519,"x_min":29,"x_max":518,"o":"m 29 -179 l 29 1015 l 517 1015 q 376 899 439 965 q 267 755 313 832 q 198 592 222 678 q 174 417 174 507 q 198 241 174 326 q 267 78 222 156 q 376 -64 313 1 q 518 -179 440 -129 l 29 -179 z "},"】":{"ha":531,"x_min":7,"x_max":496,"o":"m 496 -179 l 7 -179 q 149 -64 85 -129 q 258 78 213 1 q 327 241 303 156 q 351 417 351 326 q 327 592 351 507 q 258 755 303 678 q 149 899 213 832 q 8 1015 86 965 l 496 1015 l 496 -179 z "},"±":{"ha":833,"x_min":76,"x_max":757,"o":"m 757 151 l 757 68 l 76 68 l 76 151 l 757 151 m 371 517 l 76 517 l 76 603 l 371 603 l 371 900 l 463 900 l 463 603 l 757 603 l 757 517 l 463 517 l 463 219 l 371 219 l 371 517 z "},"×":{"ha":833,"x_min":103,"x_max":732,"o":"m 357 446 l 103 717 l 163 776 l 417 504 l 669 771 l 732 708 l 478 443 l 732 175 l 672 115 l 419 383 l 165 115 l 103 178 l 357 446 z "},"÷":{"ha":833,"x_min":75,"x_max":758,"o":"m 758 488 l 758 399 l 75 399 l 75 488 l 758 488 m 358 776 l 475 776 l 475 663 l 358 663 l 358 776 m 358 224 l 475 224 l 475 110 l 358 110 l 358 224 z "},"≠":{"ha":833,"x_min":103,"x_max":731,"o":"m 103 636 l 490 636 l 613 822 l 696 822 l 574 636 l 731 636 l 731 546 l 515 546 l 382 343 l 731 343 l 731 253 l 324 253 l 204 69 l 121 69 l 240 253 l 103 253 l 103 343 l 299 343 l 432 546 l 103 546 l 103 636 z "},"≤":{"ha":833,"x_min":90,"x_max":743,"o":"m 90 508 l 90 581 l 743 856 l 743 771 l 199 542 l 743 319 l 743 231 l 90 508 m 743 146 l 743 68 l 90 68 l 90 146 l 743 146 z "},"≥":{"ha":833,"x_min":90,"x_max":743,"o":"m 90 231 l 90 319 l 635 542 l 90 771 l 90 856 l 743 581 l 743 508 l 90 231 m 743 146 l 743 68 l 90 68 l 90 146 l 743 146 z "},"∞":{"ha":833,"x_min":10,"x_max":824,"o":"m 628 225 q 558 239 589 225 q 503 275 528 253 q 457 324 478 297 q 417 375 436 350 q 371 319 393 346 q 323 271 349 292 q 266 238 297 250 q 194 225 235 225 q 60 280 111 225 q 10 422 10 335 q 24 497 10 461 q 65 560 39 533 q 126 602 90 586 q 206 618 163 618 q 275 604 244 618 q 331 568 306 590 q 376 520 356 546 q 417 469 397 494 q 460 522 438 496 q 508 570 482 549 q 565 605 533 592 q 639 618 597 618 q 774 564 724 618 q 824 422 824 510 q 809 347 824 382 q 769 284 794 311 q 707 241 743 257 q 628 225 671 225 m 631 294 q 718 333 685 294 q 751 422 751 371 q 719 514 751 478 q 633 550 688 550 q 583 539 606 550 q 541 510 561 528 q 502 469 521 492 q 464 422 483 446 q 497 380 481 403 q 533 338 514 357 q 576 307 553 319 q 631 294 600 294 m 200 294 q 249 306 226 294 q 293 335 272 317 q 333 376 314 353 q 371 422 353 399 q 337 465 354 442 q 300 506 319 488 q 257 538 281 525 q 204 550 233 550 q 116 512 149 550 q 83 422 83 474 q 115 331 83 367 q 200 294 146 294 z "},"∴":{"ha":833,"x_min":74,"x_max":760,"o":"m 760 168 q 736 112 760 135 q 681 89 713 89 q 624 112 647 89 q 601 168 601 135 q 624 223 601 200 q 681 246 647 246 q 736 223 713 246 q 760 168 760 200 m 232 168 q 208 112 232 135 q 153 89 185 89 q 97 112 119 89 q 74 168 74 135 q 97 223 74 200 q 153 246 119 246 q 208 223 185 246 q 232 168 232 200 m 494 717 q 472 660 494 683 q 417 636 450 636 q 360 660 383 636 q 336 717 336 683 q 360 772 336 749 q 417 794 383 794 q 472 772 450 794 q 494 717 494 749 z "},"°":{"ha":419,"x_min":49,"x_max":371,"o":"m 371 846 q 359 783 371 813 q 326 732 347 754 q 276 697 306 710 q 210 685 246 685 q 144 697 174 685 q 93 732 114 710 q 60 783 72 754 q 49 846 49 813 q 60 908 49 879 q 93 960 72 938 q 144 994 114 982 q 210 1007 174 1007 q 276 994 246 1007 q 326 960 306 982 q 359 908 347 938 q 371 846 371 879 m 301 846 q 277 914 301 886 q 210 942 253 942 q 142 914 167 942 q 118 846 118 886 q 142 778 118 806 q 210 750 167 750 q 277 778 253 750 q 301 846 301 806 z "},"′":{"ha":635,"x_min":194,"x_max":440,"o":"m 440 1014 l 256 678 l 194 678 l 321 1014 l 440 1014 z "},"″":{"ha":819,"x_min":194,"x_max":625,"o":"m 436 1014 l 251 678 l 194 678 l 321 1014 l 436 1014 m 625 1014 l 440 678 l 383 678 l 510 1014 l 625 1014 z "},"℃":{"ha":1111,"x_min":82,"x_max":1075,"o":"m 346 864 q 310 775 346 811 q 214 739 274 739 q 118 775 154 739 q 82 864 82 811 q 118 953 82 917 q 214 989 154 989 q 310 953 274 989 q 346 864 346 917 m 733 981 q 910 955 833 981 q 1050 881 988 929 l 1000 804 q 871 871 932 853 q 733 889 810 889 q 610 863 664 889 q 521 791 557 838 q 466 680 485 744 q 447 536 447 615 l 447 408 q 526 132 447 222 q 743 42 604 42 q 903 72 838 42 q 1018 144 969 101 l 1075 68 q 940 -17 1019 18 q 742 -51 861 -51 q 448 69 547 -51 q 349 408 349 190 l 349 532 q 449 863 349 746 q 733 981 550 981 m 146 864 q 164 812 146 832 q 214 792 182 792 q 264 812 246 792 q 282 864 282 832 q 264 916 282 896 q 214 936 246 936 q 164 916 182 936 q 146 864 146 896 z "},"Å":{"ha":914,"x_min":31,"x_max":883,"o":"m 31 -36 l 386 922 q 343 967 358 939 q 328 1029 328 996 q 338 1076 328 1054 q 364 1115 347 1099 q 404 1142 381 1132 q 457 1153 428 1153 q 508 1142 485 1153 q 549 1115 532 1132 q 576 1076 567 1099 q 586 1029 586 1054 q 570 968 586 996 q 528 924 554 940 l 883 -36 l 779 -36 l 668 275 l 244 275 l 131 -36 l 31 -36 m 275 360 l 638 360 l 540 631 q 522 679 531 656 q 504 731 514 703 q 483 795 494 760 q 457 879 472 831 q 432 795 443 831 q 411 731 421 760 q 393 679 401 703 q 375 631 385 656 l 275 360 m 457 956 q 507 976 489 956 q 525 1029 525 997 q 507 1079 525 1060 q 457 1099 489 1099 q 406 1079 425 1099 q 388 1029 388 1060 q 406 976 388 997 q 457 956 425 956 z "},"¢":{"ha":692,"x_min":76,"x_max":658,"o":"m 361 97 q 152 186 228 106 q 76 422 76 267 l 76 514 q 97 649 76 590 q 156 747 118 707 q 246 807 193 786 q 361 832 299 828 l 361 965 l 438 965 l 438 831 q 549 807 500 825 q 638 760 597 789 l 594 688 q 516 729 554 715 q 438 747 478 743 l 438 183 q 538 210 496 190 q 614 256 579 229 l 658 181 q 570 129 622 153 q 438 99 518 106 l 438 -36 l 361 -36 l 361 97 m 169 422 q 222 250 169 308 q 361 183 274 192 l 361 749 q 222 683 274 740 q 169 517 169 625 l 169 422 z "},"£":{"ha":764,"x_min":86,"x_max":718,"o":"m 86 510 l 206 510 l 206 649 q 229 795 206 735 q 292 893 253 856 q 385 948 332 931 q 494 965 438 965 q 606 953 556 965 q 688 921 656 940 l 651 843 q 578 867 611 860 q 504 875 546 875 q 424 865 461 875 q 360 828 388 854 q 318 756 333 801 q 303 639 303 710 l 303 510 l 583 510 l 583 432 l 303 432 l 303 301 q 285 149 303 206 q 214 53 267 92 l 214 50 l 718 50 l 718 -36 l 88 -36 l 88 40 q 179 138 153 79 q 206 299 206 197 l 206 432 l 86 432 l 86 510 z "},"¥":{"ha":836,"x_min":49,"x_max":785,"o":"m 372 178 l 132 178 l 132 256 l 372 256 l 372 356 l 132 356 l 132 433 l 351 433 l 49 956 l 157 956 l 422 479 l 426 479 l 686 956 l 785 956 l 489 433 l 710 433 l 710 356 l 469 356 l 469 256 l 710 256 l 710 178 l 469 178 l 469 -36 l 372 -36 l 372 178 z "},"♂":{"ha":1078,"x_min":68,"x_max":1011,"o":"m 68 364 q 98 513 68 443 q 180 635 128 583 q 302 718 232 688 q 453 749 372 749 q 581 727 521 749 q 690 667 640 706 l 858 833 l 707 833 l 707 921 l 1011 921 l 1011 618 l 922 618 l 922 771 l 754 601 q 815 492 793 553 q 838 364 838 432 q 807 215 838 285 q 724 92 776 144 q 602 10 672 40 q 453 -21 532 -21 q 302 10 372 -21 q 180 92 232 40 q 98 215 128 144 q 68 364 68 285 m 156 364 q 178 247 156 301 q 241 150 201 192 q 335 84 281 108 q 453 60 389 60 q 569 84 515 60 q 664 150 624 108 q 727 247 704 192 q 750 364 750 301 q 727 482 750 426 q 664 578 704 538 q 569 644 624 619 q 453 668 515 668 q 335 644 389 668 q 241 578 281 619 q 178 482 201 538 q 156 364 156 426 z "},"♀":{"ha":906,"x_min":68,"x_max":838,"o":"m 406 260 q 273 302 335 269 q 165 385 211 335 q 94 501 119 436 q 68 642 68 567 q 98 791 68 721 q 180 913 128 861 q 302 996 232 965 q 453 1026 372 1026 q 602 996 532 1026 q 724 913 672 965 q 807 791 776 861 q 838 642 838 721 q 812 501 838 567 q 740 385 786 436 q 633 302 694 335 q 500 260 571 269 l 500 79 l 697 79 l 697 -10 l 500 -10 l 500 -207 l 406 -207 l 406 -10 l 207 -10 l 207 79 l 406 79 l 406 260 m 156 642 q 178 524 156 579 q 241 428 201 469 q 335 362 281 386 q 453 338 389 338 q 569 362 515 338 q 664 428 624 386 q 727 524 704 469 q 750 642 750 579 q 727 760 750 704 q 664 856 704 815 q 569 922 624 897 q 453 946 515 946 q 335 922 389 946 q 241 856 281 897 q 178 760 201 815 q 156 642 156 704 z "},"∠":{"ha":1264,"x_min":208,"x_max":1056,"o":"m 1056 0 l 208 0 l 208 63 l 864 826 l 935 768 l 346 88 l 1056 88 l 1056 0 z "},"⊥":{"ha":1264,"x_min":189,"x_max":1075,"o":"m 1075 0 l 189 0 l 189 90 l 586 90 l 586 797 l 678 797 l 678 90 l 1075 90 l 1075 0 z "},"⌒":{"ha":1264,"x_min":269,"x_max":993,"o":"m 901 799 q 858 859 883 831 q 799 909 832 888 q 724 943 765 931 q 633 956 683 956 q 466 909 533 956 q 363 799 399 863 l 269 799 q 411 960 324 899 q 631 1022 499 1022 q 852 960 765 1022 q 993 799 939 899 l 901 799 z "},"∂":{"ha":717,"x_min":38,"x_max":667,"o":"m 85 933 q 176 983 121 960 q 315 1007 232 1007 q 446 976 382 1007 q 558 883 510 944 q 637 731 607 822 q 667 518 667 639 q 636 285 667 385 q 556 118 606 185 q 440 18 506 51 q 303 -15 374 -15 q 185 8 235 -15 q 102 72 135 32 q 53 163 69 111 q 38 271 38 214 q 61 403 38 342 q 126 510 85 464 q 222 582 167 556 q 339 608 276 608 q 422 597 383 608 q 490 567 460 585 q 541 526 519 549 q 575 482 563 503 l 576 482 q 578 508 578 494 q 578 535 578 522 q 553 709 578 635 q 490 832 529 783 q 404 904 451 881 q 310 928 357 928 q 193 910 240 928 q 117 871 146 892 l 85 933 m 313 63 q 406 89 363 63 q 481 160 449 115 q 535 264 514 206 q 564 388 556 322 q 533 442 553 417 q 485 488 513 468 q 423 519 457 507 q 350 531 389 531 q 266 511 306 531 q 197 458 226 492 q 149 376 167 424 q 132 275 132 329 q 182 119 132 175 q 313 63 232 63 z "},"∇":{"ha":1264,"x_min":90,"x_max":1174,"o":"m 1036 757 l 228 757 l 632 108 l 1036 757 m 1174 828 l 632 -31 l 90 828 l 1174 828 z "},"≡":{"ha":833,"x_min":76,"x_max":761,"o":"m 76 201 l 76 272 l 761 272 l 761 201 l 76 201 m 76 607 l 76 678 l 761 678 l 761 607 l 76 607 m 76 404 l 76 475 l 761 475 l 761 404 l 76 404 z "},"≒":{"ha":833,"x_min":76,"x_max":760,"o":"m 76 363 l 760 363 l 760 283 l 76 283 l 76 363 m 76 586 l 760 586 l 760 508 l 76 508 l 76 586 m 201 743 q 227 805 201 779 q 289 831 253 831 q 351 805 325 831 q 376 743 376 779 q 351 681 376 707 q 289 656 325 656 q 227 681 253 656 q 201 743 201 707 m 471 124 q 497 186 471 160 q 558 213 522 213 q 620 186 594 213 q 646 124 646 160 q 620 62 646 88 q 558 36 594 36 q 497 62 522 36 q 471 124 471 88 z "},"§":{"ha":714,"x_min":50,"x_max":664,"o":"m 328 -215 q 197 -199 250 -215 q 100 -160 143 -183 l 100 -82 q 145 -101 122 -92 q 194 -118 168 -111 q 250 -130 219 -125 q 319 -135 281 -135 q 460 -97 415 -135 q 506 1 506 -60 q 499 54 506 32 q 475 92 492 76 q 431 121 458 108 q 365 146 404 133 q 242 185 299 167 q 142 231 185 204 q 74 299 99 258 q 50 407 50 340 q 88 523 50 478 q 197 590 126 568 q 138 659 158 618 q 118 763 118 700 q 185 919 118 858 q 382 979 251 979 q 502 965 457 979 q 581 933 547 950 l 581 857 q 499 885 549 872 q 383 897 450 897 q 254 865 300 897 q 208 771 208 832 q 232 683 208 714 q 322 631 256 653 q 463 586 400 606 q 571 540 526 567 q 640 472 615 513 q 664 367 664 432 q 625 246 664 292 q 514 178 586 200 q 579 110 558 150 q 600 10 600 71 q 529 -155 600 -94 q 328 -215 458 -215 m 418 508 q 345 530 381 519 q 274 553 310 540 q 174 503 208 540 q 140 414 140 467 q 172 321 140 354 q 274 265 203 288 q 353 243 311 254 q 431 217 394 232 q 535 268 500 231 q 569 360 569 306 q 533 453 569 422 q 418 508 496 485 z "},"※":{"ha":1264,"x_min":110,"x_max":1154,"o":"m 1133 -8 l 1071 -69 l 626 379 l 183 -69 l 125 -11 l 572 433 l 128 879 l 185 940 l 628 492 l 1075 940 l 1131 882 l 683 436 l 1133 -8 m 715 849 q 688 781 715 810 q 619 751 660 751 q 551 781 581 751 q 522 849 522 810 q 551 916 522 888 q 618 944 579 944 q 685 916 657 944 q 714 849 714 888 l 715 849 m 303 432 q 275 366 303 394 q 207 338 247 338 q 140 366 169 338 q 110 432 110 394 q 139 501 110 472 q 206 529 168 529 q 273 501 244 529 q 301 432 301 472 l 303 432 m 1154 432 q 1126 367 1154 394 q 1058 339 1097 339 q 992 367 1021 339 q 963 432 963 394 q 990 501 963 474 q 1057 529 1018 529 q 1125 501 1096 529 q 1154 432 1154 474 m 715 4 q 688 -62 715 -33 q 619 -90 660 -90 q 553 -62 581 -90 q 525 4 525 -33 q 552 73 525 44 q 618 101 579 101 q 686 73 657 101 q 715 4 715 44 z "},"☆":{"ha":1264,"x_min":11,"x_max":1253,"o":"m 785 618 l 1253 618 l 874 336 l 1015 -111 l 635 160 l 247 -111 l 393 336 l 11 618 l 486 618 l 635 1061 l 785 618 m 633 901 l 522 567 l 164 567 l 451 353 l 339 15 l 633 221 l 921 15 l 815 353 l 1101 567 l 747 567 l 633 901 z "},"★":{"ha":1264,"x_min":11,"x_max":1253,"o":"m 785 618 l 1253 618 l 874 336 l 1015 -111 l 635 160 l 247 -111 l 393 336 l 11 618 l 486 618 l 635 1061 l 785 618 z "},"○":{"ha":1264,"x_min":133,"x_max":1129,"o":"m 133 478 q 172 672 133 581 q 278 830 211 763 q 437 937 346 897 q 631 976 528 976 q 825 937 735 976 q 983 830 915 897 q 1090 672 1051 763 q 1129 478 1129 581 q 1090 283 1129 374 q 983 125 1051 193 q 825 18 915 57 q 631 -21 735 -21 q 437 18 528 -21 q 278 125 346 57 q 172 283 211 193 q 133 478 133 374 m 203 478 q 236 311 203 389 q 328 175 269 233 q 464 83 386 117 q 631 50 542 50 q 798 83 719 50 q 935 175 876 117 q 1026 311 993 233 q 1060 478 1060 389 q 1026 644 1060 567 q 935 781 993 722 q 798 873 876 839 q 631 907 719 907 q 464 873 542 907 q 328 781 386 839 q 236 644 269 722 q 203 478 203 567 z "},"●":{"ha":1264,"x_min":133,"x_max":1129,"o":"m 133 478 q 172 672 133 581 q 278 830 211 763 q 437 937 346 897 q 631 976 528 976 q 825 937 735 976 q 983 830 915 897 q 1090 672 1051 763 q 1129 478 1129 581 q 1090 283 1129 374 q 983 125 1051 193 q 825 18 915 57 q 631 -21 735 -21 q 437 18 528 -21 q 278 125 346 57 q 172 283 211 193 q 133 478 133 374 z "},"◎":{"ha":1264,"x_min":133,"x_max":1129,"o":"m 133 478 q 172 672 133 581 q 278 830 211 763 q 437 937 346 897 q 631 976 528 976 q 825 937 735 976 q 983 830 915 897 q 1090 672 1051 763 q 1129 478 1129 581 q 1090 283 1129 374 q 983 125 1051 193 q 825 18 915 57 q 631 -21 735 -21 q 437 18 528 -21 q 278 125 346 57 q 172 283 211 193 q 133 478 133 374 m 206 478 q 239 313 206 390 q 330 177 272 235 q 465 86 388 119 q 631 53 543 53 q 797 86 719 53 q 933 177 875 119 q 1024 313 990 235 q 1057 478 1057 390 q 1024 643 1057 565 q 933 778 990 721 q 797 870 875 836 q 631 904 719 904 q 465 870 543 904 q 330 778 388 836 q 239 643 272 721 q 206 478 206 565 m 332 478 q 356 593 332 539 q 419 688 379 647 q 514 753 460 729 q 631 776 568 776 q 747 753 693 776 q 842 688 801 729 q 906 593 882 647 q 929 478 929 539 q 906 361 929 415 q 842 267 882 307 q 747 203 801 226 q 631 179 693 179 q 514 203 568 179 q 419 267 460 226 q 356 361 379 307 q 332 478 332 415 m 406 478 q 424 391 406 432 q 472 319 442 350 q 544 271 503 289 q 631 253 585 253 q 719 271 678 253 q 790 319 760 289 q 839 391 821 350 q 857 478 857 432 q 839 565 857 524 q 790 637 821 606 q 719 686 760 668 q 631 704 678 704 q 544 686 585 704 q 472 637 503 668 q 424 565 442 606 q 406 478 406 524 z "},"◇":{"ha":1264,"x_min":92,"x_max":1171,"o":"m 632 1017 l 1171 476 l 632 -64 l 92 476 l 632 1017 m 632 910 l 199 478 l 632 43 l 1064 476 l 632 910 z "},"◆":{"ha":1264,"x_min":92,"x_max":1172,"o":"m 92 478 l 632 1017 l 1172 476 l 633 -64 l 92 478 z "},"□":{"ha":1264,"x_min":154,"x_max":1108,"o":"m 154 954 l 1108 954 l 1108 0 l 154 0 l 154 954 m 225 883 l 225 72 l 1038 72 l 1038 883 l 225 883 z "},"■":{"ha":1264,"x_min":154,"x_max":1110,"o":"m 154 0 l 154 954 l 1110 954 l 1110 0 l 154 0 z "},"△":{"ha":1264,"x_min":121,"x_max":1143,"o":"m 121 -96 l 632 919 l 1143 -96 l 121 -96 m 1022 -26 l 629 758 l 236 -26 l 1022 -26 z "},"▲":{"ha":1264,"x_min":122,"x_max":1142,"o":"m 122 -96 l 632 919 l 1142 -96 l 122 -96 z "},"▽":{"ha":1264,"x_min":121,"x_max":1143,"o":"m 1143 906 l 632 -110 l 121 906 l 1143 906 m 239 835 l 632 50 l 1025 835 l 239 835 z "},"▼":{"ha":1264,"x_min":122,"x_max":1142,"o":"m 1142 906 l 632 -110 l 122 906 l 1142 906 z "},"→":{"ha":1264,"x_min":144,"x_max":1118,"o":"m 144 518 l 913 518 l 808 694 l 829 718 l 1118 478 l 829 238 l 808 261 l 913 436 l 144 436 l 144 518 z "},"←":{"ha":1264,"x_min":144,"x_max":1118,"o":"m 1118 436 l 350 436 l 454 261 l 433 238 l 144 478 l 433 718 l 454 694 l 350 518 l 1118 518 l 1118 436 z "},"↑":{"ha":1264,"x_min":392,"x_max":872,"o":"m 592 0 l 592 768 l 415 664 l 392 685 l 632 974 l 872 685 l 849 664 l 672 768 l 672 0 l 592 0 z "},"↓":{"ha":1264,"x_min":392,"x_max":872,"o":"m 672 954 l 672 188 l 849 290 l 872 269 l 632 -19 l 392 269 l 415 290 l 592 188 l 592 954 l 672 954 z "},"↔":{"ha":1264,"x_min":82,"x_max":1182,"o":"m 392 261 l 371 238 l 82 478 l 371 718 l 392 694 l 288 518 l 976 518 l 872 694 l 893 718 l 1182 478 l 893 238 l 872 261 l 976 436 l 288 436 l 392 261 z "},"〓":{"ha":1264,"x_min":182,"x_max":1082,"o":"m 1082 271 l 182 271 l 182 324 l 1082 324 l 1082 271 m 1082 543 l 182 543 l 182 596 l 1082 596 l 1082 543 z "},"«":{"ha":1264,"x_min":131,"x_max":1133,"o":"m 1133 21 l 1092 -47 l 422 389 l 422 451 l 1081 900 l 1129 835 l 521 421 l 1133 21 m 842 17 l 797 -53 l 131 389 l 131 451 l 788 907 l 836 839 l 229 419 l 842 17 z "},"»":{"ha":1264,"x_min":131,"x_max":1133,"o":"m 842 389 l 172 -47 l 131 21 l 743 421 q 438 628 593 522 q 135 835 283 735 l 183 900 l 842 451 l 842 389 m 1133 389 l 467 -53 l 422 17 l 1035 419 q 731 630 886 522 q 428 839 576 738 l 476 907 l 1133 451 l 1133 389 z "},"√":{"ha":764,"x_min":49,"x_max":789,"o":"m 468 -171 l 397 -171 l 174 431 l 72 386 l 49 443 l 224 515 l 403 15 q 417 -26 410 -4 q 426 -65 424 -49 l 428 -65 q 435 -26 431 -49 q 446 15 440 -4 l 713 1111 l 789 1111 l 468 -171 z "},"∽":{"ha":1264,"x_min":113,"x_max":1151,"o":"m 1151 439 q 1133 339 1151 386 q 1081 256 1114 292 q 1001 198 1047 219 q 899 176 954 176 q 812 192 854 176 q 729 238 769 208 l 775 306 q 835 272 806 282 q 899 263 864 263 q 965 276 935 263 q 1017 313 994 289 q 1051 369 1039 338 q 1063 439 1063 401 q 1051 503 1063 472 q 1017 559 1039 535 q 966 598 996 583 q 900 613 936 613 q 773 564 824 613 q 675 426 722 515 q 633 351 658 394 q 572 269 608 308 q 483 204 535 231 q 363 178 432 178 q 272 194 317 178 q 191 244 226 211 q 134 325 156 276 q 113 439 113 374 q 133 550 113 501 q 189 631 154 599 q 269 681 224 664 q 361 699 314 699 q 451 682 408 699 q 533 640 494 665 l 489 571 q 430 599 460 588 q 371 610 400 610 q 249 562 294 610 q 203 439 203 514 q 247 314 203 361 q 369 267 290 267 q 460 290 421 267 q 528 346 499 313 q 578 417 557 379 q 614 485 599 456 q 662 565 635 526 q 724 633 689 604 q 801 681 758 663 q 897 699 844 699 q 999 677 953 699 q 1080 619 1046 656 q 1133 537 1114 583 q 1151 439 1151 490 z "},"∝":{"ha":1264,"x_min":158,"x_max":1104,"o":"m 418 267 q 495 282 461 267 q 556 322 529 297 q 602 378 582 347 q 638 438 622 408 q 601 497 622 467 q 553 553 581 528 q 493 594 526 578 q 418 610 460 610 q 297 562 342 610 q 251 439 251 514 q 294 313 251 360 q 418 267 338 267 m 1057 568 q 1001 600 1029 588 q 944 613 972 613 q 820 567 869 613 q 726 438 771 521 q 820 308 771 353 q 944 263 869 263 q 999 271 968 263 q 1054 293 1029 279 l 1083 215 q 944 176 1014 176 q 861 191 900 176 q 789 231 822 206 q 728 288 756 256 q 681 353 701 319 q 639 291 663 322 q 584 235 615 260 q 512 194 553 210 q 417 178 471 178 q 324 194 369 178 q 241 244 278 211 q 181 325 204 276 q 158 439 158 374 q 181 550 158 501 q 239 631 203 599 q 321 681 275 664 q 415 699 367 699 q 509 683 468 699 q 582 641 550 667 q 638 583 614 615 q 681 521 661 551 q 728 589 701 557 q 787 645 754 621 q 859 684 819 669 q 944 699 899 699 q 1025 683 985 699 q 1104 639 1065 667 l 1057 568 z "},"∵":{"ha":814,"x_min":68,"x_max":754,"o":"m 68 701 q 91 758 68 735 q 147 781 114 781 q 203 758 179 781 q 226 701 226 735 q 203 646 226 668 q 147 624 179 624 q 91 646 114 624 q 68 701 68 668 m 596 701 q 619 758 596 735 q 675 781 642 781 q 731 758 707 781 q 754 701 754 735 q 731 646 754 668 q 675 624 707 624 q 619 646 642 624 q 596 701 596 668 m 332 153 q 355 209 332 185 q 411 233 378 233 q 467 209 443 233 q 490 153 490 185 q 467 98 490 121 q 411 75 443 75 q 355 98 378 75 q 332 153 332 121 z "},"∫":{"ha":421,"x_min":13,"x_max":406,"o":"m 390 1022 q 372 1026 382 1025 q 351 1028 363 1028 q 317 1022 333 1028 q 288 1000 300 1015 q 269 968 276 986 q 256 924 261 950 q 249 863 251 899 q 247 781 247 828 q 249 621 247 706 q 255 449 251 536 q 260 276 258 361 q 263 115 263 190 q 243 -53 263 8 q 197 -147 224 -115 q 147 -188 176 -174 q 81 -203 117 -203 q 40 -199 58 -203 q 13 -189 21 -194 l 26 -124 q 48 -128 36 -126 q 75 -131 60 -131 q 138 -103 111 -131 q 153 -76 146 -92 q 167 -35 161 -60 q 176 27 172 -10 q 179 117 179 64 q 177 279 179 193 q 172 453 175 365 q 166 627 168 542 q 164 786 164 713 q 182 951 164 889 q 236 1050 200 1013 q 349 1099 281 1099 q 406 1089 383 1099 l 390 1022 z "},"∬":{"ha":724,"x_min":13,"x_max":708,"o":"m 390 1022 q 372 1026 382 1025 q 351 1028 363 1028 q 317 1022 333 1028 q 288 1000 300 1015 q 269 968 276 986 q 256 924 261 950 q 249 863 251 899 q 247 781 247 828 q 249 621 247 706 q 255 449 251 536 q 260 276 258 361 q 263 115 263 190 q 243 -53 263 8 q 197 -147 224 -115 q 147 -188 176 -174 q 81 -203 117 -203 q 40 -199 58 -203 q 13 -189 21 -194 l 26 -124 q 48 -128 36 -126 q 75 -131 60 -131 q 138 -103 111 -131 q 153 -76 146 -92 q 167 -35 161 -60 q 176 27 172 -10 q 179 117 179 64 q 177 279 179 193 q 172 453 175 365 q 166 627 168 542 q 164 786 164 713 q 182 951 164 889 q 236 1050 200 1013 q 349 1099 281 1099 q 406 1089 383 1099 l 390 1022 m 693 1022 q 675 1026 685 1025 q 654 1028 665 1028 q 619 1022 636 1028 q 590 1000 603 1015 q 572 968 579 986 q 559 924 564 950 q 552 863 554 899 q 550 781 550 828 q 552 621 550 706 q 558 449 554 536 q 563 276 561 361 q 565 115 565 190 q 546 -53 565 8 q 500 -147 526 -115 q 449 -188 479 -174 q 383 -203 419 -203 q 342 -199 361 -203 q 315 -189 324 -194 l 329 -124 q 351 -128 339 -126 q 378 -131 363 -131 q 440 -103 414 -131 q 456 -76 449 -92 q 469 -35 464 -60 q 478 27 475 -10 q 482 117 482 64 q 480 279 482 193 q 474 453 478 365 q 469 627 471 542 q 467 786 467 713 q 485 951 467 889 q 539 1050 503 1013 q 651 1099 583 1099 q 708 1089 686 1099 l 693 1022 z "},"∈":{"ha":1264,"x_min":156,"x_max":1107,"o":"m 1104 414 l 247 414 q 273 327 253 367 q 329 258 293 288 q 419 213 365 229 q 546 197 472 197 l 1107 197 l 1107 114 l 553 114 q 375 141 450 114 q 251 215 300 168 q 179 324 203 261 q 156 457 156 386 q 178 583 156 524 q 247 685 200 642 q 369 755 294 729 q 546 781 443 781 l 1107 781 l 1107 697 l 546 697 q 419 681 472 697 q 330 638 365 665 q 274 575 294 611 q 249 497 254 539 l 1104 497 l 1104 414 z "},"∋":{"ha":1264,"x_min":156,"x_max":1107,"o":"m 158 497 l 1013 497 q 986 575 1006 539 q 931 638 967 611 q 843 681 896 665 q 717 697 790 697 l 156 697 l 156 781 l 717 781 q 894 755 819 781 q 1015 685 968 729 q 1085 583 1063 642 q 1107 457 1107 524 q 1083 324 1107 386 q 1011 215 1060 261 q 888 141 963 168 q 710 114 813 114 l 156 114 l 156 197 l 717 197 q 844 213 790 197 q 933 258 897 229 q 989 327 969 288 q 1014 414 1008 367 l 158 414 l 158 497 z "},"⊆":{"ha":1264,"x_min":156,"x_max":1107,"o":"m 1107 781 l 546 781 q 406 763 463 781 q 313 713 349 744 q 262 640 278 682 q 246 550 246 597 q 263 453 246 497 q 315 376 279 408 q 408 326 351 344 q 546 308 465 308 l 1107 308 l 1107 225 l 553 225 q 375 250 450 225 q 251 319 300 275 q 179 424 203 364 q 156 554 156 485 q 178 676 156 619 q 247 774 200 732 q 369 840 294 815 q 546 864 443 864 l 1107 864 l 1107 781 m 1104 3 l 207 3 l 207 86 l 1104 86 l 1104 3 z "},"⊇":{"ha":1264,"x_min":156,"x_max":1107,"o":"m 156 864 l 717 864 q 894 840 819 864 q 1015 774 968 815 q 1085 676 1063 732 q 1107 554 1107 619 q 1083 424 1107 485 q 1011 319 1060 364 q 888 250 963 275 q 710 225 813 225 l 156 225 l 156 308 l 717 308 q 854 326 797 308 q 947 376 911 344 q 1000 453 983 408 q 1017 550 1017 497 q 1001 640 1017 597 q 949 713 985 682 q 857 763 914 744 q 717 781 800 781 l 156 781 l 156 864 m 158 86 l 1056 86 l 1056 3 l 158 3 l 158 86 z "},"⊂":{"ha":1264,"x_min":156,"x_max":1107,"o":"m 1107 683 l 546 683 q 406 664 463 683 q 313 611 349 644 q 262 533 278 578 q 246 439 246 489 q 263 338 246 385 q 315 256 279 290 q 408 203 351 222 q 546 183 465 183 l 1107 183 l 1107 100 l 553 100 q 375 127 450 100 q 251 201 300 154 q 179 310 203 247 q 156 443 156 372 q 178 569 156 510 q 247 672 200 628 q 369 741 294 715 q 546 767 443 767 l 1107 767 l 1107 683 z "},"⊃":{"ha":1264,"x_min":156,"x_max":1107,"o":"m 156 781 l 717 781 q 894 755 819 781 q 1015 685 968 729 q 1085 583 1063 642 q 1107 457 1107 524 q 1083 324 1107 386 q 1011 215 1060 261 q 888 141 963 168 q 710 114 813 114 l 156 114 l 156 197 l 717 197 q 854 217 797 197 q 947 270 911 236 q 1000 351 983 304 q 1017 453 1017 399 q 1001 547 1017 503 q 949 625 985 592 q 857 678 914 658 q 717 697 800 697 l 156 697 l 156 781 z "},"∪":{"ha":1264,"x_min":293,"x_max":971,"o":"m 382 882 l 382 321 q 401 180 382 238 q 454 85 421 122 q 532 32 488 49 q 626 15 576 15 q 728 33 681 15 q 809 88 775 50 q 863 183 843 125 q 882 321 882 240 l 882 882 l 971 882 l 971 328 q 943 150 971 225 q 868 26 915 75 q 757 -46 821 -22 q 622 -69 693 -69 q 496 -47 556 -69 q 391 22 436 -25 q 319 144 346 69 q 293 321 293 218 l 293 882 l 382 882 z "},"∩":{"ha":1264,"x_min":294,"x_max":969,"o":"m 632 882 q 766 858 704 882 q 873 786 828 835 q 944 663 918 738 q 969 485 969 588 l 969 -69 l 881 -69 l 881 492 q 863 631 881 572 q 811 727 844 689 q 732 783 778 765 q 632 801 686 801 q 532 783 578 801 q 453 727 486 765 q 401 631 419 689 q 383 492 383 572 l 383 -69 l 294 -69 l 294 485 q 320 663 294 588 q 391 786 346 738 q 498 858 436 835 q 632 882 560 882 z "},"∧":{"ha":1264,"x_min":186,"x_max":1078,"o":"m 1078 31 l 1003 -6 l 632 708 q 446 351 540 532 q 261 -6 351 171 l 186 31 l 594 821 l 669 821 l 1078 31 z "},"∨":{"ha":1264,"x_min":186,"x_max":1078,"o":"m 1078 793 l 669 4 l 594 4 l 186 793 l 261 831 l 632 115 q 818 472 724 292 q 1003 831 913 653 l 1078 793 z "},"¬":{"ha":1264,"x_min":38,"x_max":1226,"o":"m 1226 -215 l 1144 -215 l 1144 140 l 38 140 l 38 219 l 1226 219 l 1226 -215 z "},"⇒":{"ha":1264,"x_min":7,"x_max":1257,"o":"m 1257 417 l 901 58 l 856 103 l 1015 261 l 7 261 l 7 322 l 1075 322 l 1171 417 q 1123 465 1147 442 q 1075 513 1099 488 l 7 513 l 7 574 l 1014 574 l 856 729 l 901 774 l 1257 417 z "},"⇔":{"ha":1264,"x_min":4,"x_max":1258,"o":"m 1258 417 l 903 58 l 857 103 l 1017 261 l 246 261 l 406 103 l 360 58 l 4 417 l 360 774 l 406 729 l 247 574 l 1015 574 l 857 729 l 903 774 l 1258 417 m 1172 417 q 1124 465 1149 442 q 1076 513 1100 488 l 186 513 q 139 465 161 486 q 90 417 117 444 l 186 322 l 1076 322 l 1172 417 z "},"∀":{"ha":1264,"x_min":206,"x_max":1058,"o":"m 206 965 l 310 965 l 421 654 l 844 654 l 958 965 l 1058 965 l 686 -36 l 576 -36 l 206 965 m 632 50 q 657 134 646 99 q 678 198 668 169 q 696 250 688 226 q 714 299 704 274 l 813 569 l 451 569 l 549 299 q 567 250 558 274 q 585 198 575 226 q 606 134 594 169 q 632 50 617 99 z "},"∃":{"ha":1264,"x_min":325,"x_max":938,"o":"m 938 965 l 938 -36 l 325 -36 l 325 50 l 840 50 l 840 435 l 364 435 l 364 521 l 840 521 l 840 879 l 335 879 l 335 965 l 938 965 z "},"´":{"ha":833,"x_min":286,"x_max":547,"o":"m 286 789 l 432 985 l 547 985 l 375 789 l 286 789 z "},"˜":{"ha":833,"x_min":217,"x_max":617,"o":"m 217 814 q 260 913 225 881 q 338 944 296 944 q 383 936 363 944 q 424 917 404 928 q 461 899 443 907 q 496 890 479 890 q 532 904 517 890 q 553 946 547 918 l 617 946 q 574 847 610 879 q 496 815 538 815 q 450 824 471 815 q 410 842 429 832 q 372 861 390 853 q 338 869 354 869 q 282 814 293 869 l 217 814 l 217 814 z "},"ˇ":{"ha":833,"x_min":235,"x_max":599,"o":"m 457 782 l 375 782 l 235 975 l 311 975 l 418 853 l 521 975 l 599 975 l 457 782 z "},"˘":{"ha":833,"x_min":236,"x_max":597,"o":"m 417 785 q 290 831 339 785 q 236 956 240 878 l 308 956 q 342 882 315 908 q 417 856 369 856 q 492 882 465 856 q 525 956 518 908 l 597 956 q 544 831 594 878 q 417 785 494 785 z "},"˝":{"ha":833,"x_min":231,"x_max":604,"o":"m 304 985 l 404 985 l 310 789 l 231 789 l 304 985 m 504 985 l 604 985 l 510 789 l 431 789 l 504 985 z "},"˚":{"ha":1264,"x_min":503,"x_max":761,"o":"m 632 772 q 538 810 574 772 q 503 899 503 847 q 513 946 503 924 q 539 985 522 968 q 579 1012 556 1001 q 632 1022 603 1022 q 683 1012 660 1022 q 724 985 707 1001 q 751 946 742 968 q 761 899 761 924 q 725 810 761 847 q 632 772 689 772 m 632 825 q 682 846 664 825 q 700 899 700 867 q 682 949 700 929 q 632 968 664 968 q 581 949 600 968 q 563 899 563 929 q 581 846 563 867 q 632 825 600 825 z "},"˙":{"ha":833,"x_min":368,"x_max":464,"o":"m 368 928 l 464 928 l 464 826 l 368 826 l 368 928 z "},"¸":{"ha":833,"x_min":300,"x_max":533,"o":"m 300 -212 q 417 -194 381 -206 q 453 -154 453 -183 q 424 -116 453 -125 q 331 -107 394 -107 l 331 11 l 397 11 l 397 -53 q 496 -76 458 -56 q 533 -146 533 -97 q 481 -236 533 -207 q 300 -274 429 -265 l 300 -212 z "},"˛":{"ha":833,"x_min":310,"x_max":522,"o":"m 451 -272 q 310 -169 310 -272 q 322 -116 310 -140 q 351 -73 333 -92 q 389 -40 368 -54 q 429 -12 410 -25 l 507 -12 q 427 -82 460 -49 q 394 -157 394 -115 q 415 -200 394 -192 q 472 -208 435 -208 q 522 -200 503 -208 l 522 -260 q 492 -268 510 -264 q 451 -272 474 -272 z "},"¡":{"ha":389,"x_min":128,"x_max":261,"o":"m 261 856 l 128 856 l 128 992 l 261 992 l 261 856 m 235 711 l 251 -75 l 138 -75 l 154 711 l 235 711 z "},"¿":{"ha":722,"x_min":64,"x_max":646,"o":"m 449 844 l 315 844 l 315 981 l 449 981 l 449 844 m 429 710 l 429 644 q 422 583 429 610 q 400 529 415 556 q 359 474 385 503 q 294 408 333 446 q 247 363 269 385 q 205 316 224 340 q 175 263 186 292 q 164 199 164 235 l 164 176 q 215 58 164 101 q 353 14 265 14 q 482 42 424 14 q 583 119 540 71 l 646 56 q 599 10 626 33 q 535 -33 571 -14 q 453 -63 499 -51 q 356 -75 408 -75 q 140 -7 217 -75 q 64 175 64 61 l 64 199 q 80 289 64 250 q 122 360 96 328 q 179 422 147 393 q 243 482 211 451 q 283 523 265 504 q 312 560 300 542 q 329 600 324 579 q 335 649 335 621 l 335 710 l 429 710 z "},"ː":{"ha":1264,"x_min":515,"x_max":749,"o":"m 749 103 l 515 103 l 631 233 l 749 103 m 749 757 l 631 625 l 515 757 l 749 757 z "},"∮":{"ha":1264,"x_min":342,"x_max":922,"o":"m 857 872 q 828 913 846 899 q 788 928 811 928 q 729 847 757 928 q 685 617 701 765 q 754 597 722 613 q 810 557 786 582 q 846 497 833 532 q 854 415 858 461 q 833 336 850 371 q 789 276 815 301 q 728 236 763 251 q 658 215 694 221 q 599 -36 639 63 q 544 -122 576 -89 q 469 -156 511 -156 q 342 -74 385 -156 l 403 -37 q 433 -79 415 -64 q 474 -94 450 -94 q 533 -14 504 -94 q 576 217 561 67 q 512 238 542 222 q 460 278 482 253 q 428 338 439 303 q 421 415 417 372 q 441 490 425 457 q 481 549 457 524 q 537 590 506 574 q 601 613 568 606 q 663 869 621 768 q 717 956 685 922 q 792 989 750 989 q 922 901 878 989 l 857 872 m 786 415 q 763 519 792 474 q 681 575 735 564 q 672 417 674 501 q 669 334 671 374 q 663 257 667 294 q 747 311 714 269 q 786 415 781 353 m 597 569 q 524 513 553 553 q 489 415 494 474 q 508 313 483 354 q 581 258 533 272 q 589 417 586 331 q 597 569 590 496 z "},"∑":{"ha":804,"x_min":115,"x_max":728,"o":"m 718 965 l 718 879 l 240 879 l 528 461 l 235 50 l 728 50 l 728 -36 l 115 -36 l 115 33 l 417 460 l 115 900 l 115 965 l 718 965 z "},"∏":{"ha":885,"x_min":42,"x_max":843,"o":"m 682 -36 l 585 -36 l 585 881 l 300 881 l 300 -36 l 203 -36 l 203 881 l 42 881 l 42 965 l 843 965 l 843 881 l 682 881 l 682 -36 z "},"¤":{"ha":1264,"x_min":149,"x_max":1114,"o":"m 950 436 q 924 563 950 504 q 854 667 899 622 q 750 737 810 711 q 624 763 690 763 q 496 737 556 763 q 392 667 436 711 q 323 563 349 622 q 297 436 297 504 q 323 309 297 368 q 392 206 349 250 q 496 135 436 161 q 624 110 556 110 q 750 135 690 110 q 854 206 810 161 q 924 309 899 250 q 950 436 950 368 m 1114 801 l 957 663 q 1007 557 989 614 q 1025 436 1025 500 q 1004 308 1025 368 q 944 196 983 247 l 1113 46 l 1063 -11 l 894 140 q 771 63 842 93 q 624 33 700 33 q 481 60 549 33 q 363 131 414 86 l 200 -11 l 150 46 l 310 186 q 245 301 269 238 q 221 436 221 364 q 240 560 221 501 q 294 669 260 619 l 149 801 l 201 858 l 346 728 q 470 809 399 779 q 624 839 542 839 q 781 806 708 839 q 908 718 853 772 l 1063 858 l 1114 801 z "},"℉":{"ha":1111,"x_min":82,"x_max":1029,"o":"m 435 -36 l 435 965 l 1029 965 l 1029 879 l 532 879 l 532 496 l 1000 496 l 1000 410 l 532 410 l 532 -36 l 435 -36 m 346 864 q 310 775 346 811 q 214 739 274 739 q 118 775 154 739 q 82 864 82 811 q 118 953 82 917 q 214 989 154 989 q 310 953 274 989 q 346 864 346 917 m 146 864 q 164 812 146 832 q 214 792 182 792 q 264 812 246 792 q 282 864 282 832 q 264 916 282 896 q 214 936 246 936 q 164 916 182 936 q 146 864 146 896 z "},"‰":{"ha":1710,"x_min":97,"x_max":1613,"o":"m 260 -35 l 858 965 l 946 965 l 349 -35 l 260 -35 m 894 476 q 1053 416 996 476 q 1110 246 1110 356 l 1110 183 q 1053 13 1110 74 q 894 -47 996 -47 q 736 13 793 -47 q 679 183 679 74 l 679 246 q 736 416 679 356 q 894 476 793 476 m 894 24 q 992 61 956 24 q 1029 186 1029 99 l 1029 243 q 992 368 1029 331 q 894 406 956 406 q 797 368 833 406 q 760 243 760 331 l 760 186 q 797 61 760 99 q 894 24 833 24 m 313 976 q 471 916 414 976 q 528 746 528 856 l 528 683 q 471 513 528 574 q 313 453 414 453 q 154 513 211 453 q 97 683 97 574 l 97 746 q 154 916 97 856 q 313 976 211 976 m 313 524 q 410 561 374 524 q 447 686 447 599 l 447 743 q 410 868 447 831 q 313 906 374 906 q 215 868 251 906 q 178 743 178 831 l 178 686 q 215 561 178 599 q 313 524 251 524 m 1397 476 q 1556 416 1499 476 q 1613 246 1613 356 l 1613 183 q 1556 13 1613 74 q 1397 -47 1499 -47 q 1239 13 1296 -47 q 1182 183 1182 74 l 1182 246 q 1239 416 1182 356 q 1397 476 1296 476 m 1397 24 q 1495 61 1458 24 q 1532 186 1532 99 l 1532 243 q 1495 368 1532 331 q 1397 406 1458 406 q 1299 368 1336 406 q 1263 243 1263 331 l 1263 186 q 1299 61 1263 99 q 1397 24 1336 24 z "},"◁":{"ha":1264,"x_min":203,"x_max":1061,"o":"m 1017 -37 l 1017 874 l 290 417 l 1017 -37 m 1061 -122 l 203 417 l 1061 958 l 1061 -122 z "},"◀":{"ha":1264,"x_min":203,"x_max":1061,"o":"m 1061 -122 l 203 417 l 1061 958 l 1061 -122 z "},"▷":{"ha":1264,"x_min":203,"x_max":1061,"o":"m 974 417 l 247 874 l 247 -37 l 974 417 m 1061 417 l 203 -122 l 203 958 l 1061 417 z "},"▶":{"ha":1264,"x_min":203,"x_max":1061,"o":"m 1061 417 l 203 -122 l 203 958 l 1061 417 z "},"♤":{"ha":1264,"x_min":178,"x_max":1086,"o":"m 1025 285 q 1007 366 1025 319 q 959 466 989 413 q 890 578 929 519 q 806 694 850 636 q 717 808 763 751 q 632 913 672 864 q 547 808 592 864 q 458 694 501 751 q 374 578 414 636 q 305 466 335 519 q 257 366 275 413 q 239 285 239 319 q 246 232 239 260 q 269 180 253 204 q 310 140 285 156 q 371 125 335 125 q 429 137 401 125 q 481 163 457 149 q 523 190 504 178 q 554 201 542 201 q 590 186 582 201 q 596 136 599 171 q 581 38 593 90 q 550 -76 569 -14 q 576 -103 544 -101 q 603 -105 589 -104 q 632 -106 617 -106 q 661 -105 647 -106 q 688 -103 675 -104 q 714 -76 719 -101 q 683 38 694 -14 q 668 136 671 90 q 674 186 665 171 q 710 201 682 201 q 741 190 722 201 q 783 163 760 178 q 835 137 807 149 q 893 125 863 125 q 954 140 929 125 q 995 180 979 156 q 1018 232 1011 204 q 1025 285 1025 260 m 1086 279 q 1072 195 1086 233 q 1033 129 1058 157 q 972 85 1008 101 q 893 69 936 69 q 814 87 853 69 q 722 135 775 104 q 730 74 724 108 q 746 5 736 40 q 768 -65 756 -31 q 794 -126 781 -100 q 775 -157 807 -153 q 708 -162 747 -160 q 632 -164 668 -164 q 555 -162 592 -164 q 489 -157 518 -160 q 469 -126 457 -153 q 495 -63 483 -97 q 517 6 507 -29 q 533 74 526 40 q 542 135 539 107 q 450 87 489 104 q 371 69 411 69 q 291 85 326 69 q 231 129 256 101 q 192 195 206 157 q 178 279 178 233 q 219 424 178 340 q 326 602 260 507 q 472 800 392 697 q 632 1001 553 903 q 792 800 711 903 q 938 602 872 697 q 1045 424 1004 507 q 1086 279 1086 340 z "},"♠":{"ha":1264,"x_min":178,"x_max":1086,"o":"m 1086 279 q 1072 195 1086 233 q 1033 129 1058 157 q 972 85 1008 101 q 893 69 936 69 q 814 87 853 69 q 722 135 775 104 q 730 74 724 108 q 746 5 736 40 q 768 -65 756 -31 q 794 -126 781 -100 q 775 -157 807 -153 q 708 -162 747 -160 q 632 -164 668 -164 q 555 -162 592 -164 q 489 -157 518 -160 q 469 -126 457 -153 q 495 -63 483 -97 q 517 6 507 -29 q 533 74 526 40 q 542 135 539 107 q 450 87 489 104 q 371 69 411 69 q 291 85 326 69 q 231 129 256 101 q 192 195 206 157 q 178 279 178 233 q 219 424 178 340 q 326 602 260 507 q 472 800 392 697 q 632 1001 553 903 q 792 800 711 903 q 938 602 872 697 q 1045 424 1004 507 q 1086 279 1086 340 z "},"♡":{"ha":1264,"x_min":146,"x_max":1118,"o":"m 1056 653 q 1042 741 1056 700 q 1003 813 1029 782 q 938 860 978 843 q 843 876 897 876 q 784 860 810 876 q 739 817 758 843 q 706 761 719 792 q 685 703 693 731 q 667 653 678 676 q 632 631 656 631 q 597 653 608 631 q 579 703 586 676 q 557 761 571 731 q 524 817 543 792 q 478 860 504 843 q 421 876 453 876 q 326 860 367 876 q 260 813 286 843 q 222 741 235 782 q 208 653 208 700 q 249 477 208 571 q 353 290 290 383 q 490 108 415 196 q 632 -49 565 21 q 774 108 699 21 q 911 290 849 196 q 1015 477 974 383 q 1056 653 1056 571 m 1118 663 q 1070 453 1118 563 q 950 239 1022 344 q 792 38 878 133 q 632 -131 707 -58 q 472 38 557 -58 q 314 239 386 133 q 194 453 242 344 q 146 663 146 563 q 165 771 146 721 q 218 857 185 821 q 296 914 251 893 q 392 935 340 935 q 541 876 481 935 q 632 685 601 818 q 723 876 663 818 q 872 935 783 935 q 968 914 924 935 q 1046 857 1013 893 q 1099 771 1079 821 q 1118 663 1118 721 z "},"♥":{"ha":1264,"x_min":146,"x_max":1118,"o":"m 1118 663 q 1070 453 1118 563 q 950 239 1022 344 q 792 38 878 133 q 632 -131 707 -58 q 472 38 557 -58 q 314 239 386 133 q 194 453 242 344 q 146 663 146 563 q 165 771 146 721 q 218 857 185 821 q 296 914 251 893 q 392 935 340 935 q 541 876 481 935 q 632 685 601 818 q 723 876 663 818 q 872 935 783 935 q 968 914 924 935 q 1046 857 1013 893 q 1099 771 1079 821 q 1118 663 1118 721 z "},"♧":{"ha":1264,"x_min":78,"x_max":1186,"o":"m 1124 294 q 1112 364 1124 329 q 1078 426 1100 399 q 1026 472 1057 454 q 956 489 994 489 q 890 478 919 489 q 834 453 860 467 q 787 428 808 439 q 746 417 765 417 q 692 438 711 417 q 674 493 674 460 q 697 547 674 525 q 748 597 719 569 q 799 663 776 624 q 822 767 822 701 q 806 839 822 807 q 764 892 790 871 q 703 925 738 914 q 632 936 668 936 q 562 925 596 936 q 501 892 528 914 q 458 839 475 871 q 442 767 442 807 q 465 663 442 701 q 516 597 488 624 q 567 547 544 569 q 590 493 590 525 q 572 438 590 460 q 518 417 553 417 q 477 428 499 417 q 430 453 456 439 q 374 478 404 467 q 308 489 344 489 q 238 472 269 489 q 185 426 207 454 q 152 364 164 399 q 140 294 140 329 q 152 221 140 257 q 186 157 164 185 q 241 113 208 129 q 315 96 274 96 q 406 116 368 96 q 471 161 443 136 q 521 206 499 186 q 567 226 543 226 q 586 218 582 226 q 590 194 590 210 q 583 138 590 165 q 569 76 576 110 q 554 3 561 43 q 547 -90 547 -37 q 565 -108 547 -107 q 632 -112 596 -112 q 699 -108 667 -112 q 717 -90 717 -107 q 710 3 717 -37 q 695 76 703 43 q 681 138 688 110 q 674 194 674 165 q 678 218 674 210 q 697 226 682 226 q 742 206 719 226 q 792 161 764 186 q 858 116 821 136 q 949 96 896 96 q 1023 113 990 96 q 1078 157 1056 129 q 1112 221 1100 185 q 1124 294 1124 257 m 1186 293 q 1169 196 1186 243 q 1122 113 1153 149 q 1047 56 1090 78 q 950 35 1004 35 q 881 46 914 35 q 818 74 847 57 q 766 112 789 92 q 728 149 743 132 q 747 92 738 125 q 765 22 757 60 q 777 -56 772 -15 q 782 -133 782 -96 q 774 -149 782 -143 q 757 -156 767 -154 q 729 -158 740 -157 q 707 -159 718 -158 q 678 -160 696 -160 q 632 -160 661 -160 q 571 -159 600 -160 q 507 -156 542 -158 q 490 -149 497 -154 q 482 -133 482 -143 q 486 -56 482 -96 q 498 22 490 -15 q 515 92 506 60 q 536 149 525 125 q 498 112 521 132 q 446 74 475 92 q 383 46 417 57 q 314 35 350 35 q 217 56 260 35 q 142 113 174 78 q 94 196 111 149 q 78 293 78 243 q 95 387 78 342 q 142 466 113 432 q 215 521 172 500 q 307 542 257 542 q 394 526 353 542 q 476 490 436 510 q 500 486 488 485 q 517 494 513 488 q 518 517 524 506 q 506 535 513 528 q 449 590 472 564 q 410 642 425 615 q 388 699 394 669 q 381 767 381 729 q 401 860 381 818 q 457 931 422 901 q 537 976 492 960 q 632 992 582 992 q 727 976 682 992 q 807 931 772 960 q 863 860 842 901 q 883 767 883 818 q 876 699 883 729 q 854 642 869 669 q 815 590 839 615 q 758 535 792 564 q 746 517 751 528 q 747 494 740 506 q 764 486 751 488 q 788 490 776 485 q 869 526 828 510 q 957 542 911 542 q 1049 521 1007 542 q 1122 466 1092 500 q 1169 387 1151 432 q 1186 293 1186 342 z "},"♣":{"ha":1264,"x_min":78,"x_max":1186,"o":"m 1186 293 q 1169 196 1186 243 q 1122 113 1153 149 q 1047 56 1090 78 q 950 35 1004 35 q 881 46 914 35 q 818 74 847 57 q 766 112 789 92 q 728 149 743 132 q 747 92 738 125 q 765 22 757 60 q 777 -56 772 -15 q 782 -133 782 -96 q 774 -149 782 -143 q 757 -156 767 -154 q 729 -158 740 -157 q 707 -159 718 -158 q 678 -160 696 -160 q 632 -160 661 -160 q 571 -159 600 -160 q 507 -156 542 -158 q 490 -149 497 -154 q 482 -133 482 -143 q 486 -56 482 -96 q 498 22 490 -15 q 515 92 506 60 q 536 149 525 125 q 498 112 521 132 q 446 74 475 92 q 383 46 417 57 q 314 35 350 35 q 217 56 260 35 q 142 113 174 78 q 94 196 111 149 q 78 293 78 243 q 95 387 78 342 q 142 466 113 432 q 215 521 172 500 q 307 542 257 542 q 394 526 353 542 q 476 490 436 510 q 500 486 488 485 q 517 494 513 488 q 518 517 524 506 q 506 535 513 528 q 449 590 472 564 q 410 642 425 615 q 388 699 394 669 q 381 767 381 729 q 401 860 381 818 q 457 931 422 901 q 537 976 492 960 q 632 992 582 992 q 727 976 682 992 q 807 931 772 960 q 863 860 842 901 q 883 767 883 818 q 876 699 883 729 q 854 642 869 669 q 815 590 839 615 q 758 535 792 564 q 746 517 751 528 q 747 494 740 506 q 764 486 751 488 q 788 490 776 485 q 869 526 828 510 q 957 542 911 542 q 1049 521 1007 542 q 1122 466 1092 500 q 1169 387 1151 432 q 1186 293 1186 342 z "},"⊙":{"ha":1264,"x_min":90,"x_max":1174,"o":"m 847 415 q 831 331 847 371 q 785 263 814 292 q 716 217 756 233 q 632 200 676 200 q 549 217 588 200 q 481 263 510 233 q 434 331 451 292 q 417 415 417 371 q 434 499 417 460 q 481 568 451 539 q 549 614 510 597 q 632 631 588 631 q 716 614 676 631 q 785 568 756 597 q 831 499 814 539 q 847 415 847 460 m 1119 415 q 1081 604 1119 515 q 976 759 1042 693 q 821 864 910 825 q 632 903 732 903 q 444 864 532 903 q 289 759 356 825 q 184 604 222 693 q 146 415 146 515 q 184 227 146 315 q 289 72 222 139 q 444 -33 356 6 q 632 -71 532 -71 q 821 -33 732 -71 q 976 72 910 6 q 1081 227 1042 139 q 1119 415 1119 315 m 1174 415 q 1131 204 1174 303 q 1015 32 1089 106 q 843 -84 942 -42 q 632 -126 744 -126 q 422 -84 521 -126 q 250 32 324 -42 q 133 204 176 106 q 90 415 90 303 q 133 626 90 528 q 250 799 176 725 q 422 915 324 872 q 632 957 521 957 q 843 915 744 957 q 1015 799 942 872 q 1131 626 1089 725 q 1174 415 1174 528 z "},"◈":{"ha":1264,"x_min":29,"x_max":1235,"o":"m 1004 413 l 632 40 l 258 413 l 632 785 l 1004 413 m 1165 414 l 632 946 l 97 413 l 631 -121 l 1165 414 m 1235 414 l 631 -189 l 29 413 l 632 1017 l 1235 414 z "},"▣":{"ha":1264,"x_min":115,"x_max":1149,"o":"m 951 93 l 313 93 l 313 732 l 951 732 l 951 93 m 1096 -50 l 1096 876 l 168 876 l 168 -50 l 1096 -50 m 1149 -103 l 115 -103 l 115 929 l 1149 929 l 1149 -103 z "},"◐":{"ha":1264,"x_min":90,"x_max":1174,"o":"m 1119 415 q 1081 604 1119 515 q 976 759 1042 693 q 821 864 910 825 q 632 903 732 903 l 632 -71 q 821 -33 732 -71 q 976 72 910 6 q 1081 227 1042 139 q 1119 415 1119 315 m 1174 415 q 1131 204 1174 303 q 1015 32 1089 106 q 843 -84 942 -42 q 632 -126 744 -126 q 422 -84 521 -126 q 250 32 324 -42 q 133 204 176 106 q 90 415 90 303 q 133 626 90 528 q 250 799 176 725 q 422 915 324 872 q 632 957 521 957 q 843 915 744 957 q 1015 799 942 872 q 1131 626 1089 725 q 1174 415 1174 528 z "},"◑":{"ha":1264,"x_min":90,"x_max":1174,"o":"m 632 903 q 443 864 532 903 q 288 759 354 825 q 183 604 222 693 q 144 415 144 515 q 183 227 144 315 q 288 72 222 139 q 443 -33 354 6 q 632 -71 532 -71 l 632 903 m 1174 415 q 1131 204 1174 303 q 1014 32 1088 106 q 842 -84 940 -42 q 632 -126 743 -126 q 421 -84 519 -126 q 249 32 322 -42 q 133 204 175 106 q 90 415 90 303 q 133 626 90 528 q 249 799 175 725 q 421 915 322 872 q 632 957 519 957 q 842 915 743 957 q 1014 799 940 872 q 1131 626 1088 725 q 1174 415 1174 528 z "},"▒":{"ha":1264,"x_min":115,"x_max":1149,"o":"m 276 26 q 267 1 276 11 q 243 -10 258 -10 q 217 1 228 -10 q 207 26 207 11 q 217 51 207 42 q 243 61 228 61 q 276 26 276 61 m 407 26 q 397 1 407 11 q 372 -10 386 -10 q 347 1 357 -10 q 336 26 336 11 q 347 51 336 42 q 372 61 357 61 q 397 51 386 61 q 407 26 407 42 m 276 157 q 267 131 276 142 q 243 121 258 121 q 217 131 228 121 q 207 157 207 142 q 217 181 207 171 q 243 190 228 190 q 267 181 258 190 q 276 157 276 171 m 407 157 q 397 131 407 142 q 372 121 386 121 q 347 131 357 121 q 336 157 336 142 q 347 181 336 171 q 372 190 357 190 q 397 181 386 190 q 407 157 407 171 m 538 26 q 527 1 538 11 q 501 -10 517 -10 q 476 1 486 -10 q 467 26 467 11 q 501 61 467 61 q 527 51 517 61 q 538 26 538 42 m 276 286 q 267 260 276 271 q 243 250 258 250 q 217 260 228 250 q 207 286 207 271 q 217 312 207 301 q 243 322 228 322 q 267 312 258 322 q 276 286 276 301 m 538 157 q 527 131 538 142 q 501 121 517 121 q 476 131 486 121 q 467 157 467 142 q 476 181 467 171 q 501 190 486 190 q 527 181 517 190 q 538 157 538 171 m 407 286 q 397 260 407 271 q 372 250 386 250 q 347 260 357 250 q 336 286 336 271 q 347 312 336 301 q 372 322 357 322 q 397 312 386 322 q 407 286 407 301 m 667 26 q 657 1 667 11 q 632 -10 647 -10 q 608 1 618 -10 q 597 26 597 11 q 608 51 597 42 q 632 61 618 61 q 667 26 667 61 m 276 417 q 267 392 276 403 q 243 382 258 382 q 217 392 228 382 q 207 417 207 403 q 217 442 207 432 q 243 451 228 451 q 276 417 276 451 m 667 157 q 657 131 667 142 q 632 121 647 121 q 608 131 618 121 q 597 157 597 142 q 608 181 597 171 q 632 190 618 190 q 657 181 647 190 q 667 157 667 171 m 538 286 q 527 260 538 271 q 501 250 517 250 q 476 260 486 250 q 467 286 467 271 q 476 312 467 301 q 501 322 486 322 q 527 312 517 322 q 538 286 538 301 m 407 417 q 397 392 407 403 q 372 382 386 382 q 347 392 357 382 q 336 417 336 403 q 347 442 336 432 q 372 451 357 451 q 397 442 386 451 q 407 417 407 432 m 799 26 q 788 1 799 11 q 763 -10 778 -10 q 737 1 747 -10 q 726 26 726 11 q 737 51 726 42 q 763 61 747 61 q 788 51 778 61 q 799 26 799 42 m 276 547 q 267 522 276 532 q 243 511 258 511 q 217 522 228 511 q 207 547 207 532 q 217 573 207 563 q 243 583 228 583 q 267 573 258 583 q 276 547 276 563 m 799 157 q 788 131 799 142 q 763 121 778 121 q 737 131 747 121 q 726 157 726 142 q 737 181 726 171 q 763 190 747 190 q 788 181 778 190 q 799 157 799 171 m 667 286 q 657 260 667 271 q 632 250 647 250 q 608 260 618 250 q 597 286 597 271 q 608 312 597 301 q 632 322 618 322 q 657 312 647 322 q 667 286 667 301 m 538 417 q 527 392 538 403 q 501 382 517 382 q 476 392 486 382 q 467 417 467 403 q 501 451 467 451 q 527 442 517 451 q 538 417 538 432 m 407 547 q 397 522 407 532 q 372 511 386 511 q 347 522 357 511 q 336 547 336 532 q 347 573 336 563 q 372 583 357 583 q 397 573 386 583 q 407 547 407 563 m 928 26 q 918 1 928 11 q 893 -10 908 -10 q 868 1 878 -10 q 858 26 858 11 q 893 61 858 61 q 928 26 928 61 m 276 676 q 267 653 276 663 q 243 643 258 643 q 217 653 228 643 q 207 676 207 663 q 217 702 207 692 q 243 713 228 713 q 267 702 258 713 q 276 676 276 692 m 1058 26 q 1048 1 1058 11 q 1022 -10 1038 -10 q 997 1 1007 -10 q 988 26 988 11 q 1022 61 988 61 q 1048 51 1038 61 q 1058 26 1058 42 m 928 157 q 918 131 928 142 q 893 121 908 121 q 868 131 878 121 q 858 157 858 142 q 868 181 858 171 q 893 190 878 190 q 918 181 908 190 q 928 157 928 171 m 799 286 q 788 260 799 271 q 763 250 778 250 q 737 260 747 250 q 726 286 726 271 q 737 312 726 301 q 763 322 747 322 q 788 312 778 322 q 799 286 799 301 m 667 417 q 657 392 667 403 q 632 382 647 382 q 608 392 618 382 q 597 417 597 403 q 608 442 597 432 q 632 451 618 451 q 667 417 667 451 m 538 547 q 527 522 538 532 q 501 511 517 511 q 476 522 486 511 q 467 547 467 532 q 476 573 467 563 q 501 583 486 583 q 527 573 517 583 q 538 547 538 563 m 407 676 q 397 653 407 663 q 372 643 386 643 q 347 653 357 643 q 336 676 336 663 q 347 702 336 692 q 372 713 357 713 q 397 702 386 713 q 407 676 407 692 m 276 807 q 243 772 276 772 q 217 782 228 772 q 207 807 207 792 q 217 833 207 822 q 243 843 228 843 q 267 833 258 843 q 276 807 276 822 m 1058 157 q 1048 131 1058 142 q 1022 121 1038 121 q 997 131 1007 121 q 988 157 988 142 q 997 181 988 171 q 1022 190 1007 190 q 1048 181 1038 190 q 1058 157 1058 171 m 407 807 q 397 782 407 792 q 372 772 386 772 q 347 782 357 772 q 336 807 336 792 q 347 833 336 822 q 372 843 357 843 q 397 833 386 843 q 407 807 407 822 m 928 286 q 918 260 928 271 q 893 250 908 250 q 868 260 878 250 q 858 286 858 271 q 868 312 858 301 q 893 322 878 322 q 918 312 908 322 q 928 286 928 301 m 799 417 q 788 392 799 403 q 763 382 778 382 q 737 392 747 382 q 726 417 726 403 q 737 442 726 432 q 763 451 747 451 q 788 442 778 451 q 799 417 799 432 m 667 547 q 657 522 667 532 q 632 511 647 511 q 608 522 618 511 q 597 547 597 532 q 608 573 597 563 q 632 583 618 583 q 657 573 647 583 q 667 547 667 563 m 538 676 q 527 653 538 663 q 501 643 517 643 q 476 653 486 643 q 467 676 467 663 q 476 702 467 692 q 501 713 486 713 q 527 702 517 713 q 538 676 538 692 m 1058 286 q 1048 260 1058 271 q 1022 250 1038 250 q 997 260 1007 250 q 988 286 988 271 q 997 312 988 301 q 1022 322 1007 322 q 1048 312 1038 322 q 1058 286 1058 301 m 538 807 q 527 782 538 792 q 501 772 517 772 q 467 807 467 772 q 476 833 467 822 q 501 843 486 843 q 527 833 517 843 q 538 807 538 822 m 928 417 q 918 392 928 403 q 893 382 908 382 q 868 392 878 382 q 858 417 858 403 q 893 451 858 451 q 928 417 928 451 m 799 547 q 788 522 799 532 q 763 511 778 511 q 737 522 747 511 q 726 547 726 532 q 737 573 726 563 q 763 583 747 583 q 788 573 778 583 q 799 547 799 563 m 667 676 q 657 653 667 663 q 632 643 647 643 q 608 653 618 643 q 597 676 597 663 q 608 702 597 692 q 632 713 618 713 q 657 702 647 713 q 667 676 667 692 m 1058 417 q 1048 392 1058 403 q 1022 382 1038 382 q 997 392 1007 382 q 988 417 988 403 q 1022 451 988 451 q 1048 442 1038 451 q 1058 417 1058 432 m 667 807 q 632 772 667 772 q 608 782 618 772 q 597 807 597 792 q 608 833 597 822 q 632 843 618 843 q 657 833 647 843 q 667 807 667 822 m 928 547 q 918 522 928 532 q 893 511 908 511 q 868 522 878 511 q 858 547 858 532 q 868 573 858 563 q 893 583 878 583 q 918 573 908 583 q 928 547 928 563 m 799 676 q 788 653 799 663 q 763 643 778 643 q 737 653 747 643 q 726 676 726 663 q 737 702 726 692 q 763 713 747 713 q 788 702 778 713 q 799 676 799 692 m 1058 547 q 1048 522 1058 532 q 1022 511 1038 511 q 997 522 1007 511 q 988 547 988 532 q 997 573 988 563 q 1022 583 1007 583 q 1048 573 1038 583 q 1058 547 1058 563 m 799 807 q 788 782 799 792 q 763 772 778 772 q 737 782 747 772 q 726 807 726 792 q 737 833 726 822 q 763 843 747 843 q 788 833 778 843 q 799 807 799 822 m 928 676 q 918 653 928 663 q 893 643 908 643 q 868 653 878 643 q 858 676 858 663 q 868 702 858 692 q 893 713 878 713 q 918 702 908 713 q 928 676 928 692 m 1058 676 q 1048 653 1058 663 q 1022 643 1038 643 q 997 653 1007 643 q 988 676 988 663 q 997 702 988 692 q 1022 713 1007 713 q 1048 702 1038 713 q 1058 676 1058 692 m 928 807 q 893 772 928 772 q 858 807 858 772 q 868 833 858 822 q 893 843 878 843 q 918 833 908 843 q 928 807 928 822 m 1058 807 q 1048 782 1058 792 q 1022 772 1038 772 q 988 807 988 772 q 997 833 988 822 q 1022 843 1007 843 q 1048 833 1038 843 q 1058 807 1058 822 m 1103 -57 l 1103 883 l 161 883 l 161 -57 l 1103 -57 m 1149 -103 l 115 -103 l 115 929 l 1149 929 l 1149 -103 z "},"⭐️":{"ha":1264,"x_min":115,"x_max":1149,"o":"m 1103 -57 l 1103 36 l 161 36 l 161 -57 l 1103 -57 m 1103 81 l 1103 175 l 161 175 l 161 81 l 1103 81 m 1103 219 l 1103 319 l 161 319 l 161 219 l 1103 219 m 1103 364 l 1103 463 l 161 463 l 161 364 l 1103 364 m 1103 507 l 1103 599 l 161 599 l 161 507 l 1103 507 m 1103 643 l 1103 744 l 161 744 l 161 643 l 1103 643 m 1103 789 l 1103 883 l 161 883 l 161 789 l 1103 789 m 1149 -103 l 115 -103 l 115 929 l 1149 929 l 1149 -103 z "},"▥":{"ha":1264,"x_min":115,"x_max":1149,"o":"m 256 -57 l 256 883 l 161 883 l 161 -57 l 256 -57 m 401 -57 l 401 883 l 300 883 l 300 -57 l 401 -57 m 538 -57 l 538 883 l 446 883 l 446 -57 l 538 -57 m 681 -57 l 681 883 l 582 883 l 582 -57 l 681 -57 m 825 -57 l 825 883 l 725 883 l 725 -57 l 825 -57 m 964 -57 l 964 883 l 869 883 l 869 -57 l 964 -57 m 1103 -57 l 1103 883 l 1008 883 l 1008 -57 l 1103 -57 m 1149 -103 l 115 -103 l 115 929 l 1149 929 l 1149 -103 z "},"▨":{"ha":1264,"x_min":115,"x_max":1149,"o":"m 1068 883 l 906 883 l 161 140 l 161 -24 l 1068 883 m 839 883 l 675 883 l 161 371 l 161 207 l 839 883 m 608 883 l 443 883 l 161 603 l 161 438 l 608 883 m 376 883 l 161 883 l 161 669 l 376 883 m 1103 -57 l 1103 160 l 886 -57 l 1103 -57 m 1103 226 l 1103 390 l 656 -57 l 819 -57 l 1103 226 m 1103 457 l 1103 621 l 425 -57 l 589 -57 l 1103 457 m 1103 688 l 1103 851 l 194 -57 l 358 -57 l 1103 688 m 1149 -103 l 115 -103 l 115 929 l 1149 929 l 1149 -103 z "},"▧":{"ha":1264,"x_min":115,"x_max":1149,"o":"m 378 -57 l 161 160 l 161 -57 l 378 -57 m 608 -57 l 161 390 l 161 226 l 444 -57 l 608 -57 m 839 -57 l 161 621 l 161 457 l 675 -57 l 839 -57 m 1069 -57 l 161 851 l 161 688 l 906 -57 l 1069 -57 m 1103 -24 l 1103 140 l 358 883 l 196 883 l 1103 -24 m 1103 207 l 1103 371 l 589 883 l 425 883 l 1103 207 m 1103 438 l 1103 603 l 821 883 l 656 883 l 1103 438 m 1103 669 l 1103 883 l 888 883 l 1103 669 m 1149 -103 l 115 -103 l 115 929 l 1149 929 l 1149 -103 z "},"▦":{"ha":1264,"x_min":115,"x_max":1149,"o":"m 260 -57 l 260 42 l 161 42 l 161 -57 l 260 -57 m 260 83 l 260 182 l 161 182 l 161 83 l 260 83 m 400 -57 l 400 42 l 301 42 l 301 -57 l 400 -57 m 400 83 l 400 182 l 301 182 l 301 83 l 400 83 m 260 224 l 260 322 l 161 322 l 161 224 l 260 224 m 540 -57 l 540 42 l 442 42 l 442 -57 l 540 -57 m 540 83 l 540 182 l 442 182 l 442 83 l 540 83 m 400 224 l 400 322 l 301 322 l 301 224 l 400 224 m 260 364 l 260 463 l 161 463 l 161 364 l 260 364 m 681 -57 l 681 42 l 582 42 l 582 -57 l 681 -57 m 681 83 l 681 182 l 582 182 l 582 83 l 681 83 m 540 224 l 540 322 l 442 322 l 442 224 l 540 224 m 400 364 l 400 463 l 301 463 l 301 364 l 400 364 m 260 504 l 260 603 l 161 603 l 161 504 l 260 504 m 821 -57 l 821 42 l 722 42 l 722 -57 l 821 -57 m 821 83 l 821 182 l 722 182 l 722 83 l 821 83 m 681 224 l 681 322 l 582 322 l 582 224 l 681 224 m 540 364 l 540 463 l 442 463 l 442 364 l 540 364 m 400 504 l 400 603 l 301 603 l 301 504 l 400 504 m 260 644 l 260 743 l 161 743 l 161 644 l 260 644 m 961 -57 l 961 42 l 863 42 l 863 -57 l 961 -57 m 961 83 l 961 182 l 863 182 l 863 83 l 961 83 m 821 224 l 821 322 l 722 322 l 722 224 l 821 224 m 681 364 l 681 463 l 582 463 l 582 364 l 681 364 m 540 504 l 540 603 l 442 603 l 442 504 l 540 504 m 400 644 l 400 743 l 301 743 l 301 644 l 400 644 m 260 785 l 260 883 l 161 883 l 161 785 l 260 785 m 1103 -57 l 1103 42 l 1004 42 l 1004 -57 l 1103 -57 m 961 224 l 961 322 l 863 322 l 863 224 l 961 224 m 821 364 l 821 463 l 722 463 l 722 364 l 821 364 m 681 504 l 681 603 l 582 603 l 582 504 l 681 504 m 540 644 l 540 743 l 442 743 l 442 644 l 540 644 m 400 785 l 400 883 l 301 883 l 301 785 l 400 785 m 1103 83 l 1103 182 l 1004 182 l 1004 83 l 1103 83 m 961 364 l 961 463 l 863 463 l 863 364 l 961 364 m 821 504 l 821 603 l 722 603 l 722 504 l 821 504 m 681 644 l 681 743 l 582 743 l 582 644 l 681 644 m 540 785 l 540 883 l 442 883 l 442 785 l 540 785 m 1103 224 l 1103 322 l 1004 322 l 1004 224 l 1103 224 m 961 504 l 961 603 l 863 603 l 863 504 l 961 504 m 821 644 l 821 743 l 722 743 l 722 644 l 821 644 m 681 785 l 681 883 l 582 883 l 582 785 l 681 785 m 1103 364 l 1103 463 l 1004 463 l 1004 364 l 1103 364 m 961 644 l 961 743 l 863 743 l 863 644 l 961 644 m 821 785 l 821 883 l 722 883 l 722 785 l 821 785 m 1103 504 l 1103 603 l 1004 603 l 1004 504 l 1103 504 m 961 785 l 961 883 l 863 883 l 863 785 l 961 785 m 1103 644 l 1103 743 l 1004 743 l 1004 644 l 1103 644 m 1103 785 l 1103 883 l 1004 883 l 1004 785 l 1103 785 m 1149 -103 l 115 -103 l 115 929 l 1149 929 l 1149 -103 z "},"▩":{"ha":1264,"x_min":115,"x_max":1149,"o":"m 378 -57 l 283 38 l 190 -57 l 378 -57 m 250 71 l 161 160 l 161 -18 l 250 71 m 492 60 l 399 153 l 317 71 l 411 -24 l 492 60 m 365 186 l 276 275 l 194 193 l 283 104 l 365 186 m 608 -57 l 526 25 l 443 -57 l 608 -57 m 243 308 l 161 390 l 161 228 l 243 308 m 724 58 l 642 140 l 560 58 l 642 -24 l 724 58 m 608 174 l 515 268 l 432 186 l 525 92 l 608 174 m 481 301 l 392 390 l 310 308 l 399 219 l 481 301 m 358 424 l 276 506 l 194 424 l 276 342 l 358 424 m 243 539 l 161 621 l 161 457 l 243 539 m 839 -57 l 757 25 l 675 -57 l 839 -57 m 954 58 l 872 140 l 790 58 l 872 -24 l 954 58 m 839 174 l 757 256 l 675 174 l 757 92 l 839 174 m 596 415 l 507 506 l 425 424 l 515 335 l 596 415 m 474 539 l 392 621 l 310 539 l 392 457 l 474 539 m 358 654 l 276 736 l 194 654 l 276 572 l 358 654 m 724 289 l 631 383 l 549 300 l 640 208 l 724 289 m 243 769 l 161 851 l 161 688 l 243 769 m 1069 -57 l 988 25 l 906 -57 l 1069 -57 m 1103 -24 l 1103 140 l 1021 58 l 1103 -24 m 358 883 l 196 883 l 276 803 l 358 883 m 589 653 l 506 735 l 425 654 l 508 571 l 589 653 m 1069 174 l 988 256 l 906 174 l 988 92 l 1069 174 m 954 289 l 871 371 l 790 290 l 872 207 l 954 289 m 711 531 l 622 619 l 542 538 l 631 449 l 711 531 m 474 768 l 390 851 l 310 769 l 392 688 l 474 768 m 839 404 l 744 497 l 664 415 l 756 324 l 839 404 m 1103 207 l 1103 371 l 1021 289 l 1103 207 m 589 883 l 425 883 l 507 801 l 589 883 m 1069 404 l 986 486 l 904 404 l 988 322 l 1069 404 m 953 521 l 861 613 l 779 531 l 871 438 l 953 521 m 828 646 l 738 733 l 656 653 l 746 564 l 828 646 m 706 768 l 622 850 l 540 768 l 622 686 l 706 768 m 1103 436 l 1103 603 l 1019 519 l 1103 436 m 822 883 l 656 883 l 739 800 l 822 883 m 943 761 l 854 850 l 771 768 l 861 678 l 943 761 m 1069 636 l 978 729 l 893 646 l 986 553 l 1069 636 m 1067 883 l 888 883 l 976 794 l 1067 883 m 1103 669 l 1103 854 l 1010 761 l 1103 669 m 1149 -103 l 115 -103 l 115 929 l 1149 929 l 1149 -103 z "},"♨":{"ha":1264,"x_min":78,"x_max":1185,"o":"m 1185 140 q 1140 23 1185 76 q 1021 -69 1096 -31 q 847 -128 946 -107 q 639 -150 749 -150 q 428 -131 529 -150 q 249 -79 326 -112 q 124 1 171 -46 q 78 103 78 47 q 113 201 78 158 q 194 273 147 243 q 289 321 240 303 q 367 347 338 339 q 385 341 382 353 q 369 322 388 329 q 333 305 364 319 q 269 265 303 290 q 207 206 235 240 q 179 131 179 172 q 220 68 179 94 q 326 24 261 42 q 474 -2 392 7 q 640 -11 557 -11 q 806 1 724 -11 q 953 35 888 13 q 1059 88 1018 57 q 1100 160 1100 119 q 1082 214 1100 189 q 1039 259 1064 239 q 986 293 1014 279 q 940 313 958 307 q 928 328 924 318 q 946 335 932 338 q 1006 319 967 332 q 1085 281 1046 306 q 1155 222 1125 257 q 1185 140 1185 186 m 532 363 q 513 260 536 321 q 456 133 490 200 q 431 80 438 100 q 422 47 424 60 q 413 35 421 36 q 399 47 406 35 q 386 101 390 65 q 397 182 382 138 q 413 236 404 201 q 425 313 421 271 q 426 398 429 354 q 407 479 422 442 q 382 572 388 526 q 382 662 376 618 q 402 747 388 706 q 438 826 417 788 q 457 868 449 846 q 469 910 465 890 q 479 920 472 921 q 489 911 486 919 q 497 838 496 890 q 475 703 499 786 q 472 635 467 672 q 490 554 478 597 q 514 463 501 511 q 532 363 526 414 m 729 397 q 726 329 735 367 q 701 255 717 292 q 669 186 686 218 q 643 135 653 154 q 613 72 622 96 q 601 33 603 47 q 591 22 600 21 q 578 32 582 22 q 567 99 568 54 q 589 203 565 144 q 614 300 610 251 q 614 390 618 349 q 601 463 610 432 q 588 504 593 493 q 556 618 560 568 q 560 708 551 668 q 586 781 569 749 q 617 843 603 814 q 642 917 636 883 q 649 972 649 950 q 656 987 649 988 q 669 975 664 986 q 683 935 676 960 q 691 881 689 911 q 690 816 693 850 q 674 747 686 782 q 658 656 656 697 q 673 576 661 615 q 701 494 685 536 q 729 397 718 451 m 913 414 q 906 321 917 361 q 878 248 894 281 q 842 189 861 215 q 813 140 824 163 q 785 78 794 106 q 774 39 776 51 q 765 29 771 32 q 754 39 758 26 q 748 65 750 49 q 746 101 746 82 q 749 140 746 121 q 760 176 753 160 q 785 246 772 207 q 806 325 799 285 q 812 406 813 365 q 796 483 811 447 q 764 580 772 536 q 758 662 756 624 q 770 735 760 700 q 796 807 781 771 q 810 858 806 831 q 814 903 814 885 q 820 918 814 915 q 833 906 826 921 q 853 835 844 883 q 850 707 861 786 q 850 626 843 658 q 869 565 857 594 q 894 500 881 535 q 913 414 907 465 z "},"☏":{"ha":1264,"x_min":32,"x_max":1232,"o":"m 836 289 q 820 368 836 331 q 776 433 804 406 q 711 477 749 461 q 632 493 674 493 q 553 477 590 493 q 488 433 515 461 q 444 368 460 406 q 428 289 428 331 q 444 210 428 247 q 488 145 460 172 q 553 102 515 118 q 632 86 590 86 q 711 102 674 86 q 776 145 749 118 q 820 210 804 172 q 836 289 836 247 m 868 289 q 849 197 868 240 q 799 122 831 154 q 724 72 767 90 q 632 53 681 53 q 540 72 583 53 q 465 122 497 90 q 415 197 433 154 q 396 289 396 240 q 415 381 396 338 q 465 456 433 424 q 540 506 497 488 q 632 525 583 525 q 724 506 681 525 q 799 456 767 488 q 849 381 831 424 q 868 289 868 338 m 1094 0 q 1101 11 1099 0 q 1103 38 1104 22 q 1097 67 1101 53 q 1079 89 1092 82 q 1076 132 1079 106 q 1067 186 1074 158 q 1047 240 1060 214 q 1017 283 1035 265 q 961 336 985 314 q 921 378 938 358 q 892 417 904 397 q 869 463 879 438 q 836 594 843 533 q 833 700 829 656 l 768 700 l 768 583 l 496 583 l 496 700 l 431 700 q 428 594 435 656 q 394 463 421 533 q 372 417 385 438 q 343 378 360 397 q 303 336 326 358 q 247 283 279 314 q 216 240 228 265 q 197 186 204 214 q 188 132 190 158 q 185 89 185 106 q 167 67 172 82 q 161 38 163 53 q 163 11 160 22 q 169 0 165 0 l 1094 0 m 1183 469 q 1197 495 1192 471 q 1196 554 1201 519 q 1171 628 1190 589 q 1113 700 1151 668 q 1024 746 1082 725 q 897 782 965 767 q 757 806 828 797 q 632 814 686 814 q 488 806 560 814 q 351 782 415 797 q 234 746 286 767 q 151 700 182 725 q 92 628 111 668 q 68 554 74 589 q 67 495 63 519 q 81 469 72 471 q 139 472 107 467 q 201 485 171 476 q 259 504 232 493 q 306 526 286 515 q 310 547 314 532 q 301 583 307 563 q 292 625 296 603 q 297 667 289 647 q 348 713 308 696 q 481 729 388 729 q 511 727 496 729 q 544 722 526 725 q 588 714 568 717 q 632 711 608 711 q 676 714 656 711 q 719 722 696 717 q 753 727 738 725 q 783 729 768 729 q 861 725 829 729 q 914 713 893 721 q 947 692 935 704 q 967 667 960 681 q 972 625 975 647 q 963 583 968 603 q 953 547 957 563 q 958 526 950 532 q 1004 503 976 515 q 1063 483 1032 492 q 1126 471 1094 475 q 1183 469 1157 467 m 740 610 l 740 700 q 692 690 721 694 q 632 686 663 686 q 572 690 601 686 q 524 700 543 694 l 524 610 l 740 610 m 1219 456 q 1192 438 1211 442 q 1147 437 1172 435 q 1092 446 1121 439 q 1038 460 1064 453 q 960 491 994 472 q 919 535 925 510 q 920 560 917 544 q 929 590 924 575 q 939 620 935 606 q 942 644 943 635 q 914 682 936 672 q 865 696 892 692 q 861 624 861 664 q 881 519 861 585 q 903 458 890 483 q 933 411 917 432 q 967 374 949 390 q 1008 339 986 357 q 1063 277 1043 310 q 1092 213 1082 244 q 1103 153 1101 181 q 1106 104 1106 125 q 1123 88 1117 100 q 1133 58 1129 75 q 1136 24 1136 42 q 1135 -7 1136 7 q 1121 -24 1133 -19 q 1088 -29 1108 -29 l 176 -29 q 143 -24 156 -29 q 129 -7 131 -19 q 128 24 128 7 q 131 58 128 42 q 141 88 135 75 q 158 104 147 100 q 160 153 158 125 q 172 213 163 181 q 201 277 182 244 q 256 339 221 310 q 297 374 278 357 q 331 411 315 390 q 360 458 347 432 q 383 519 374 483 q 402 624 401 585 q 399 696 403 664 q 350 682 372 692 q 322 644 328 672 q 324 620 319 635 q 333 590 328 606 q 343 560 339 575 q 344 535 347 544 q 304 491 339 510 q 226 460 269 472 q 172 446 200 453 q 117 437 143 439 q 72 438 92 435 q 44 456 53 442 q 34 496 36 469 q 36 553 32 522 q 52 616 40 585 q 83 672 64 647 q 176 747 117 715 q 308 800 235 779 q 465 831 382 821 q 632 840 549 840 q 799 831 715 840 q 956 800 882 821 q 1088 747 1029 779 q 1181 672 1147 715 q 1212 616 1200 647 q 1228 553 1224 585 q 1230 496 1232 522 q 1219 456 1228 469 z "},"☎":{"ha":1264,"x_min":32,"x_max":1232,"o":"m 836 289 q 820 368 836 331 q 776 433 804 406 q 711 477 749 461 q 632 493 674 493 q 553 477 590 493 q 488 433 515 461 q 444 368 460 406 q 428 289 428 331 q 444 210 428 247 q 488 145 460 172 q 553 102 515 118 q 632 86 590 86 q 711 102 674 86 q 776 145 749 118 q 820 210 804 172 q 836 289 836 247 m 740 610 l 740 700 q 692 690 721 694 q 632 686 663 686 q 572 690 601 686 q 524 700 543 694 l 524 610 l 740 610 m 1219 456 q 1192 438 1211 442 q 1147 437 1172 435 q 1092 446 1121 439 q 1038 460 1064 453 q 960 491 994 472 q 919 535 925 510 q 920 560 917 544 q 929 590 924 575 q 939 620 935 606 q 942 644 943 635 q 914 682 936 672 q 865 696 892 692 q 861 624 861 664 q 881 519 861 585 q 903 458 890 483 q 933 411 917 432 q 967 374 949 390 q 1008 339 986 357 q 1063 277 1043 310 q 1092 213 1082 244 q 1103 153 1101 181 q 1106 104 1106 125 q 1123 88 1117 100 q 1133 58 1129 75 q 1136 24 1136 42 q 1135 -7 1136 7 q 1121 -24 1133 -19 q 1088 -29 1108 -29 l 176 -29 q 143 -24 156 -29 q 129 -7 131 -19 q 128 24 128 7 q 131 58 128 42 q 141 88 135 75 q 158 104 147 100 q 160 153 158 125 q 172 213 163 181 q 201 277 182 244 q 256 339 221 310 q 297 374 278 357 q 331 411 315 390 q 360 458 347 432 q 383 519 374 483 q 402 624 401 585 q 399 696 403 664 q 350 682 372 692 q 322 644 328 672 q 324 620 319 635 q 333 590 328 606 q 343 560 339 575 q 344 535 347 544 q 304 491 339 510 q 226 460 269 472 q 172 446 200 453 q 117 437 143 439 q 72 438 92 435 q 44 456 53 442 q 34 496 36 469 q 36 553 32 522 q 52 616 40 585 q 83 672 64 647 q 176 747 117 715 q 308 800 235 779 q 465 831 382 821 q 632 840 549 840 q 799 831 715 840 q 956 800 882 821 q 1088 747 1029 779 q 1181 672 1147 715 q 1212 616 1200 647 q 1228 553 1224 585 q 1230 496 1232 522 q 1219 456 1228 469 z "},"☜":{"ha":1264,"x_min":86,"x_max":1176,"o":"m 1176 256 l 1071 256 l 1071 285 l 1031 285 q 941 243 994 263 q 797 208 888 224 q 735 203 772 204 q 660 201 699 201 q 587 203 622 201 q 529 208 551 206 q 481 222 504 213 q 453 254 458 231 q 456 281 450 271 q 474 299 463 292 q 438 311 454 299 q 421 344 422 324 q 424 369 419 360 q 436 386 429 379 q 401 399 417 389 q 386 432 386 408 q 413 475 386 463 q 500 488 439 488 l 496 499 q 436 501 463 500 q 383 502 410 501 q 326 504 356 503 q 258 508 297 506 q 199 511 229 510 q 143 518 168 513 q 102 535 118 524 q 86 568 86 547 q 99 596 86 586 q 133 610 111 606 q 185 617 156 615 q 250 622 215 619 q 313 625 269 624 q 411 627 356 626 q 528 628 467 628 q 649 629 590 629 q 738 628 693 629 q 827 621 783 628 q 912 597 871 614 q 989 547 953 581 q 1033 540 1011 542 q 1072 539 1056 538 l 1072 583 l 1176 583 l 1176 256 m 1072 301 l 1072 515 q 1042 515 1061 514 q 1011 519 1024 517 l 1014 508 q 1014 494 1017 494 q 1004 501 1011 493 q 973 533 993 515 q 924 569 953 550 q 867 592 903 583 q 792 604 831 600 q 719 609 754 608 q 667 607 685 610 q 621 595 647 604 q 575 574 594 586 q 558 557 564 567 q 544 536 551 547 q 518 503 533 513 q 522 490 513 496 q 561 496 532 485 q 586 510 575 501 q 606 527 597 519 q 619 540 614 535 q 628 540 625 544 q 622 519 635 532 q 651 513 633 515 q 679 514 668 511 q 721 531 707 521 q 738 536 735 542 q 735 520 740 529 q 718 504 729 511 q 755 469 726 492 q 828 432 783 447 q 879 419 856 422 q 919 413 903 415 q 946 409 936 411 q 956 401 956 407 q 943 396 956 397 q 912 396 931 394 q 872 401 893 397 q 835 408 851 404 q 783 431 806 418 q 742 456 760 443 q 713 481 725 469 q 696 501 701 493 q 680 497 689 497 q 664 496 671 496 q 628 500 644 497 q 606 506 613 503 l 585 488 q 646 478 621 488 q 675 453 671 469 q 676 419 681 433 q 660 396 671 404 q 703 357 699 386 q 699 328 706 338 q 682 313 693 319 q 726 274 722 304 q 720 241 729 253 q 708 228 711 229 q 757 228 728 224 q 853 241 811 232 q 929 261 896 250 q 989 286 963 272 q 1038 314 1015 300 q 1045 318 1042 318 q 1047 313 1049 318 l 1044 301 l 1072 301 m 596 607 q 437 606 528 607 q 251 601 346 604 q 147 594 185 599 q 110 568 110 589 q 142 541 110 546 q 251 531 174 536 q 396 524 338 526 q 511 519 454 521 l 540 564 q 564 590 551 579 q 596 607 576 600 m 1154 278 l 1154 560 l 1093 560 l 1093 278 l 1154 278 m 681 343 q 672 372 682 364 q 642 382 663 379 q 610 383 632 383 q 562 383 588 383 q 513 383 536 383 q 476 382 489 382 q 453 371 463 381 q 444 347 444 361 q 479 319 444 325 q 512 317 486 318 q 565 315 538 315 q 614 315 592 315 q 638 315 636 315 q 665 322 651 315 q 681 343 679 328 m 704 269 q 688 290 703 285 q 661 294 674 294 q 579 296 624 296 q 504 293 535 296 q 483 281 489 292 q 479 260 476 271 q 487 244 481 251 q 504 235 493 238 q 584 227 540 228 q 663 229 628 226 q 704 269 708 232 m 649 439 q 642 454 649 447 q 621 463 636 461 q 524 467 569 465 q 435 463 479 468 q 414 451 421 460 q 408 432 407 443 q 415 414 408 422 q 436 406 422 406 q 483 404 457 404 q 535 404 510 404 q 584 406 561 404 q 622 408 607 407 q 641 417 633 411 q 649 439 649 424 z "},"☞":{"ha":1264,"x_min":86,"x_max":1176,"o":"m 1176 568 q 1160 535 1176 547 q 1119 518 1144 524 q 1064 511 1094 513 q 1004 508 1033 510 q 936 504 965 506 q 880 502 907 503 q 826 501 853 501 q 767 499 800 500 l 763 488 q 850 475 824 488 q 876 432 876 463 q 861 399 876 408 q 826 386 846 389 q 838 369 833 379 q 842 344 843 360 q 824 311 840 324 q 789 299 808 299 q 806 281 800 292 q 810 254 813 271 q 781 222 804 231 q 733 208 758 213 q 676 203 711 206 q 602 201 640 201 q 527 203 564 201 q 465 208 490 204 q 322 243 375 224 q 232 285 268 263 l 192 285 l 192 256 l 86 256 l 86 583 l 190 583 l 190 539 q 229 540 207 538 q 274 547 251 542 q 351 597 310 581 q 435 621 392 614 q 524 628 479 628 q 614 629 569 629 q 734 628 672 629 q 851 627 796 628 q 950 625 907 626 q 1013 622 993 624 q 1077 617 1047 619 q 1129 610 1107 615 q 1164 596 1151 606 q 1176 568 1176 586 m 744 503 q 718 536 729 513 q 705 557 711 547 q 688 574 699 567 q 642 595 668 586 q 596 607 615 604 q 542 609 576 610 q 470 604 508 608 q 396 592 432 600 q 339 569 360 583 q 290 533 310 550 q 258 501 269 515 q 249 494 251 493 q 249 508 246 494 l 251 519 q 220 515 239 517 q 190 515 201 514 l 190 301 l 218 301 l 215 313 q 217 318 213 319 q 225 314 221 317 q 333 262 268 286 q 506 228 397 238 q 553 228 533 224 q 542 240 551 228 q 536 274 532 251 q 581 313 540 304 q 563 328 569 319 q 560 357 557 338 q 603 396 567 386 q 587 419 592 404 q 588 453 582 433 q 617 478 593 469 q 678 488 642 488 l 657 506 q 634 500 650 503 q 599 496 618 497 q 583 497 592 496 q 567 501 574 497 q 549 481 561 493 q 520 456 538 469 q 480 431 503 443 q 428 408 457 418 q 390 401 411 404 q 351 396 369 397 q 319 396 332 394 q 307 401 307 397 q 317 409 307 407 q 343 413 326 411 q 383 419 360 415 q 435 432 407 422 q 508 469 479 447 q 544 504 536 492 q 528 520 533 511 q 525 536 522 529 q 542 531 528 542 q 583 514 556 521 q 612 513 594 511 q 640 519 629 515 q 633 531 635 525 q 635 540 631 536 q 643 540 638 544 q 657 527 649 535 q 676 510 665 519 q 701 496 688 501 q 740 490 731 485 q 744 503 750 496 m 1153 568 q 1115 594 1153 589 q 1011 601 1078 599 q 826 606 917 604 q 667 607 735 607 q 699 590 686 600 q 722 564 711 579 l 751 519 q 867 524 808 521 q 1011 531 925 526 q 1121 541 1089 536 q 1153 568 1153 546 m 169 278 l 169 560 l 108 560 l 108 278 l 169 278 m 818 347 q 809 371 818 361 q 786 382 800 381 q 750 383 774 382 q 701 383 726 383 q 653 383 675 383 q 621 382 631 383 q 591 372 601 379 q 582 343 581 364 q 597 322 583 328 q 625 315 611 315 q 649 315 626 315 q 698 315 671 315 q 751 317 725 315 q 783 319 776 318 q 818 347 818 325 m 783 260 q 780 281 786 271 q 758 293 774 292 q 683 296 728 296 q 601 294 639 296 q 574 290 589 294 q 558 269 560 285 q 600 229 554 232 q 678 227 635 226 q 758 235 722 228 q 776 244 769 238 q 783 260 782 251 m 854 432 q 849 451 856 443 q 828 463 842 460 q 738 467 783 468 q 642 463 693 465 q 620 454 626 461 q 614 439 614 447 q 622 417 614 424 q 640 408 629 411 q 678 406 656 407 q 727 404 701 404 q 779 404 753 404 q 826 406 806 404 q 847 414 840 406 q 854 432 854 422 z "},"¶":{"ha":804,"x_min":53,"x_max":685,"o":"m 404 489 l 328 489 q 225 504 275 489 q 137 551 175 519 q 76 629 99 582 q 53 740 53 676 q 68 838 53 792 q 120 919 83 885 q 216 974 157 954 q 363 994 275 994 l 685 994 l 685 -169 l 615 -169 l 615 933 l 475 933 l 475 -169 l 404 -169 l 404 489 z "},"†":{"ha":686,"x_min":74,"x_max":613,"o":"m 299 599 l 74 599 l 74 679 l 299 679 l 299 963 l 386 963 l 386 679 l 613 679 l 613 599 l 386 599 l 386 -126 l 299 -126 l 299 599 z "},"‡":{"ha":686,"x_min":74,"x_max":613,"o":"m 74 238 l 299 238 l 299 599 l 74 599 l 74 679 l 299 679 l 299 963 l 386 963 l 386 679 l 613 679 l 613 599 l 386 599 l 386 238 l 613 238 l 613 157 l 386 157 l 386 -126 l 299 -126 l 299 157 l 74 157 l 74 238 z "},"↕":{"ha":1264,"x_min":392,"x_max":872,"o":"m 672 768 l 672 188 l 849 290 l 872 269 l 632 -19 l 392 269 l 415 290 l 592 188 l 592 768 l 415 664 l 392 685 l 632 974 l 872 685 l 849 664 l 672 768 z "},"↗":{"ha":1264,"x_min":140,"x_max":1122,"o":"m 140 43 l 947 850 l 750 900 l 749 932 l 1122 967 l 1088 593 l 1056 594 l 1006 792 l 197 -15 l 140 43 z "},"↙":{"ha":1264,"x_min":140,"x_max":1124,"o":"m 1124 913 l 315 106 l 513 54 l 515 22 l 140 -12 l 175 363 l 207 360 l 258 163 l 1067 969 l 1124 913 z "},"↖":{"ha":1264,"x_min":140,"x_max":1122,"o":"m 1065 -15 l 257 792 l 207 594 l 175 593 l 140 967 l 514 932 l 513 900 l 315 850 l 1122 43 l 1065 -15 z "},"↘":{"ha":1264,"x_min":140,"x_max":1124,"o":"m 197 969 l 1006 163 l 1057 360 l 1089 363 l 1124 -12 l 749 22 l 751 54 l 949 106 l 140 913 l 197 969 z "},"♭":{"ha":718,"x_min":138,"x_max":581,"o":"m 581 369 q 560 231 581 292 q 507 127 540 171 q 429 53 474 83 q 335 5 385 24 q 235 -23 286 -14 q 138 -35 183 -32 l 138 889 l 225 889 l 225 433 q 247 478 233 456 q 283 521 260 501 q 339 553 306 540 q 419 565 372 565 q 482 551 453 565 q 533 512 511 538 q 568 450 556 486 q 581 369 581 414 m 476 318 q 469 388 476 356 q 449 443 463 419 q 417 481 436 467 q 376 494 399 494 q 309 478 338 494 q 262 437 281 461 q 234 384 243 413 q 225 331 225 356 l 225 33 q 310 53 265 36 q 391 103 354 69 q 451 189 428 136 q 475 318 475 242 l 476 318 z "},"♩":{"ha":539,"x_min":138,"x_max":400,"o":"m 400 160 q 391 61 400 100 q 351 -14 382 22 q 307 -55 332 -36 q 255 -83 282 -74 q 202 -90 228 -93 q 158 -65 176 -86 q 138 -18 139 -44 q 149 35 138 8 q 183 84 161 61 q 229 122 204 107 q 347 163 281 153 l 347 919 l 400 919 l 400 160 z "},"♪":{"ha":749,"x_min":82,"x_max":665,"o":"m 665 471 q 653 385 665 429 q 611 297 640 342 q 542 216 583 256 q 463 154 500 176 q 442 152 447 144 q 449 171 438 160 q 490 215 467 189 q 535 276 514 242 q 572 351 557 310 q 586 439 586 392 q 560 517 586 485 q 496 572 533 549 q 417 608 458 594 q 344 632 375 622 l 344 160 q 335 61 344 100 q 296 -14 326 22 q 251 -55 276 -36 q 199 -83 226 -74 q 147 -90 172 -93 q 103 -65 121 -86 q 83 -18 83 -44 q 94 35 82 8 q 127 84 106 61 q 174 122 149 107 q 292 163 225 153 l 292 857 q 293 894 292 875 q 304 913 294 913 q 322 906 314 913 q 347 879 331 899 q 386 835 365 858 q 444 781 407 813 q 547 686 504 729 q 615 606 589 643 q 653 535 642 568 q 665 471 665 503 z "},"♬":{"ha":963,"x_min":75,"x_max":886,"o":"m 831 675 l 831 756 l 349 653 l 349 572 l 831 675 m 886 265 q 860 175 886 217 q 793 100 833 133 q 752 72 775 85 q 706 56 729 60 q 662 56 683 51 q 625 82 640 61 q 614 119 613 97 q 625 163 615 140 q 651 205 635 185 q 685 239 667 225 q 759 277 725 268 q 831 292 793 286 l 831 544 l 349 440 l 349 131 q 322 40 349 82 q 256 -35 296 -1 q 215 -62 238 -50 q 169 -79 192 -75 q 124 -78 146 -83 q 88 -53 103 -74 q 76 -16 75 -37 q 88 28 78 6 q 113 70 97 50 q 147 104 129 90 q 222 142 188 133 q 293 157 256 151 l 293 776 l 886 896 l 886 265 z "},"㉿":{"ha":1264,"x_min":42,"x_max":1222,"o":"m 1222 418 q 1180 190 1222 297 q 1060 2 1138 82 q 873 -125 982 -78 q 631 -172 764 -172 q 423 -137 518 -172 q 254 -42 328 -103 q 129 103 181 19 q 56 288 78 188 l 164 289 q 225 143 185 210 q 324 28 265 76 q 460 -47 383 -19 q 631 -74 538 -74 q 826 -37 738 -74 q 978 61 914 -1 q 1078 208 1042 124 q 1121 389 1115 292 l 878 389 l 878 489 l 1218 489 q 1222 418 1222 453 m 1075 614 q 1006 734 1047 679 q 908 828 964 789 q 783 888 853 867 q 631 910 714 910 q 447 878 531 910 q 302 790 364 846 q 200 656 240 733 q 146 489 160 579 l 315 489 l 315 389 l 42 389 l 42 418 q 85 646 42 539 q 205 833 128 753 q 390 960 282 913 q 631 1007 499 1007 q 822 978 735 1007 q 978 899 908 950 q 1100 774 1049 847 q 1185 614 1151 701 l 1075 614 m 683 486 l 942 115 l 803 115 l 607 407 l 518 317 l 518 115 l 407 115 l 407 739 l 518 739 l 518 451 l 788 739 l 931 739 l 683 486 z "},"㈜":{"ha":1264,"x_min":35,"x_max":1229,"o":"m 135 381 q 176 67 135 222 q 325 -236 218 -89 l 239 -236 q 85 44 135 -112 q 35 388 35 201 l 35 443 q 85 785 35 629 q 239 1064 135 940 l 325 1064 q 178 772 222 925 q 135 450 135 618 l 135 381 m 1129 450 q 1085 772 1129 618 q 939 1064 1042 925 l 1025 1064 q 1179 785 1129 940 q 1229 443 1229 629 l 1229 388 q 1179 44 1229 201 q 1025 -236 1129 -112 l 939 -236 q 1088 67 1046 -89 q 1129 381 1129 222 l 1129 450 m 938 828 l 938 753 l 675 753 l 675 731 q 688 679 675 701 q 734 634 700 657 q 826 584 768 611 q 976 518 885 557 l 940 446 q 713 551 783 511 q 632 613 643 592 q 606 586 625 601 q 549 551 586 571 q 456 506 513 532 q 321 446 400 479 l 285 518 q 435 584 376 557 q 526 634 493 611 q 573 679 560 657 q 586 731 586 701 l 586 753 l 325 753 l 325 828 l 938 828 m 1042 371 l 1042 296 l 675 296 l 675 -11 l 588 -11 l 588 296 l 221 296 l 221 371 l 1042 371 z "},"№":{"ha":1264,"x_min":108,"x_max":1175,"o":"m 108 965 l 226 965 l 517 217 q 533 158 525 193 q 546 89 542 124 l 546 965 l 639 965 l 639 -36 l 521 -36 l 229 713 q 213 772 221 736 q 201 838 204 807 l 201 -36 l 108 -36 l 108 965 m 947 710 q 1117 642 1060 710 q 1175 451 1175 574 l 1175 394 q 1117 204 1175 272 q 947 136 1060 136 q 777 204 835 136 q 719 394 719 272 l 719 451 q 777 642 719 575 q 947 710 835 710 m 947 217 q 1086 403 1086 217 l 1086 443 q 947 628 1086 628 q 844 583 876 628 q 811 443 811 538 l 811 403 q 844 263 811 308 q 947 217 876 217 m 750 53 l 1146 53 l 1146 -36 l 750 -36 l 750 53 z "},"㏇":{"ha":1264,"x_min":53,"x_max":1233,"o":"m 358 981 q 438 973 403 981 q 502 953 474 965 q 553 924 531 940 q 594 889 575 907 l 539 815 q 453 873 493 857 q 360 889 413 889 q 261 863 301 889 q 197 791 221 838 q 162 680 172 744 q 151 536 151 615 l 151 408 q 201 132 151 222 q 368 42 250 42 q 469 64 428 42 q 550 132 510 86 l 613 63 q 518 -17 581 18 q 367 -51 456 -51 q 219 -20 279 -51 q 123 70 160 11 q 69 215 86 129 q 53 408 53 300 l 53 532 q 70 722 53 638 q 125 863 88 806 q 220 950 163 919 q 358 981 278 981 m 896 981 q 1025 951 972 981 q 1110 866 1078 922 q 1158 726 1143 810 q 1172 533 1172 642 l 1172 396 q 1158 203 1172 288 q 1110 63 1143 119 q 1025 -22 1078 7 q 896 -51 972 -51 q 767 -22 819 -51 q 681 63 714 7 q 634 203 649 119 q 619 396 619 288 l 619 533 q 634 726 619 642 q 681 866 649 810 q 765 951 713 922 q 896 981 818 981 m 896 36 q 1036 131 999 36 q 1074 404 1074 225 l 1074 525 q 1036 799 1074 704 q 896 893 999 893 q 756 799 793 893 q 718 525 718 704 l 718 404 q 756 131 718 225 q 896 36 793 36 m 1157 58 l 1233 58 l 1233 -36 l 1157 -36 l 1157 58 z "},"™":{"ha":1029,"x_min":38,"x_max":939,"o":"m 463 965 l 572 965 l 701 689 l 704 689 l 826 965 l 939 965 l 939 513 l 863 513 l 863 875 l 858 875 l 735 603 l 667 603 l 538 875 l 535 875 l 535 513 l 463 513 l 463 965 m 181 896 l 38 896 l 38 965 l 404 965 l 404 896 l 261 896 l 261 513 l 181 513 l 181 896 z "},"㏂":{"ha":1264,"x_min":26,"x_max":1233,"o":"m 357 -36 l 283 -36 l 283 33 q 242 -23 271 0 q 164 -46 213 -46 q 67 2 108 -46 q 26 154 26 50 l 26 194 q 80 351 26 299 q 219 403 133 403 l 269 403 l 269 510 q 251 622 269 593 q 188 650 232 650 q 138 638 164 650 q 83 599 111 626 l 38 654 q 104 704 65 682 q 193 726 143 726 q 256 717 226 726 q 308 685 286 708 q 344 622 331 661 q 357 519 357 582 l 357 -36 m 271 329 l 217 329 q 144 301 172 329 q 115 189 115 272 l 115 164 q 121 97 115 124 q 136 56 126 71 q 159 34 146 40 q 188 28 172 28 q 226 38 210 28 q 251 65 242 49 q 266 103 261 82 q 271 144 271 124 l 271 329 m 508 713 l 589 713 l 589 635 q 637 701 606 675 q 713 726 668 726 q 784 708 749 726 q 839 629 819 689 q 891 698 857 669 q 978 726 925 726 q 1082 683 1042 726 q 1122 539 1122 639 l 1122 -36 l 1033 -36 l 1033 508 q 1032 561 1033 536 q 1022 606 1031 586 q 998 637 1014 625 q 953 649 982 649 q 908 637 926 649 q 880 606 890 625 q 865 562 869 586 q 860 511 860 538 l 860 -36 l 771 -36 l 771 521 q 755 617 771 586 q 690 649 739 649 q 621 607 644 649 q 597 503 597 565 l 597 -36 l 508 -36 l 508 713 m 1157 58 l 1233 58 l 1233 -36 l 1157 -36 l 1157 58 m 399 58 l 475 58 l 475 -36 l 399 -36 l 399 58 z "},"㏘":{"ha":1264,"x_min":51,"x_max":1233,"o":"m 140 -333 l 51 -333 l 51 713 l 132 713 l 132 635 q 175 701 143 676 q 249 726 207 726 q 365 652 332 726 q 399 419 399 578 l 399 260 q 390 113 399 172 q 365 19 382 54 q 319 -32 347 -17 q 253 -47 292 -47 q 183 -26 213 -47 q 140 39 154 -6 l 140 -333 m 519 713 l 600 713 l 600 635 q 647 701 617 675 q 721 726 676 726 q 791 708 757 726 q 844 629 825 689 q 895 698 863 669 q 981 726 928 726 q 1083 683 1044 726 q 1122 539 1122 639 l 1122 -36 l 1033 -36 l 1033 508 q 1032 561 1033 536 q 1024 606 1031 586 q 1001 637 1017 625 q 956 649 985 649 q 912 637 929 649 q 884 606 894 625 q 869 562 874 586 q 865 511 865 538 l 865 -36 l 776 -36 l 776 521 q 762 617 776 586 q 699 649 747 649 q 631 607 653 649 q 608 503 608 565 l 608 -36 l 519 -36 l 519 713 m 310 406 q 294 588 310 526 q 232 649 279 649 q 182 633 200 649 q 155 590 164 617 q 143 531 146 564 q 140 464 140 497 l 140 213 q 145 147 140 179 q 161 90 150 115 q 190 49 172 65 q 232 33 207 33 q 269 42 254 33 q 292 78 283 51 q 306 150 301 104 q 310 271 310 196 l 310 406 m 407 58 l 483 58 l 483 -36 l 407 -36 l 407 58 m 1157 58 l 1233 58 l 1233 -36 l 1157 -36 l 1157 58 z "},"℡":{"ha":1464,"x_min":14,"x_max":1450,"o":"m 958 713 l 958 626 l 656 626 l 656 396 l 929 396 l 929 310 l 656 310 l 656 50 l 968 50 l 968 -36 l 558 -36 l 558 713 l 958 713 m 640 965 l 640 879 l 374 879 l 374 -36 l 278 -36 l 278 879 l 14 879 l 14 965 l 640 965 m 1161 713 l 1161 50 l 1450 50 l 1450 -36 l 1064 -36 l 1064 713 l 1161 713 z "},"！":{"ha":1264,"x_min":565,"x_max":699,"o":"m 565 61 l 699 61 l 699 -75 l 565 -75 l 565 61 m 592 206 l 575 992 l 689 992 l 672 206 l 592 206 z "},"＂":{"ha":1264,"x_min":478,"x_max":785,"o":"m 492 678 l 478 1014 l 586 1014 l 572 678 l 492 678 m 690 678 l 676 1014 l 785 1014 l 771 678 l 690 678 z "},"＃":{"ha":1264,"x_min":275,"x_max":989,"o":"m 946 354 l 946 269 l 782 269 l 739 -36 l 660 -36 l 703 269 l 506 269 l 464 -36 l 383 -36 l 426 269 l 275 269 l 275 354 l 438 354 l 469 582 l 318 582 l 318 667 l 482 667 l 524 965 l 603 965 l 561 667 l 757 667 l 799 965 l 879 965 l 836 667 l 989 667 l 989 582 l 825 582 l 793 354 l 946 354 m 746 582 l 549 582 l 517 354 l 714 354 l 746 582 z "},"＄":{"ha":1264,"x_min":289,"x_max":974,"o":"m 597 -25 q 428 8 507 -21 q 289 85 350 38 l 339 161 q 470 88 406 113 q 597 60 535 64 l 597 435 q 461 477 517 453 q 372 532 406 501 q 322 600 338 563 q 307 682 307 638 l 307 713 q 386 883 307 819 q 597 954 465 946 l 597 1043 l 674 1043 l 674 954 q 822 925 757 949 q 933 869 886 901 l 886 800 q 792 845 846 828 q 674 868 739 863 l 674 513 q 815 467 758 492 q 908 410 872 442 q 958 341 943 379 q 974 254 974 303 l 974 224 q 953 131 974 174 q 894 55 933 88 q 800 2 856 22 q 674 -24 744 -18 l 674 -129 l 597 -129 l 597 -25 m 878 251 q 869 303 878 279 q 837 347 860 326 q 774 385 814 368 q 674 418 735 403 l 674 61 q 824 117 771 72 q 878 224 878 161 l 878 251 m 403 686 q 413 636 403 658 q 444 595 422 614 q 504 560 467 576 q 597 531 542 544 l 597 868 q 458 820 513 861 q 403 710 403 779 l 403 686 z "},"％":{"ha":1264,"x_min":125,"x_max":1138,"o":"m 288 -35 l 886 965 l 974 965 l 376 -35 l 288 -35 m 922 476 q 1081 416 1024 476 q 1138 246 1138 356 l 1138 183 q 1081 13 1138 74 q 922 -47 1024 -47 q 764 13 821 -47 q 707 183 707 74 l 707 246 q 764 416 707 356 q 922 476 821 476 m 922 24 q 1020 61 983 24 q 1057 186 1057 99 l 1057 243 q 1020 368 1057 331 q 922 406 983 406 q 824 368 861 406 q 788 243 788 331 l 788 186 q 824 61 788 99 q 922 24 861 24 m 340 976 q 499 916 442 976 q 556 746 556 856 l 556 683 q 499 513 556 574 q 340 453 442 453 q 182 513 239 453 q 125 683 125 574 l 125 746 q 182 916 125 856 q 340 976 239 976 m 340 524 q 438 561 401 524 q 475 686 475 599 l 475 743 q 438 868 475 831 q 340 906 401 906 q 242 868 279 906 q 206 743 206 831 l 206 686 q 242 561 206 599 q 340 524 279 524 z "},"＆":{"ha":1264,"x_min":219,"x_max":1065,"o":"m 1013 482 q 988 294 1013 379 q 915 140 963 208 l 1065 -36 l 954 -36 l 860 75 q 715 -22 797 8 q 549 -51 632 -51 l 540 -51 q 419 -35 478 -51 q 317 13 361 -18 q 246 90 272 44 q 219 194 219 136 l 219 228 q 233 314 219 275 q 278 387 247 353 q 358 454 308 421 q 479 524 407 488 l 453 556 q 417 599 436 576 q 381 649 397 622 q 353 704 364 675 q 343 765 343 733 l 343 790 q 358 858 343 824 q 404 919 374 892 q 480 963 435 946 q 583 981 525 981 q 683 963 639 981 q 759 919 728 946 q 807 858 790 892 q 824 790 824 824 l 824 764 q 813 699 824 731 q 778 634 803 667 q 712 568 753 601 q 610 500 671 535 l 857 208 q 906 331 889 261 q 922 482 922 400 l 1013 482 m 546 32 q 691 60 625 32 q 806 140 757 88 l 535 458 q 436 401 478 428 q 367 348 394 375 q 326 291 339 321 q 313 222 313 261 l 313 199 q 330 135 313 165 q 378 81 347 104 q 453 45 410 58 q 546 32 496 32 m 433 769 q 445 718 433 744 q 475 665 457 692 q 515 613 493 639 q 556 563 536 586 q 648 621 613 593 q 702 674 683 649 q 727 724 721 700 q 733 769 733 747 l 733 785 q 722 831 733 810 q 689 867 710 851 q 641 891 668 882 q 583 900 614 900 q 526 891 553 900 q 478 867 499 882 q 445 831 457 851 q 433 785 433 810 l 433 769 z "},"＇":{"ha":1264,"x_min":578,"x_max":686,"o":"m 592 678 l 578 1014 l 686 1014 l 672 678 l 592 678 z "},"（":{"ha":1264,"x_min":936,"x_max":1229,"o":"m 1039 381 q 1081 67 1039 222 q 1229 -236 1122 -89 l 1140 -236 q 986 44 1036 -112 q 936 388 936 201 l 936 443 q 986 785 936 629 q 1140 1064 1036 940 l 1229 1064 q 1083 772 1126 925 q 1039 450 1039 618 l 1039 381 z "},"）":{"ha":1264,"x_min":35,"x_max":328,"o":"m 225 450 q 181 772 225 618 q 35 1064 138 925 l 124 1064 q 278 785 228 940 q 328 443 328 629 l 328 388 q 278 44 328 201 q 124 -236 228 -112 l 35 -236 q 183 67 142 -89 q 225 381 225 222 l 225 450 z "},"＊":{"ha":1264,"x_min":375,"x_max":888,"o":"m 418 567 l 375 646 l 572 742 l 375 836 l 418 915 l 594 800 l 586 1013 l 678 1013 l 668 800 l 846 915 l 888 836 l 690 742 l 888 646 l 846 567 l 668 682 l 678 471 l 586 471 l 596 682 l 418 567 z "},"＋":{"ha":1264,"x_min":290,"x_max":974,"o":"m 678 789 l 678 488 l 974 488 l 974 399 l 678 399 l 678 78 l 586 78 l 586 399 l 290 399 l 290 488 l 586 488 l 586 789 l 678 789 z "},"，":{"ha":1264,"x_min":542,"x_max":722,"o":"m 600 69 l 722 69 l 622 -243 l 542 -243 l 600 69 z "},"－":{"ha":1264,"x_min":464,"x_max":800,"o":"m 464 454 l 800 454 l 800 353 l 464 353 l 464 454 z "},"．":{"ha":1264,"x_min":561,"x_max":701,"o":"m 561 63 l 701 63 l 701 -76 l 561 -76 l 561 63 z "},"／":{"ha":1264,"x_min":375,"x_max":888,"o":"m 888 1054 l 468 -174 l 375 -174 l 793 1054 l 888 1054 z "},"０":{"ha":1264,"x_min":292,"x_max":972,"o":"m 972 388 q 892 62 972 175 q 631 -51 811 -51 q 372 63 453 -51 q 292 388 292 176 l 292 543 q 374 867 292 753 q 631 981 456 981 q 890 867 808 981 q 972 543 972 754 l 972 388 m 872 544 q 812 812 872 731 q 631 893 751 893 q 453 811 515 893 q 392 544 392 729 l 392 386 q 453 118 392 200 q 631 36 515 36 q 811 117 750 36 q 872 386 872 199 l 872 544 z "},"１":{"ha":1264,"x_min":440,"x_max":824,"o":"m 726 -36 l 726 843 l 485 696 l 440 774 l 750 965 l 824 965 l 824 -36 l 726 -36 z "},"２":{"ha":1264,"x_min":314,"x_max":950,"o":"m 688 485 q 754 568 729 533 q 792 630 779 603 q 810 678 806 657 q 815 718 815 699 l 815 729 q 766 848 815 804 q 625 892 717 892 q 500 860 558 892 q 393 740 442 828 l 315 789 q 360 855 333 821 q 424 917 386 889 q 510 963 461 944 q 622 981 560 981 q 743 963 689 981 q 835 912 797 944 q 893 833 872 879 q 914 731 914 786 l 914 717 q 900 638 914 676 q 863 564 886 600 q 810 492 840 528 q 747 418 779 456 l 436 53 l 950 53 l 950 -36 l 314 -36 l 314 47 l 688 485 z "},"３":{"ha":1264,"x_min":300,"x_max":957,"o":"m 333 825 q 378 883 351 856 q 440 933 404 911 q 520 967 475 954 q 622 981 565 981 q 745 963 690 981 q 838 912 800 944 q 897 833 876 879 q 918 731 918 786 l 918 717 q 910 655 918 688 q 882 592 901 622 q 829 535 863 561 q 746 492 796 508 q 903 410 850 474 q 957 258 957 346 l 957 238 q 939 132 957 183 q 881 40 921 81 q 777 -26 842 -1 q 621 -51 713 -51 q 452 -24 533 -51 q 300 60 371 3 l 349 138 q 487 61 422 85 q 621 38 551 38 q 732 56 686 38 q 806 102 778 74 q 848 166 835 131 q 861 236 861 201 l 861 254 q 838 348 861 311 q 781 406 815 385 q 706 436 747 428 q 629 444 665 444 l 517 444 l 517 528 l 633 528 q 715 545 681 528 q 773 590 750 563 q 808 652 796 618 q 819 718 819 686 l 819 729 q 767 848 819 804 q 624 892 715 892 q 508 867 564 892 q 410 775 453 843 l 333 825 z "},"４":{"ha":1264,"x_min":254,"x_max":1000,"o":"m 853 590 l 853 275 l 1000 275 l 1000 186 l 853 186 l 853 -36 l 756 -36 l 756 186 l 254 186 l 254 275 l 740 965 l 851 965 l 367 275 l 756 275 l 756 590 l 853 590 z "},"５":{"ha":1264,"x_min":308,"x_max":972,"o":"m 876 265 q 817 441 876 386 q 650 496 758 496 q 536 472 586 496 q 453 417 486 449 l 361 417 l 393 965 l 908 965 l 908 876 l 479 876 l 464 513 q 554 564 497 544 q 674 583 611 583 q 803 559 747 583 q 897 493 860 535 q 953 394 935 451 q 972 269 972 336 l 972 249 q 954 141 972 194 q 897 45 936 88 q 792 -24 857 3 q 633 -51 726 -51 q 453 -22 531 -51 q 308 60 375 8 l 358 139 q 497 60 431 83 q 633 38 563 38 q 747 58 700 38 q 822 108 793 78 q 864 176 851 139 q 876 247 876 213 l 876 265 z "},"６":{"ha":1264,"x_min":299,"x_max":965,"o":"m 878 833 q 777 877 831 861 q 665 893 724 893 q 546 865 594 893 q 465 782 497 836 q 417 649 433 728 q 394 471 400 571 q 427 518 406 493 q 480 564 449 543 q 553 598 511 585 q 647 611 594 611 q 769 590 711 611 q 870 530 826 569 q 940 433 914 490 q 965 301 965 375 l 965 268 q 940 135 965 194 q 872 35 915 76 q 767 -29 828 -7 q 638 -51 707 -51 q 505 -27 567 -51 q 397 47 443 -3 q 325 174 351 97 q 299 356 299 251 l 299 389 q 324 663 299 550 q 397 846 350 775 q 513 949 444 917 q 667 981 581 981 q 801 963 735 981 q 924 913 867 944 l 878 833 m 404 288 q 421 185 404 231 q 468 106 438 139 q 541 54 499 72 q 635 36 583 36 q 729 52 686 36 q 803 98 772 68 q 852 172 835 128 q 869 272 869 215 l 869 293 q 850 392 869 349 q 799 466 831 436 q 724 511 767 496 q 636 526 682 526 q 550 510 592 526 q 476 464 508 493 q 424 394 444 435 q 404 306 404 353 l 404 288 z "},"７":{"ha":1264,"x_min":296,"x_max":967,"o":"m 561 -36 l 451 -36 l 858 876 l 296 876 l 296 965 l 967 965 l 967 890 l 561 -36 z "},"８":{"ha":1264,"x_min":310,"x_max":954,"o":"m 436 710 q 450 633 436 669 q 490 571 464 597 q 551 529 515 544 q 632 514 588 514 q 713 529 676 514 q 774 571 749 544 q 814 633 800 597 q 828 710 828 669 l 828 726 q 774 849 828 804 q 632 894 721 894 q 489 849 542 894 q 436 726 436 804 l 436 710 m 408 221 q 424 149 408 182 q 468 90 439 115 q 538 51 497 65 q 632 36 579 36 q 726 51 685 36 q 797 90 768 65 q 840 149 825 115 q 856 221 856 182 l 856 238 q 839 318 856 282 q 793 381 822 354 q 723 421 764 407 q 632 435 682 435 q 542 421 583 435 q 472 381 501 407 q 425 319 442 356 q 408 238 408 283 l 408 221 m 310 242 q 360 388 310 325 q 493 476 411 451 q 381 569 421 510 q 342 708 342 629 l 342 731 q 363 831 342 785 q 424 910 385 876 q 516 962 463 943 q 632 981 569 981 q 748 962 694 981 q 840 910 801 943 q 901 831 879 876 q 922 731 922 785 l 922 708 q 883 569 922 629 q 769 476 843 510 q 844 442 810 464 q 902 388 878 419 q 940 320 926 357 q 954 242 954 283 l 954 218 q 931 108 954 158 q 866 23 908 58 q 764 -32 824 -12 q 632 -51 704 -51 q 500 -32 560 -51 q 398 23 440 -12 q 333 108 356 58 q 310 218 310 158 l 310 242 z "},"９":{"ha":1264,"x_min":299,"x_max":965,"o":"m 383 99 q 485 54 431 71 q 599 38 539 38 q 726 66 675 38 q 808 149 778 94 q 853 281 839 203 q 869 456 867 358 q 838 408 858 433 q 785 362 817 383 q 712 326 754 340 q 617 311 669 311 q 495 333 553 311 q 394 394 438 354 q 324 492 350 435 q 299 624 299 550 l 299 657 q 324 790 299 731 q 392 892 349 850 q 497 958 436 935 q 626 981 557 981 q 758 956 696 981 q 865 881 819 932 q 938 753 911 831 q 965 572 965 676 l 965 531 q 942 253 965 365 q 874 74 919 142 q 758 -23 828 6 q 596 -51 689 -51 q 464 -33 528 -51 q 343 17 400 -15 l 383 99 m 860 638 q 843 740 860 693 q 796 822 826 788 q 723 874 765 856 q 629 893 681 893 q 535 876 578 893 q 460 829 492 860 q 412 753 429 799 q 394 653 394 708 l 394 632 q 414 531 394 575 q 465 458 433 488 q 540 412 497 428 q 628 396 582 396 q 713 413 671 396 q 788 460 756 429 q 840 531 819 490 q 860 619 860 571 l 860 638 z "},"：":{"ha":1264,"x_min":561,"x_max":701,"o":"m 561 63 l 701 63 l 701 -76 l 561 -76 l 561 63 m 561 671 l 701 671 l 701 532 l 561 532 l 561 671 z "},"；":{"ha":1264,"x_min":542,"x_max":722,"o":"m 576 671 l 717 671 l 717 532 l 576 532 l 576 671 m 600 69 l 722 69 l 622 -243 l 542 -243 l 600 69 z "},"＜":{"ha":1264,"x_min":306,"x_max":958,"o":"m 417 440 l 958 158 l 958 57 l 306 404 l 306 486 l 958 833 l 958 733 l 417 449 l 417 440 z "},"＝":{"ha":1264,"x_min":318,"x_max":946,"o":"m 318 636 l 946 636 l 946 546 l 318 546 l 318 636 m 318 343 l 946 343 l 946 253 l 318 253 l 318 343 z "},"＞":{"ha":1264,"x_min":306,"x_max":958,"o":"m 847 449 l 306 733 l 306 833 l 958 486 l 958 404 l 306 57 l 306 158 l 847 440 l 847 449 z "},"？":{"ha":1264,"x_min":340,"x_max":922,"o":"m 538 61 l 671 61 l 671 -75 l 538 -75 l 538 61 m 557 196 l 557 261 q 563 323 557 296 q 585 376 569 350 q 627 431 601 403 q 692 497 653 460 q 740 543 717 521 q 781 590 763 565 q 811 642 800 614 q 822 707 822 671 l 822 729 q 772 848 822 804 q 633 892 721 892 q 504 863 563 892 q 403 786 446 835 l 340 850 q 386 896 358 872 q 451 938 414 919 q 533 969 488 957 q 631 981 578 981 q 846 913 769 981 q 922 731 922 844 l 922 707 q 906 617 922 656 q 865 545 890 578 q 807 483 839 513 q 743 424 775 454 q 703 383 719 401 q 674 345 686 364 q 657 305 663 326 q 651 257 651 283 l 651 196 l 557 196 z "},"＠":{"ha":1264,"x_min":18,"x_max":1244,"o":"m 994 63 q 939 69 967 63 q 886 91 911 76 q 842 128 861 106 q 813 182 822 150 l 811 182 q 774 126 799 149 q 719 90 749 104 q 660 71 690 76 q 606 65 631 65 q 413 138 476 65 q 350 336 350 210 l 350 442 q 416 641 350 569 q 604 713 482 713 q 720 687 675 713 q 789 624 765 661 l 789 704 l 888 704 l 888 258 q 919 174 888 200 q 996 149 951 149 q 1059 163 1031 149 q 1108 209 1088 178 q 1141 291 1129 240 q 1153 413 1153 342 l 1153 428 q 1119 640 1153 546 q 1018 801 1085 735 q 851 902 951 867 q 617 938 750 938 q 409 901 503 938 q 249 798 315 865 q 146 633 182 731 q 110 411 110 535 l 110 388 q 145 157 110 258 q 249 -15 181 56 q 417 -122 317 -85 q 644 -158 517 -158 q 852 -136 751 -158 q 1040 -68 953 -114 l 1079 -147 q 883 -220 992 -194 q 649 -246 774 -246 q 386 -202 503 -246 q 188 -76 269 -158 q 62 123 106 6 q 18 386 18 240 l 18 413 q 60 657 18 544 q 178 851 101 769 q 367 978 256 932 q 617 1024 478 1024 q 887 980 769 1024 q 1083 858 1004 936 q 1203 672 1163 781 q 1244 432 1244 563 l 1244 414 q 1233 293 1244 356 q 1194 180 1222 231 q 1117 96 1165 129 q 994 63 1068 63 m 451 353 q 493 206 451 251 q 615 160 535 160 q 739 202 692 160 q 786 329 786 244 l 786 468 q 774 523 786 496 q 741 572 763 550 q 688 606 719 593 q 615 619 656 619 q 493 572 535 619 q 451 425 451 525 l 451 353 z "},"Ａ":{"ha":1264,"x_min":206,"x_max":1058,"o":"m 1058 -36 l 954 -36 l 843 275 l 419 275 l 306 -36 l 206 -36 l 578 965 l 688 965 l 1058 -36 m 450 360 l 813 360 l 715 631 q 697 679 706 656 q 679 731 689 703 q 658 795 669 760 q 632 879 647 831 q 607 795 618 831 q 586 731 596 760 q 568 679 576 703 q 550 631 560 656 l 450 360 z "},"Ｂ":{"ha":1264,"x_min":304,"x_max":988,"o":"m 304 965 l 624 965 q 942 721 942 965 l 942 692 q 933 627 942 658 q 906 569 925 596 q 856 523 888 543 q 781 492 825 503 q 930 422 872 478 q 988 263 988 367 l 988 228 q 909 34 988 104 q 667 -36 831 -36 l 304 -36 l 304 965 m 400 50 l 658 50 q 833 95 776 50 q 889 229 889 140 l 889 260 q 876 340 889 306 q 833 399 864 375 q 753 434 803 422 q 628 446 703 446 l 400 446 l 400 50 m 400 881 l 400 528 l 626 528 q 788 564 731 528 q 844 694 844 600 l 844 719 q 790 844 844 808 q 617 881 735 881 l 400 881 z "},"Ｃ":{"ha":1264,"x_min":274,"x_max":1000,"o":"m 658 981 q 835 955 758 981 q 975 881 913 929 l 925 804 q 796 871 857 853 q 658 889 735 889 q 535 863 589 889 q 446 791 482 838 q 391 680 410 744 q 372 536 372 615 l 372 408 q 451 132 372 222 q 668 42 529 42 q 828 72 763 42 q 943 144 894 101 l 1000 68 q 865 -17 944 18 q 667 -51 786 -51 q 373 69 472 -51 q 274 408 274 190 l 274 532 q 374 863 274 746 q 658 981 475 981 z "},"Ｄ":{"ha":1264,"x_min":300,"x_max":1018,"o":"m 613 965 q 910 855 803 965 q 1018 536 1018 744 l 1018 393 q 910 74 1018 185 q 613 -36 803 -36 l 300 -36 l 300 965 l 613 965 m 397 50 l 614 50 q 738 71 681 50 q 835 135 794 92 q 898 244 875 179 q 921 400 921 310 l 921 529 q 898 684 921 618 q 835 794 875 750 q 738 858 794 838 q 614 879 681 879 l 397 879 l 397 50 z "},"Ｅ":{"ha":1264,"x_min":339,"x_max":951,"o":"m 942 965 l 942 879 l 436 879 l 436 521 l 913 521 l 913 435 l 436 435 l 436 50 l 951 50 l 951 -36 l 339 -36 l 339 965 l 942 965 z "},"Ｆ":{"ha":1264,"x_min":363,"x_max":957,"o":"m 363 -36 l 363 965 l 957 965 l 957 879 l 460 879 l 460 496 l 928 496 l 928 410 l 460 410 l 460 -36 l 363 -36 z "},"Ｇ":{"ha":1264,"x_min":265,"x_max":1003,"o":"m 654 981 q 838 955 760 981 q 978 881 915 929 l 928 804 q 797 871 860 853 q 654 889 733 889 q 528 863 582 889 q 437 791 474 838 q 382 680 400 744 q 364 536 364 615 l 364 408 q 674 42 364 42 q 737 44 704 42 q 801 53 769 47 q 860 69 832 60 q 908 92 888 79 l 908 408 l 672 408 l 672 494 l 1003 494 l 1003 38 q 853 -31 938 -10 q 669 -51 769 -51 q 364 69 463 -51 q 265 408 265 190 l 265 532 q 365 863 265 746 q 654 981 464 981 z "},"Ｈ":{"ha":1264,"x_min":239,"x_max":949,"o":"m 851 438 l 336 438 l 336 -36 l 239 -36 l 239 965 l 336 965 l 336 535 l 851 535 l 851 965 l 949 965 l 949 -36 l 851 -36 l 851 438 z "},"Ｉ":{"ha":1264,"x_min":583,"x_max":681,"o":"m 583 965 l 681 965 l 681 -36 l 583 -36 l 583 965 z "},"Ｊ":{"ha":1264,"x_min":351,"x_max":842,"o":"m 744 965 l 842 965 l 842 229 q 821 92 842 146 q 765 6 800 38 q 683 -39 729 -26 q 586 -51 638 -51 q 462 -35 524 -51 q 351 25 400 -18 l 399 104 q 488 54 443 68 q 581 40 532 40 q 707 88 669 40 q 744 239 744 135 l 744 965 z "},"Ｋ":{"ha":1264,"x_min":283,"x_max":1021,"o":"m 578 538 l 1021 -36 l 896 -36 l 508 467 l 381 335 l 381 -36 l 283 -36 l 283 965 l 381 965 l 381 460 l 864 965 l 994 965 l 578 538 z "},"Ｌ":{"ha":1264,"x_min":354,"x_max":953,"o":"m 451 965 l 451 50 l 953 50 l 953 -36 l 354 -36 l 354 965 l 451 965 z "},"Ｍ":{"ha":1264,"x_min":175,"x_max":1089,"o":"m 321 697 q 306 728 313 715 q 293 756 299 742 q 282 785 288 769 q 271 824 276 801 l 271 -36 l 175 -36 l 175 965 l 294 965 l 633 232 l 974 965 l 1089 965 l 1089 -36 l 993 -36 l 993 824 q 984 785 989 801 q 974 756 979 769 q 961 728 968 742 q 946 697 954 715 l 678 131 l 586 131 l 321 697 z "},"Ｎ":{"ha":1264,"x_min":274,"x_max":989,"o":"m 274 965 l 389 965 l 849 182 q 871 141 861 161 q 896 89 881 121 l 896 965 l 989 965 l 989 -36 l 874 -36 l 413 750 q 390 790 400 772 q 367 840 381 808 l 367 -36 l 274 -36 l 274 965 z "},"Ｏ":{"ha":1264,"x_min":242,"x_max":1022,"o":"m 632 981 q 797 949 725 981 q 919 860 869 918 q 996 719 969 801 q 1022 533 1022 636 l 1022 396 q 996 210 1022 293 q 919 69 969 128 q 797 -20 869 11 q 632 -51 725 -51 q 467 -20 539 -51 q 344 69 394 11 q 268 210 294 128 q 242 396 242 293 l 242 533 q 267 719 242 636 q 343 860 293 801 q 466 949 393 918 q 632 981 539 981 m 632 36 q 845 130 767 36 q 924 404 924 224 l 924 525 q 845 799 924 706 q 632 893 767 893 q 419 799 497 893 q 340 525 340 706 l 340 404 q 419 130 340 224 q 632 36 497 36 z "},"Ｐ":{"ha":1264,"x_min":332,"x_max":992,"o":"m 332 965 l 671 965 q 810 944 750 965 q 911 884 871 922 q 972 793 951 846 q 992 679 992 740 l 992 650 q 970 536 992 589 q 908 444 949 483 q 807 382 867 404 q 671 360 747 360 l 429 360 l 429 -36 l 332 -36 l 332 965 m 429 878 l 429 447 l 647 447 q 835 503 776 447 q 893 653 893 558 l 893 678 q 837 822 893 767 q 663 878 781 878 l 429 878 z "},"Ｑ":{"ha":1264,"x_min":231,"x_max":1032,"o":"m 621 981 q 786 949 714 981 q 908 860 858 918 q 985 719 958 801 q 1011 533 1011 636 l 1011 396 q 915 76 1011 193 l 1032 -40 l 969 -106 l 849 15 q 621 -51 754 -51 q 456 -20 528 -51 q 333 69 383 11 q 257 210 283 128 q 231 396 231 293 l 231 533 q 256 719 231 636 q 332 860 282 801 q 455 949 382 918 q 621 981 528 981 m 621 36 q 781 82 714 36 l 651 213 l 714 278 l 846 146 q 896 256 878 192 q 914 404 914 321 l 914 525 q 834 799 914 704 q 621 893 754 893 q 408 799 488 893 q 328 525 328 704 l 328 404 q 408 131 328 225 q 621 36 488 36 z "},"Ｒ":{"ha":1264,"x_min":310,"x_max":992,"o":"m 694 397 q 676 396 685 396 q 657 396 667 396 l 407 396 l 407 -36 l 310 -36 l 310 965 l 656 965 q 789 945 731 965 q 888 888 847 925 q 950 801 929 851 q 971 693 971 751 l 971 672 q 922 515 971 581 q 790 418 874 449 l 992 -36 l 888 -36 l 694 397 m 407 878 l 407 483 l 626 483 q 815 534 757 483 q 872 676 872 585 l 872 690 q 816 828 872 778 q 642 878 760 878 l 407 878 z "},"Ｓ":{"ha":1264,"x_min":294,"x_max":979,"o":"m 631 39 q 735 53 689 39 q 815 91 782 67 q 864 147 847 115 q 881 211 881 178 l 881 240 q 869 303 881 275 q 829 353 858 331 q 749 395 800 376 q 618 432 699 414 q 472 477 531 451 q 377 535 413 503 q 327 608 342 568 q 313 694 313 647 l 313 726 q 337 830 313 783 q 405 910 361 876 q 509 962 449 943 q 640 981 569 981 q 814 956 742 981 q 938 896 886 932 l 892 817 q 781 872 843 851 q 640 892 718 892 q 553 881 594 892 q 480 848 511 869 q 430 796 449 826 q 411 726 411 765 l 411 699 q 423 640 411 667 q 462 593 435 614 q 535 554 489 572 q 649 521 581 536 q 810 473 746 499 q 911 414 874 447 q 964 339 949 381 q 979 243 979 297 l 979 211 q 956 110 979 157 q 888 26 932 63 q 780 -31 844 -10 q 635 -51 715 -51 q 448 -22 535 -51 q 294 60 361 8 l 344 142 q 491 63 419 88 q 631 39 563 39 z "},"Ｔ":{"ha":1264,"x_min":263,"x_max":1000,"o":"m 1000 965 l 1000 879 l 679 879 l 679 -36 l 582 -36 l 582 879 l 263 879 l 263 965 l 1000 965 z "},"Ｕ":{"ha":1264,"x_min":276,"x_max":988,"o":"m 632 36 q 827 119 763 36 q 892 390 892 203 l 892 965 l 988 965 l 988 354 q 894 47 988 146 q 632 -51 800 -51 q 369 47 463 -51 q 276 354 276 146 l 276 965 l 372 965 l 372 390 q 437 119 372 203 q 632 36 501 36 z "},"Ｖ":{"ha":1264,"x_min":218,"x_max":1044,"o":"m 218 965 l 325 965 l 633 64 l 635 64 l 943 965 l 1044 965 l 686 -36 l 575 -36 l 218 965 z "},"Ｗ":{"ha":1264,"x_min":8,"x_max":1256,"o":"m 8 965 l 113 965 l 338 68 l 339 68 l 578 965 l 688 965 l 926 68 l 928 68 l 1154 965 l 1256 965 l 979 -36 l 868 -36 l 631 853 l 393 -36 l 282 -36 l 8 965 z "},"Ｘ":{"ha":1264,"x_min":233,"x_max":1029,"o":"m 693 483 l 1029 -36 l 910 -36 l 631 418 l 344 -36 l 233 -36 l 571 485 l 250 965 l 364 965 l 636 546 l 899 965 l 1008 965 l 693 483 z "},"Ｙ":{"ha":1264,"x_min":242,"x_max":1022,"o":"m 683 374 l 683 -36 l 586 -36 l 586 374 l 242 965 l 351 965 l 636 463 l 914 965 l 1022 965 l 683 374 z "},"Ｚ":{"ha":1264,"x_min":261,"x_max":1001,"o":"m 975 900 l 378 47 l 1001 47 l 1001 -36 l 261 -36 l 261 40 l 851 882 l 294 882 l 294 965 l 975 965 l 975 900 z "},"［":{"ha":1264,"x_min":885,"x_max":1211,"o":"m 1211 -236 l 885 -236 l 885 1064 l 1211 1064 l 1211 978 l 978 978 l 978 -150 l 1211 -150 l 1211 -236 z "},"￦":{"ha":1264,"x_min":31,"x_max":1235,"o":"m 31 561 l 167 561 l 69 965 l 163 965 l 251 561 l 486 561 l 583 965 l 683 965 l 781 561 l 1017 561 l 1108 965 l 1197 965 l 1099 561 l 1235 561 l 1235 490 l 1081 490 l 953 -36 l 847 -36 l 721 490 l 543 490 l 417 -36 l 311 -36 l 183 490 l 31 490 l 31 561 m 901 68 l 906 68 l 1000 490 l 799 490 l 901 68 m 363 68 l 367 68 l 468 490 l 268 490 l 363 68 m 560 561 l 704 561 l 632 861 l 560 561 z "},"］":{"ha":1264,"x_min":53,"x_max":379,"o":"m 53 -150 l 286 -150 l 286 978 l 53 978 l 53 1064 l 379 1064 l 379 -236 l 53 -236 l 53 -150 z "},"＾":{"ha":1264,"x_min":338,"x_max":926,"o":"m 829 557 l 632 921 l 435 557 l 338 557 l 588 1006 l 678 1006 l 926 557 l 829 557 z "},"＿":{"ha":1264,"x_min":299,"x_max":965,"o":"m 965 -181 l 299 -181 l 299 -104 l 965 -104 l 965 -181 z "},"｀":{"ha":1264,"x_min":488,"x_max":749,"o":"m 660 789 l 488 985 l 603 985 l 749 789 l 660 789 z "},"ａ":{"ha":1264,"x_min":347,"x_max":915,"o":"m 588 -47 q 414 10 481 -47 q 347 167 347 67 l 347 197 q 414 346 347 289 q 611 403 481 403 l 822 403 l 822 472 q 777 598 822 554 q 644 642 732 642 q 528 620 583 642 q 424 565 472 599 l 378 638 q 495 700 431 674 q 646 726 560 726 q 844 664 772 726 q 915 488 915 601 l 915 -36 l 824 -36 l 824 56 l 822 56 q 790 19 811 38 q 739 -15 768 0 q 588 -47 675 -47 m 822 324 l 613 324 q 482 288 522 324 q 442 193 442 251 l 442 171 q 456 109 442 135 q 492 67 469 83 q 544 42 515 50 q 601 35 572 35 q 682 46 646 35 q 751 78 718 57 q 802 126 782 97 q 822 197 822 154 l 822 324 z "},"ｂ":{"ha":1264,"x_min":351,"x_max":967,"o":"m 444 53 l 444 -36 l 351 -36 l 351 1014 l 446 1014 l 446 607 q 539 695 479 664 q 669 726 599 726 q 791 705 736 726 q 885 642 846 683 q 945 542 924 601 q 967 406 967 482 l 967 274 q 944 138 967 197 q 883 37 922 78 q 788 -26 843 -4 q 669 -47 733 -47 q 533 -17 590 -47 q 446 53 476 13 l 444 53 m 872 392 q 816 576 872 513 q 664 640 760 640 q 586 626 625 640 q 516 585 547 613 q 465 520 485 558 q 446 432 446 482 l 446 213 q 462 148 446 179 q 507 92 478 117 q 576 51 536 67 q 664 36 615 36 q 816 102 760 36 q 872 288 872 168 l 872 392 z "},"ｃ":{"ha":1264,"x_min":357,"x_max":933,"o":"m 667 726 q 806 708 746 726 q 913 653 865 689 l 869 579 q 768 628 817 615 q 667 642 719 642 q 510 576 567 642 q 453 392 453 510 l 453 296 q 511 106 453 172 q 669 39 569 39 q 798 60 747 39 q 889 113 849 82 l 933 38 q 888 7 913 22 q 831 -20 863 -8 q 758 -40 799 -32 q 668 -47 718 -47 q 439 42 521 -47 q 357 296 357 132 l 357 389 q 380 534 357 471 q 443 640 403 597 q 540 704 483 682 q 667 726 597 726 z "},"ｄ":{"ha":1264,"x_min":297,"x_max":913,"o":"m 819 63 l 818 63 q 724 -21 786 6 q 596 -47 661 -47 q 476 -26 531 -47 q 382 37 422 -4 q 319 138 342 78 q 297 274 297 197 l 297 406 q 319 542 297 482 q 381 642 342 601 q 476 705 421 683 q 594 726 531 726 q 733 694 678 726 q 818 621 789 663 l 818 1014 l 913 1014 l 913 -36 l 819 -36 l 819 63 m 392 288 q 449 101 392 167 q 600 36 506 36 q 685 48 646 36 q 754 84 725 60 q 801 145 783 108 q 818 232 818 182 l 818 457 q 802 523 818 490 q 757 583 786 556 q 688 626 728 610 q 600 643 647 643 q 448 577 504 643 q 392 392 392 511 l 392 288 z "},"ｅ":{"ha":1264,"x_min":329,"x_max":935,"o":"m 840 388 l 840 400 q 786 581 840 518 q 633 643 732 643 q 478 577 533 643 q 424 400 424 511 l 424 388 l 840 388 m 918 38 q 807 -21 874 6 q 646 -47 740 -47 q 413 42 496 -47 q 329 296 329 132 l 329 389 q 410 638 329 549 q 633 726 492 726 q 858 635 781 726 q 935 386 935 544 l 935 308 l 424 308 l 424 296 q 483 103 424 171 q 647 36 543 36 q 779 58 722 36 q 876 110 836 81 l 918 38 z "},"ｆ":{"ha":1264,"x_min":408,"x_max":856,"o":"m 536 632 l 408 632 l 408 713 l 536 713 l 536 807 q 549 909 536 868 q 585 975 561 950 q 646 1011 610 1000 q 729 1022 682 1022 q 797 1017 760 1022 q 856 1004 833 1013 l 842 926 q 736 940 792 940 q 655 910 679 940 q 631 803 631 879 l 631 713 l 838 713 l 838 632 l 631 632 l 631 -36 l 536 -36 l 536 632 z "},"ｇ":{"ha":1264,"x_min":297,"x_max":913,"o":"m 818 76 l 817 76 q 723 -7 785 19 q 596 -33 661 -33 q 476 -12 531 -33 q 382 51 422 10 q 319 151 342 92 q 297 288 297 211 l 297 406 q 319 542 297 482 q 381 642 342 601 q 476 705 421 683 q 594 726 531 726 q 734 694 678 726 q 819 621 790 663 l 819 713 l 913 713 l 913 -24 q 830 -265 913 -183 q 607 -346 747 -346 q 466 -325 528 -346 q 357 -268 404 -304 l 400 -194 q 450 -224 426 -212 q 498 -244 474 -236 q 549 -254 522 -251 q 607 -257 575 -257 q 765 -201 711 -257 q 818 -26 818 -144 l 818 76 m 392 301 q 449 115 392 181 q 600 50 506 50 q 685 62 646 50 q 754 98 725 74 q 801 159 783 122 q 818 246 818 196 l 818 457 q 802 523 818 490 q 757 583 786 556 q 688 626 728 610 q 600 643 647 643 q 448 577 504 643 q 392 392 392 511 l 392 301 z "},"ｈ":{"ha":1264,"x_min":336,"x_max":928,"o":"m 658 726 q 858 656 788 726 q 928 468 928 586 l 928 -36 l 833 -36 l 833 444 q 825 520 833 485 q 795 583 817 556 q 737 625 774 610 q 644 640 700 640 q 558 623 597 640 q 490 578 518 606 q 447 517 463 550 q 431 450 431 483 l 431 -36 l 336 -36 l 336 1014 l 431 1014 l 431 608 q 464 651 443 629 q 513 689 485 672 q 578 716 542 706 q 658 726 614 726 z "},"ｉ":{"ha":1264,"x_min":581,"x_max":683,"o":"m 585 713 l 679 713 l 679 -36 l 585 -36 l 585 713 m 581 961 l 683 961 l 683 856 l 581 856 l 581 961 z "},"ｊ":{"ha":1264,"x_min":469,"x_max":793,"o":"m 690 961 l 793 961 l 793 856 l 690 856 l 690 961 m 789 -128 q 740 -298 789 -250 q 596 -346 690 -346 q 528 -341 565 -346 q 469 -328 492 -336 l 483 -250 q 589 -264 533 -264 q 670 -232 646 -264 q 694 -124 694 -200 l 694 713 l 789 713 l 789 -128 z "},"ｋ":{"ha":1264,"x_min":328,"x_max":936,"o":"m 610 425 l 936 -36 l 821 -36 l 543 363 l 422 246 l 422 -36 l 328 -36 l 328 1014 l 422 1014 l 422 358 l 783 713 l 910 713 l 610 425 z "},"ｌ":{"ha":1264,"x_min":585,"x_max":679,"o":"m 585 1014 l 679 1014 l 679 -36 l 585 -36 l 585 1014 z "},"ｍ":{"ha":1264,"x_min":131,"x_max":1133,"o":"m 888 726 q 1074 657 1015 726 q 1133 468 1133 588 l 1133 -36 l 1039 -36 l 1039 443 q 1031 525 1039 489 q 1005 587 1024 561 q 953 626 986 613 q 871 640 921 640 q 790 624 825 640 q 731 581 756 607 q 694 521 707 554 q 679 456 681 488 l 679 -36 l 585 -36 l 585 443 q 577 525 585 489 q 551 587 569 561 q 499 626 532 613 q 417 640 467 640 q 335 623 371 640 q 274 578 299 606 q 238 517 250 550 q 225 450 225 483 l 225 -36 l 131 -36 l 131 713 l 224 713 l 224 608 q 255 652 236 631 q 300 690 274 674 q 359 717 326 707 q 433 726 392 726 q 579 691 524 726 q 660 590 635 656 q 692 638 672 614 q 741 682 713 663 q 806 714 769 701 q 888 726 843 726 z "},"ｎ":{"ha":1264,"x_min":336,"x_max":928,"o":"m 658 726 q 858 656 788 726 q 928 468 928 586 l 928 -36 l 833 -36 l 833 444 q 825 520 833 485 q 795 583 817 556 q 737 625 774 610 q 644 640 700 640 q 558 623 597 640 q 490 578 518 606 q 447 517 463 550 q 431 450 431 483 l 431 -36 l 336 -36 l 336 713 l 429 713 l 429 608 q 463 651 442 629 q 513 689 483 672 q 578 716 542 706 q 658 726 614 726 z "},"ｏ":{"ha":1264,"x_min":314,"x_max":950,"o":"m 632 726 q 867 638 783 726 q 950 386 950 549 l 950 293 q 867 42 950 131 q 632 -47 783 -47 q 397 42 481 -47 q 314 293 314 131 l 314 386 q 397 638 314 550 q 632 726 481 726 m 632 36 q 795 101 736 36 q 854 299 854 165 l 854 381 q 795 578 854 514 q 632 643 736 643 q 469 578 528 643 q 410 381 410 514 l 410 299 q 469 101 410 165 q 632 36 528 36 z "},"ｐ":{"ha":1264,"x_min":351,"x_max":967,"o":"m 446 53 l 446 -333 l 351 -333 l 351 713 l 444 713 l 444 607 q 538 695 478 664 q 669 726 599 726 q 791 705 736 726 q 885 642 846 683 q 945 542 924 601 q 967 406 967 482 l 967 274 q 944 138 967 197 q 883 37 922 78 q 788 -26 843 -4 q 669 -47 733 -47 q 534 -17 590 -47 q 447 53 478 13 l 446 53 m 872 392 q 816 576 872 513 q 664 640 760 640 q 586 626 625 640 q 516 585 547 613 q 465 520 485 558 q 446 432 446 482 l 446 213 q 462 148 446 179 q 507 92 478 117 q 576 51 536 67 q 664 36 615 36 q 816 102 760 36 q 872 288 872 168 l 872 392 z "},"ｑ":{"ha":1264,"x_min":297,"x_max":913,"o":"m 818 63 l 817 63 q 723 -21 785 6 q 596 -47 661 -47 q 476 -26 531 -47 q 382 37 422 -4 q 319 138 342 78 q 297 274 297 197 l 297 406 q 319 542 297 482 q 381 642 342 601 q 476 705 421 683 q 594 726 531 726 q 734 694 678 726 q 819 621 790 663 l 819 713 l 913 713 l 913 -333 l 818 -333 l 818 63 m 392 288 q 449 101 392 167 q 600 36 506 36 q 685 48 646 36 q 754 84 725 60 q 801 145 783 108 q 818 232 818 182 l 818 457 q 802 523 818 490 q 757 583 786 556 q 688 626 728 610 q 600 643 647 643 q 448 577 504 643 q 392 392 392 511 l 392 288 z "},"ｒ":{"ha":1264,"x_min":424,"x_max":839,"o":"m 810 615 q 719 631 771 631 q 636 613 674 631 q 572 563 599 594 q 532 486 546 531 q 518 389 518 442 l 518 -36 l 424 -36 l 424 713 l 517 713 l 517 581 q 548 633 529 607 q 594 681 567 660 q 655 714 621 701 q 732 726 689 726 q 790 723 764 726 q 839 711 815 719 l 810 615 z "},"ｓ":{"ha":1264,"x_min":350,"x_max":913,"o":"m 632 38 q 771 74 724 38 q 818 158 818 110 l 818 172 q 772 258 818 229 q 617 308 725 288 q 514 335 560 319 q 436 374 468 350 q 386 430 404 397 q 368 508 368 463 l 368 528 q 385 604 368 568 q 435 667 401 640 q 519 710 468 694 q 639 726 569 726 q 788 705 725 726 q 896 649 850 683 l 853 578 q 757 626 806 610 q 636 643 708 643 q 507 609 551 643 q 463 526 463 575 l 463 511 q 512 435 463 463 q 650 390 561 407 q 851 315 789 364 q 913 176 913 267 l 913 156 q 892 74 913 111 q 834 9 871 36 q 747 -33 797 -18 q 638 -47 697 -47 q 474 -23 546 -47 q 350 40 403 1 l 396 115 q 506 59 447 81 q 632 38 565 38 z "},"ｔ":{"ha":1264,"x_min":408,"x_max":856,"o":"m 536 632 l 408 632 l 408 713 l 536 713 l 536 906 l 631 906 l 631 713 l 838 713 l 838 632 l 631 632 l 631 176 q 655 69 631 100 q 736 39 679 39 q 842 53 792 39 l 856 -25 q 797 -38 833 -33 q 729 -43 760 -43 q 644 -32 681 -43 q 583 4 607 -21 q 548 70 560 29 q 536 172 536 111 l 536 632 z "},"ｕ":{"ha":1264,"x_min":339,"x_max":924,"o":"m 600 -47 q 406 24 472 -47 q 339 211 339 94 l 339 713 l 433 713 l 433 235 q 441 159 433 194 q 468 97 449 124 q 523 54 488 69 q 614 39 558 39 q 701 56 661 39 q 769 99 740 72 q 813 160 797 126 q 829 226 829 193 l 829 713 l 924 713 l 924 -36 l 831 -36 l 831 68 q 747 -11 804 25 q 600 -47 689 -47 z "},"ｖ":{"ha":1264,"x_min":307,"x_max":956,"o":"m 581 -36 l 307 713 l 408 713 l 635 61 l 857 713 l 956 713 l 686 -36 l 581 -36 z "},"ｗ":{"ha":1264,"x_min":136,"x_max":1128,"o":"m 340 -36 l 136 713 l 232 713 l 397 58 l 581 713 l 688 713 l 875 58 l 1036 713 l 1128 713 l 928 -36 l 818 -36 l 632 607 l 450 -36 l 340 -36 z "},"ｘ":{"ha":1264,"x_min":308,"x_max":954,"o":"m 690 351 l 954 -36 l 844 -36 l 632 293 l 413 -36 l 308 -36 l 575 351 l 324 713 l 429 713 l 635 407 l 839 713 l 942 713 l 690 351 z "},"ｙ":{"ha":1264,"x_min":304,"x_max":958,"o":"m 401 713 l 633 69 l 861 713 l 958 713 l 569 -346 l 489 -317 l 585 -49 l 304 713 l 401 713 z "},"ｚ":{"ha":1264,"x_min":338,"x_max":925,"o":"m 906 649 l 449 42 l 925 42 l 925 -36 l 338 -36 l 338 36 l 789 635 l 365 635 l 365 713 l 906 713 l 906 649 z "},"｛":{"ha":1264,"x_min":735,"x_max":1211,"o":"m 735 476 q 847 505 811 478 q 882 592 882 532 l 882 871 q 928 1019 882 974 q 1082 1064 975 1064 l 1211 1064 l 1211 979 l 1094 979 q 1005 959 1035 979 q 975 868 975 939 l 975 601 q 972 550 975 576 q 957 500 968 524 q 924 458 946 476 q 867 431 903 439 q 923 405 901 422 q 956 364 944 388 q 972 313 968 340 q 975 260 975 286 l 975 -49 q 983 -105 975 -85 q 1006 -135 990 -125 q 1043 -149 1021 -146 q 1094 -151 1065 -151 l 1211 -151 l 1211 -236 l 1082 -236 q 928 -194 975 -236 q 882 -51 882 -153 l 882 268 q 847 357 882 329 q 735 386 811 385 l 735 476 z "},"｜":{"ha":1264,"x_min":589,"x_max":674,"o":"m 674 -236 l 589 -236 l 589 1063 l 674 1063 l 674 -236 z "},"｝":{"ha":1264,"x_min":53,"x_max":529,"o":"m 529 386 q 417 357 453 385 q 382 268 382 329 l 382 -51 q 335 -194 382 -153 q 182 -236 289 -236 l 53 -236 l 53 -151 l 169 -151 q 221 -149 199 -151 q 258 -135 243 -146 q 281 -105 274 -125 q 289 -49 289 -85 l 289 260 q 292 313 289 286 q 308 364 296 340 q 340 405 319 388 q 397 431 361 422 q 340 458 361 439 q 307 500 318 476 q 292 550 296 524 q 289 601 289 576 l 289 868 q 259 959 289 939 q 169 979 229 979 l 53 979 l 53 1064 l 182 1064 q 335 1019 289 1064 q 382 871 382 974 l 382 592 q 417 505 382 532 q 529 476 453 478 l 529 386 z "},"‾":{"ha":1264,"x_min":7,"x_max":1257,"o":"m 1257 1004 l 7 1004 l 7 1058 l 1257 1058 l 1257 1004 z "},"ㄱ":{"ha":1264,"x_min":213,"x_max":1011,"o":"m 911 83 l 911 660 l 213 660 l 213 750 l 1011 750 l 1011 83 l 911 83 z "},"ㄲ":{"ha":1264,"x_min":158,"x_max":1074,"o":"m 483 83 l 483 660 l 158 660 l 158 750 l 583 750 l 583 83 l 483 83 m 974 83 l 974 660 l 649 660 l 649 750 l 1074 750 l 1074 83 l 974 83 z "},"ㄳ":{"ha":1264,"x_min":188,"x_max":1193,"o":"m 471 83 l 471 654 l 188 654 l 188 744 l 571 744 l 571 83 l 471 83 m 911 358 q 898 325 910 350 q 858 264 886 300 q 833 231 846 247 q 801 192 819 214 q 758 140 783 169 q 693 68 732 110 l 628 133 q 685 197 661 168 q 730 248 710 225 q 765 291 750 271 q 794 331 781 311 q 829 383 817 361 q 849 426 842 406 q 858 471 856 447 q 860 531 860 494 l 860 756 l 963 756 l 963 531 q 965 471 963 494 q 973 426 967 447 q 992 383 979 406 q 1026 331 1004 361 q 1056 291 1040 311 q 1091 248 1071 271 q 1135 197 1111 225 q 1193 133 1160 168 l 1129 68 q 1065 140 1090 110 q 1021 192 1039 169 q 990 231 1003 214 q 965 264 978 247 q 926 325 938 300 q 913 358 914 350 l 911 358 z "},"ㄴ":{"ha":1264,"x_min":253,"x_max":1064,"o":"m 353 764 l 353 174 l 1064 174 l 1064 83 l 253 83 l 253 764 l 353 764 z "},"ㄵ":{"ha":1264,"x_min":218,"x_max":1114,"o":"m 851 364 q 840 327 849 350 q 807 264 832 304 q 784 229 796 247 q 755 189 772 211 q 713 136 738 167 q 653 64 689 106 l 586 121 q 640 184 617 156 q 681 236 663 213 q 713 281 699 260 q 739 322 726 301 q 769 376 757 353 q 788 420 781 399 q 797 466 794 442 q 799 526 799 490 l 799 669 l 615 669 l 615 754 l 1082 754 l 1082 669 l 900 669 l 900 526 q 903 466 900 490 q 912 420 906 442 q 930 376 918 399 q 961 322 942 353 q 988 281 974 301 q 1019 237 1001 261 q 1060 184 1038 213 q 1114 121 1083 156 l 1049 64 q 989 136 1013 106 q 949 189 965 167 q 920 229 932 211 q 897 264 908 247 q 864 327 872 304 q 853 364 856 350 l 851 364 m 318 160 l 363 160 q 462 163 408 160 q 567 174 515 167 l 575 85 q 461 73 517 76 q 347 69 406 69 l 218 69 l 218 750 l 318 750 l 318 160 z "},"ㄶ":{"ha":1264,"x_min":207,"x_max":1085,"o":"m 1039 260 q 1026 182 1039 219 q 985 115 1013 144 q 917 69 958 86 q 822 51 876 51 q 727 69 768 51 q 659 115 686 86 q 619 182 632 144 q 606 260 606 219 l 606 307 q 619 383 606 346 q 659 450 632 421 q 727 497 686 479 q 822 515 768 515 q 917 497 876 515 q 985 450 958 479 q 1026 383 1013 421 q 1039 307 1039 346 l 1039 260 m 307 160 l 372 160 q 472 163 418 160 q 576 174 525 167 l 585 85 q 471 73 526 76 q 357 69 415 69 l 207 69 l 207 750 l 307 750 l 307 160 m 947 301 q 916 392 947 356 q 822 429 885 429 q 728 392 760 429 q 697 301 697 356 l 697 265 q 728 174 697 211 q 822 138 760 138 q 916 174 885 138 q 947 265 947 211 l 947 301 m 871 658 l 1085 658 l 1085 575 l 560 575 l 560 658 l 774 658 l 774 786 l 871 786 l 871 658 z "},"ㄷ":{"ha":1264,"x_min":239,"x_max":1038,"o":"m 239 81 l 239 753 l 1031 753 l 1031 663 l 339 663 l 339 171 l 1038 171 l 1038 81 l 239 81 z "},"ㄸ":{"ha":1264,"x_min":219,"x_max":1079,"o":"m 219 81 l 219 753 l 601 753 l 601 663 l 319 663 l 319 171 l 606 171 l 606 81 l 219 81 m 676 81 l 676 753 l 1075 753 l 1075 663 l 776 663 l 776 171 l 1079 171 l 1079 81 l 676 81 z "},"ㄹ":{"ha":1264,"x_min":243,"x_max":1067,"o":"m 243 65 l 243 465 l 946 465 l 946 679 l 243 679 l 243 768 l 1046 768 l 1046 376 l 343 376 l 343 154 l 1067 154 l 1067 65 l 243 65 z "},"ㄺ":{"ha":1264,"x_min":201,"x_max":1089,"o":"m 201 82 l 201 461 l 508 461 l 508 665 l 201 665 l 201 754 l 607 754 l 607 375 l 300 375 l 300 171 l 622 171 l 622 82 l 201 82 m 989 82 l 989 664 l 675 664 l 675 754 l 1089 754 l 1089 82 l 989 82 z "},"ㄻ":{"ha":1264,"x_min":188,"x_max":1088,"o":"m 188 81 l 188 461 l 483 461 l 483 665 l 188 665 l 188 754 l 582 754 l 582 375 l 286 375 l 286 169 l 593 169 l 593 81 l 188 81 m 664 81 l 664 754 l 1088 754 l 1088 81 l 664 81 m 988 664 l 764 664 l 764 171 l 988 171 l 988 664 z "},"ㄼ":{"ha":1264,"x_min":188,"x_max":1089,"o":"m 188 81 l 188 461 l 483 461 l 483 665 l 188 665 l 188 754 l 582 754 l 582 375 l 286 375 l 286 169 l 593 169 l 593 81 l 188 81 m 665 81 l 665 754 l 765 754 l 765 511 l 989 511 l 989 754 l 1089 754 l 1089 81 l 665 81 m 989 422 l 765 422 l 765 171 l 989 171 l 989 422 z "},"ㄽ":{"ha":1264,"x_min":190,"x_max":1167,"o":"m 190 81 l 190 461 l 486 461 l 486 665 l 190 665 l 190 754 l 585 754 l 585 375 l 289 375 l 289 169 l 590 169 l 590 81 l 190 81 m 888 360 q 874 325 886 351 q 835 263 863 299 q 810 229 822 246 q 779 191 797 213 q 735 140 761 169 q 672 68 710 110 l 607 133 q 665 197 640 168 q 708 249 689 225 q 742 292 726 272 q 771 332 757 313 q 806 385 793 363 q 825 427 818 407 q 834 471 832 447 q 836 531 836 494 l 836 756 l 939 756 l 939 531 q 941 471 939 494 q 949 427 943 447 q 968 385 956 407 q 1003 332 981 363 q 1032 292 1017 313 q 1066 249 1047 272 q 1109 197 1085 225 q 1167 133 1133 168 l 1103 68 q 1040 140 1065 110 q 997 191 1014 169 q 967 229 979 213 q 942 263 954 246 q 902 325 914 299 q 889 360 890 351 l 888 360 z "},"ㄾ":{"ha":1264,"x_min":183,"x_max":1079,"o":"m 656 81 l 656 754 l 1072 754 l 1072 664 l 756 664 l 756 461 l 1060 461 l 1060 374 l 756 374 l 756 171 l 1079 171 l 1079 81 l 656 81 m 183 81 l 183 461 l 479 461 l 479 665 l 183 665 l 183 754 l 578 754 l 578 375 l 282 375 l 282 169 l 589 169 l 589 81 l 183 81 z "},"ㄿ":{"ha":1264,"x_min":181,"x_max":1082,"o":"m 1076 669 l 994 669 l 994 169 l 1082 169 l 1082 81 l 619 81 l 619 169 l 706 169 l 706 669 l 625 669 l 625 754 l 1076 754 l 1076 669 m 181 81 l 181 461 l 463 461 l 463 665 l 181 665 l 181 754 l 561 754 l 561 375 l 279 375 l 279 169 l 572 169 l 572 81 l 181 81 m 903 169 l 903 669 l 797 669 l 797 169 l 903 169 z "},"ㅀ":{"ha":1264,"x_min":175,"x_max":1099,"o":"m 1060 260 q 1047 182 1060 219 q 1006 115 1033 144 q 938 69 979 86 q 843 51 897 51 q 748 69 789 51 q 680 115 707 86 q 640 182 653 144 q 626 260 626 219 l 626 307 q 640 383 626 346 q 680 450 653 421 q 748 497 707 479 q 843 515 789 515 q 938 497 897 515 q 1006 450 979 479 q 1047 383 1033 421 q 1060 307 1060 346 l 1060 260 m 175 81 l 175 461 l 454 461 l 454 665 l 175 665 l 175 754 l 553 754 l 553 375 l 274 375 l 274 169 l 575 169 l 575 81 l 175 81 m 968 301 q 937 392 968 356 q 843 429 906 429 q 749 392 781 429 q 718 301 718 356 l 718 265 q 749 174 718 211 q 843 138 781 138 q 937 174 906 138 q 968 265 968 211 l 968 301 m 892 658 l 1099 658 l 1099 575 l 593 575 l 593 658 l 794 658 l 794 786 l 892 786 l 892 658 z "},"ㅁ":{"ha":1264,"x_min":232,"x_max":1032,"o":"m 232 81 l 232 756 l 1032 756 l 1032 81 l 232 81 m 932 665 l 332 665 l 332 171 l 932 171 l 932 665 z "},"ㅂ":{"ha":1264,"x_min":232,"x_max":1032,"o":"m 232 79 l 232 768 l 332 768 l 332 510 l 932 510 l 932 768 l 1032 768 l 1032 79 l 232 79 m 932 421 l 332 421 l 332 169 l 932 169 l 932 421 z "},"ㅃ":{"ha":1264,"x_min":192,"x_max":1072,"o":"m 192 81 l 192 767 l 286 767 l 286 504 l 492 504 l 492 767 l 586 767 l 586 81 l 192 81 m 492 417 l 286 417 l 286 169 l 492 169 l 492 417 m 678 81 l 678 767 l 772 767 l 772 504 l 978 504 l 978 767 l 1072 767 l 1072 81 l 678 81 m 978 417 l 772 417 l 772 169 l 978 169 l 978 417 z "},"ㅄ":{"ha":1264,"x_min":182,"x_max":1169,"o":"m 888 358 q 874 325 886 350 q 835 264 863 300 q 809 231 822 247 q 778 192 796 214 q 734 140 760 169 q 669 68 708 110 l 604 133 q 662 197 638 168 q 706 248 686 225 q 742 291 726 271 q 771 331 757 311 q 806 383 793 361 q 825 426 818 406 q 834 471 832 447 q 836 531 836 494 l 836 767 l 939 767 l 939 531 q 941 471 939 494 q 949 426 943 447 q 968 383 956 406 q 1003 331 981 361 q 1032 291 1017 311 q 1067 248 1047 271 q 1112 197 1088 225 q 1169 133 1136 168 l 1106 68 q 1041 140 1067 110 q 997 192 1015 169 q 967 231 979 214 q 942 264 954 247 q 902 325 914 300 q 889 358 890 350 l 888 358 m 182 81 l 182 767 l 279 767 l 279 504 l 492 504 l 492 767 l 589 767 l 589 81 l 182 81 m 492 417 l 279 417 l 279 169 l 492 169 l 492 417 z "},"ㅅ":{"ha":1264,"x_min":172,"x_max":1090,"o":"m 682 615 q 686 528 682 564 q 706 462 690 493 q 755 398 722 431 q 844 321 788 365 q 947 249 889 288 q 1090 157 1006 210 l 1035 78 q 872 188 939 142 q 758 271 804 235 q 674 345 701 315 q 632 399 646 375 l 631 399 q 589 344 617 374 q 504 269 561 314 q 391 187 458 233 q 228 76 324 140 l 172 157 q 315 249 257 210 q 418 321 374 288 q 508 398 475 365 q 556 462 540 431 q 576 528 572 493 q 581 615 581 564 l 581 778 l 682 778 l 682 615 z "},"ㅆ":{"ha":1264,"x_min":81,"x_max":1183,"o":"m 443 781 l 443 572 q 449 471 443 511 q 474 394 454 431 q 532 316 494 358 q 632 207 569 274 q 732 316 694 274 q 790 394 769 358 q 815 471 810 431 q 821 572 821 511 l 821 781 l 917 781 l 917 572 q 926 467 917 511 q 963 377 935 422 q 1044 278 992 332 q 1183 144 1097 224 l 1124 82 q 944 256 1004 186 q 868 361 885 325 l 867 361 q 799 265 856 331 q 632 89 743 199 q 465 265 521 199 q 397 361 408 331 l 396 361 q 319 256 379 325 q 140 82 260 186 l 81 144 q 219 278 167 224 q 301 377 272 332 q 338 467 329 422 q 347 572 347 511 l 347 781 l 443 781 z "},"ㅇ":{"ha":1264,"x_min":236,"x_max":1028,"o":"m 236 458 q 266 583 236 525 q 349 683 296 640 q 475 749 403 725 q 632 774 547 774 q 789 749 717 774 q 914 683 861 725 q 997 583 967 640 q 1028 458 1028 525 l 1028 390 q 997 266 1028 324 q 914 166 967 208 q 789 99 861 124 q 632 75 717 75 q 475 99 547 75 q 349 166 403 124 q 266 266 296 208 q 236 390 236 324 l 236 458 m 632 685 q 508 667 564 685 q 413 617 453 649 q 352 544 374 586 q 331 454 331 501 l 331 394 q 352 305 331 347 q 413 231 374 263 q 508 182 453 200 q 632 164 564 164 q 756 182 700 164 q 851 231 811 200 q 912 305 890 263 q 933 394 933 347 l 933 454 q 912 544 933 501 q 851 617 890 586 q 756 667 811 649 q 632 685 700 685 z "},"ㅈ":{"ha":1264,"x_min":172,"x_max":1090,"o":"m 222 765 l 1042 765 l 1042 681 l 682 681 l 682 611 q 686 524 682 560 q 706 458 690 489 q 755 394 722 426 q 844 317 788 361 q 947 244 889 283 q 1090 153 1006 206 l 1035 74 q 872 184 939 138 q 758 267 804 231 q 674 341 701 311 q 632 394 646 371 l 631 394 q 589 340 617 369 q 504 265 561 310 q 391 183 458 229 q 228 72 324 136 l 172 153 q 315 244 257 206 q 418 317 374 283 q 508 394 475 361 q 556 458 540 426 q 576 524 572 489 q 581 611 581 560 l 581 681 l 222 681 l 222 765 z "},"ㅉ":{"ha":1264,"x_min":108,"x_max":1156,"o":"m 174 765 l 1090 765 l 1090 681 l 903 681 l 903 572 q 908 476 903 517 q 939 394 914 436 q 1015 297 964 351 q 1156 158 1065 243 l 1096 96 q 995 190 1038 149 q 924 263 953 231 q 879 319 896 294 q 854 361 863 343 l 853 361 q 833 325 847 346 q 792 273 818 304 q 727 200 767 242 q 632 103 688 158 q 537 200 576 158 q 472 273 497 242 q 431 325 446 304 q 411 361 417 346 l 410 361 q 385 319 401 343 q 340 263 368 294 q 269 189 311 231 q 168 96 226 147 l 108 158 q 249 297 199 243 q 325 394 300 351 q 356 476 350 436 q 361 572 361 517 l 361 681 l 174 681 l 174 765 m 457 572 q 460 481 457 517 q 481 410 464 444 q 534 332 499 375 q 632 221 569 289 q 730 332 694 289 q 783 410 765 375 q 803 481 800 444 q 807 572 807 517 l 807 681 l 457 681 l 457 572 z "},"ㅊ":{"ha":1264,"x_min":176,"x_max":1086,"o":"m 682 696 l 1057 696 l 1057 610 l 682 610 q 686 524 682 560 q 706 456 690 488 q 755 392 722 425 q 844 317 788 360 q 945 246 889 283 q 1086 156 1001 208 l 1031 76 q 869 185 935 140 q 758 267 804 231 q 674 341 701 311 q 632 394 646 371 l 631 394 q 589 340 617 369 q 504 265 561 310 q 393 184 458 229 q 232 75 328 139 l 176 156 q 317 246 261 208 q 418 317 374 283 q 508 392 475 360 q 556 456 540 425 q 576 524 572 488 q 581 610 581 560 l 207 610 l 207 696 l 581 696 l 581 868 l 682 868 l 682 696 z "},"ㅋ":{"ha":1264,"x_min":208,"x_max":1028,"o":"m 925 451 l 925 676 l 226 676 l 226 767 l 1028 767 l 1028 71 l 925 71 l 925 368 l 211 354 l 208 442 l 925 451 z "},"ㅌ":{"ha":1264,"x_min":240,"x_max":1057,"o":"m 1057 78 l 240 78 l 240 756 l 1046 756 l 1046 665 l 342 665 l 342 463 l 1031 463 l 1031 372 l 342 372 l 342 168 l 1057 168 l 1057 78 z "},"ㅍ":{"ha":1264,"x_min":183,"x_max":1081,"o":"m 1068 750 l 1068 665 l 883 665 l 883 164 l 1081 164 l 1081 79 l 183 79 l 183 164 l 381 164 l 381 665 l 196 665 l 196 750 l 1068 750 m 478 164 l 786 164 l 786 665 l 478 665 l 478 164 z "},"ㅎ":{"ha":1264,"x_min":203,"x_max":1061,"o":"m 632 24 q 488 40 553 24 q 376 85 424 56 q 303 156 329 114 q 278 253 278 199 l 278 300 q 303 395 278 353 q 376 467 329 438 q 488 513 424 497 q 632 529 553 529 q 776 513 711 529 q 888 467 840 497 q 960 395 935 438 q 986 300 986 353 l 986 253 q 960 156 986 199 q 888 85 935 114 q 776 40 840 56 q 632 24 711 24 m 632 443 q 440 402 507 443 q 374 293 374 361 l 374 260 q 440 151 374 192 q 632 110 507 110 q 824 151 757 110 q 890 260 890 192 l 890 293 q 824 402 890 361 q 632 443 757 443 m 682 694 l 1061 694 l 1061 610 l 203 610 l 203 694 l 582 694 l 582 868 l 682 868 l 682 694 z "},"ㅏ":{"ha":1264,"x_min":546,"x_max":922,"o":"m 644 554 l 922 554 l 922 467 l 644 467 l 644 -189 l 546 -189 l 546 1081 l 644 1081 l 644 554 z "},"ㅐ":{"ha":1264,"x_min":429,"x_max":835,"o":"m 526 554 l 738 554 l 738 1081 l 835 1081 l 835 -189 l 738 -189 l 738 467 l 526 467 l 526 -126 l 429 -126 l 429 1054 l 526 1054 l 526 554 z "},"ㅑ":{"ha":1264,"x_min":546,"x_max":908,"o":"m 644 706 l 908 706 l 908 618 l 644 618 l 644 390 l 908 390 l 908 303 l 644 303 l 644 -189 l 546 -189 l 546 1081 l 644 1081 l 644 706 z "},"ㅒ":{"ha":1264,"x_min":429,"x_max":835,"o":"m 526 706 l 738 706 l 738 1081 l 835 1081 l 835 -189 l 738 -189 l 738 303 l 526 303 l 526 -126 l 429 -126 l 429 1054 l 526 1054 l 526 706 m 526 390 l 738 390 l 738 618 l 526 618 l 526 390 z "},"ㅓ":{"ha":1264,"x_min":454,"x_max":832,"o":"m 832 -189 l 735 -189 l 735 467 l 454 467 l 454 554 l 735 554 l 735 1081 l 832 1081 l 832 -189 z "},"ㅔ":{"ha":1264,"x_min":353,"x_max":926,"o":"m 599 554 l 599 1054 l 696 1054 l 696 -126 l 599 -126 l 599 467 l 353 467 l 353 554 l 599 554 m 926 -189 l 829 -189 l 829 1081 l 926 1081 l 926 -189 z "},"ㅕ":{"ha":1264,"x_min":469,"x_max":832,"o":"m 733 706 l 733 1081 l 832 1081 l 832 -189 l 733 -189 l 733 303 l 469 303 l 469 390 l 733 390 l 733 618 l 469 618 l 469 706 l 733 706 z "},"ㅖ":{"ha":1264,"x_min":353,"x_max":926,"o":"m 599 711 l 599 1054 l 696 1054 l 696 -126 l 599 -126 l 599 308 l 353 308 l 353 396 l 599 396 l 599 624 l 353 624 l 353 711 l 599 711 m 926 -189 l 829 -189 l 829 1081 l 926 1081 l 926 -189 z "},"ㅗ":{"ha":1264,"x_min":49,"x_max":1215,"o":"m 681 189 l 1215 189 l 1215 104 l 49 104 l 49 189 l 583 189 l 583 675 l 681 675 l 681 189 z "},"ㅘ":{"ha":1264,"x_min":39,"x_max":1249,"o":"m 1047 583 l 1249 583 l 1249 496 l 1047 496 l 1047 -189 l 949 -189 l 949 1081 l 1047 1081 l 1047 583 m 860 117 q 694 102 774 108 q 523 92 615 96 q 315 86 431 88 q 39 85 199 85 l 39 171 q 222 171 139 171 q 378 174 306 171 l 378 560 l 476 560 l 476 175 q 673 185 585 179 q 851 201 761 190 l 860 117 z "},"ㅙ":{"ha":1264,"x_min":68,"x_max":1168,"o":"m 913 572 l 1071 572 l 1071 1081 l 1168 1081 l 1168 -189 l 1071 -189 l 1071 489 l 913 489 l 913 -154 l 815 -154 l 815 1058 l 913 1058 l 913 572 m 442 197 q 590 202 518 200 q 744 210 661 204 l 749 126 q 606 119 678 122 q 453 114 535 115 q 278 112 372 113 q 68 111 183 111 l 68 196 l 343 196 l 343 560 l 442 560 l 442 197 z "},"ㅚ":{"ha":1264,"x_min":81,"x_max":1118,"o":"m 1118 -189 l 1019 -189 l 1019 1081 l 1118 1081 l 1118 -189 m 531 175 q 738 185 644 179 q 922 201 832 190 l 931 117 q 760 102 844 108 q 578 92 676 96 q 360 86 481 88 q 81 85 240 85 l 81 171 q 269 171 182 171 q 432 174 356 171 l 432 560 l 531 560 l 531 175 z "},"ㅛ":{"ha":1264,"x_min":49,"x_max":1215,"o":"m 871 189 l 1215 189 l 1215 104 l 49 104 l 49 189 l 393 189 l 393 675 l 490 675 l 490 189 l 774 189 l 774 675 l 871 675 l 871 189 z "},"ㅜ":{"ha":1264,"x_min":49,"x_max":1215,"o":"m 1215 440 l 1215 356 l 681 356 l 681 -137 l 583 -137 l 583 356 l 49 356 l 49 440 l 1215 440 z "},"ㅝ":{"ha":1264,"x_min":75,"x_max":1111,"o":"m 1013 203 l 1013 1081 l 1111 1081 l 1111 -189 l 1013 -189 l 1013 115 l 707 115 l 707 203 l 1013 203 m 924 386 q 731 370 826 376 q 517 360 636 364 l 517 -149 l 417 -149 l 417 357 q 259 355 343 356 q 75 354 175 354 l 75 440 q 349 442 225 440 q 576 448 474 444 q 762 457 678 451 q 915 471 846 463 l 924 386 z "},"ㅞ":{"ha":1264,"x_min":47,"x_max":1147,"o":"m 811 232 l 811 1058 l 908 1058 l 908 -154 l 811 -154 l 811 146 l 579 146 l 579 232 l 811 232 m 1147 -189 l 1050 -189 l 1050 1081 l 1147 1081 l 1147 -189 m 729 360 q 589 352 661 356 q 432 347 517 349 l 432 -107 l 333 -107 l 333 346 q 199 344 269 344 q 47 344 128 344 l 47 431 q 266 431 174 431 q 435 433 358 432 q 579 438 511 435 q 725 444 647 440 l 729 360 z "},"ㅟ":{"ha":1264,"x_min":75,"x_max":1111,"o":"m 1111 -189 l 1013 -189 l 1013 1081 l 1111 1081 l 1111 -189 m 924 343 q 735 328 829 333 q 526 318 640 322 l 526 -149 l 426 -149 l 426 314 q 265 312 351 313 q 75 311 179 311 l 75 397 q 349 399 225 397 q 576 405 474 401 q 762 414 678 408 q 915 428 846 419 l 924 343 z "},"ㅠ":{"ha":1264,"x_min":49,"x_max":1215,"o":"m 871 356 l 871 -137 l 774 -137 l 774 356 l 490 356 l 490 -137 l 393 -137 l 393 356 l 49 356 l 49 440 l 1215 440 l 1215 356 l 871 356 z "},"ㅡ":{"ha":1264,"x_min":49,"x_max":1215,"o":"m 1215 231 l 1215 146 l 49 146 l 49 231 l 1215 231 z "},"ㅢ":{"ha":1264,"x_min":81,"x_max":1118,"o":"m 1118 -189 l 1019 -189 l 1019 1081 l 1118 1081 l 1118 -189 m 931 164 q 760 149 844 156 q 578 139 676 143 q 360 133 481 135 q 81 132 240 132 l 81 218 q 352 219 232 218 q 572 224 472 221 q 757 234 672 228 q 922 249 842 240 l 931 164 z "},"ㅣ":{"ha":1264,"x_min":582,"x_max":681,"o":"m 681 -189 l 582 -189 l 582 1081 l 681 1081 l 681 -189 z "},"ㅥ":{"ha":1264,"x_min":208,"x_max":1054,"o":"m 308 750 l 308 174 l 590 174 l 590 83 l 208 83 l 208 750 l 308 750 m 751 750 l 751 174 l 1054 174 l 1054 83 l 651 83 l 651 750 l 751 750 z "},"ㅦ":{"ha":1264,"x_min":208,"x_max":1056,"o":"m 308 750 l 308 174 l 586 174 l 586 83 l 208 83 l 208 750 l 308 750 m 650 83 l 650 751 l 1042 751 l 1042 661 l 750 661 l 750 174 l 1056 174 l 1056 83 l 650 83 z "},"ㅧ":{"ha":1264,"x_min":147,"x_max":1114,"o":"m 247 750 l 247 174 l 536 174 l 536 83 l 147 83 l 147 750 l 247 750 m 832 353 q 819 319 831 344 q 779 258 807 294 q 753 225 767 242 q 722 186 740 208 q 678 134 704 164 q 614 63 653 104 l 549 128 q 606 191 582 163 q 651 242 631 219 q 686 285 671 265 q 715 325 701 306 q 750 378 738 356 q 769 421 763 400 q 778 465 776 442 q 781 525 781 489 l 781 750 l 883 750 l 883 525 q 885 465 883 489 q 894 421 888 442 q 913 378 900 400 q 947 325 925 356 q 976 285 961 306 q 1012 242 992 265 q 1056 191 1032 219 q 1114 128 1081 163 l 1050 63 q 985 134 1011 104 q 942 186 960 164 q 911 225 924 208 q 886 258 899 242 q 847 319 858 294 q 833 353 835 344 l 832 353 z "},"ㅨ":{"ha":1264,"x_min":181,"x_max":1082,"o":"m 281 750 l 281 174 l 569 174 l 569 83 l 181 83 l 181 750 l 281 750 m 1082 83 l 603 83 l 842 807 l 1082 83 m 960 171 l 842 546 l 724 171 l 960 171 z "},"ㅩ":{"ha":1264,"x_min":64,"x_max":1200,"o":"m 740 156 q 828 273 796 225 q 879 363 860 321 q 899 409 892 390 q 908 444 906 428 q 911 481 911 461 q 911 528 911 500 l 911 756 l 1011 756 l 1011 528 q 1011 481 1011 500 q 1014 444 1011 461 q 1024 409 1017 428 q 1043 363 1031 390 q 1099 265 1064 318 q 1200 133 1135 211 l 1138 74 q 1078 149 1101 118 q 1038 203 1054 181 q 1011 244 1022 226 q 990 279 1000 261 q 972 313 979 299 q 963 339 965 328 q 935 279 956 315 q 913 244 924 261 q 887 203 903 226 q 847 149 871 181 q 788 74 824 118 l 740 117 l 740 82 l 642 82 l 642 668 l 422 668 l 422 758 l 740 758 l 740 156 m 64 82 l 64 463 l 279 463 l 279 669 l 64 669 l 64 758 l 378 758 l 378 376 l 163 376 l 163 171 l 428 171 l 428 82 l 64 82 z "},"ㅪ":{"ha":1264,"x_min":204,"x_max":1060,"o":"m 204 81 l 204 461 l 503 461 l 503 665 l 204 665 l 204 754 l 601 754 l 601 375 l 303 375 l 303 169 l 613 169 l 613 81 l 204 81 m 671 83 l 671 751 l 1046 751 l 1046 661 l 771 661 l 771 174 l 1060 174 l 1060 83 l 671 83 z "},"ㅫ":{"ha":1264,"x_min":90,"x_max":1172,"o":"m 443 81 l 443 767 l 539 767 l 539 499 l 674 499 l 674 767 l 769 767 l 769 156 q 846 279 818 226 q 893 372 874 332 q 910 441 908 404 q 911 535 911 478 l 911 756 l 1011 756 l 1011 535 q 1013 441 1011 478 q 1029 372 1014 404 q 1082 268 1050 328 q 1172 128 1114 208 l 1107 74 q 1063 136 1081 110 q 1033 184 1046 163 q 1009 224 1019 206 q 988 264 999 243 q 971 297 976 283 q 963 322 965 311 q 953 297 960 311 q 938 264 947 283 q 916 224 926 243 q 892 184 906 206 q 862 136 879 163 q 818 74 844 110 l 769 113 l 769 81 l 443 81 m 90 82 l 90 463 l 278 463 l 278 669 l 90 669 l 90 758 l 376 758 l 376 376 l 189 376 l 189 171 l 400 171 l 400 82 l 90 82 m 674 413 l 539 413 l 539 168 l 674 168 l 674 413 z "},"ㅬ":{"ha":1264,"x_min":183,"x_max":1079,"o":"m 1079 83 l 600 83 l 839 807 l 1079 83 m 957 171 l 839 546 l 721 171 l 957 171 m 183 83 l 183 461 l 469 461 l 469 665 l 183 665 l 183 754 l 568 754 l 568 375 l 282 375 l 282 172 l 590 172 l 590 83 l 183 83 z "},"ㅭ":{"ha":1264,"x_min":188,"x_max":1076,"o":"m 188 83 l 188 461 l 485 461 l 485 665 l 188 665 l 188 754 l 583 754 l 583 375 l 286 375 l 286 172 l 618 172 l 618 83 l 188 83 m 1076 665 l 640 665 l 640 754 l 1076 754 l 1076 665 m 1076 265 q 1063 188 1076 225 q 1023 121 1050 150 q 955 74 996 92 q 860 57 914 57 q 765 74 806 57 q 697 121 724 92 q 656 188 669 150 q 643 265 643 225 l 643 313 q 656 389 643 351 q 697 456 669 426 q 765 503 724 485 q 860 521 806 521 q 955 503 914 521 q 1023 456 996 485 q 1063 389 1050 426 q 1076 313 1076 351 l 1076 265 m 985 307 q 953 398 985 361 q 860 435 922 435 q 766 398 797 435 q 735 307 735 361 l 735 271 q 766 180 735 217 q 860 143 797 143 q 953 180 922 143 q 985 271 985 217 l 985 307 z "},"ㅮ":{"ha":1264,"x_min":201,"x_max":1061,"o":"m 665 81 l 665 754 l 764 754 l 764 511 l 963 511 l 963 754 l 1061 754 l 1061 81 l 665 81 m 963 422 l 764 422 l 764 171 l 963 171 l 963 422 m 201 81 l 201 754 l 593 754 l 593 81 l 201 81 m 494 664 l 300 664 l 300 171 l 494 171 l 494 664 z "},"ㅯ":{"ha":1264,"x_min":149,"x_max":1126,"o":"m 149 81 l 149 754 l 551 754 l 551 81 l 149 81 m 453 664 l 247 664 l 247 171 l 453 171 l 453 664 m 844 350 q 831 318 843 342 q 792 258 819 294 q 766 225 779 242 q 735 186 753 208 q 691 134 717 164 q 626 63 665 104 l 561 128 q 619 191 594 163 q 663 242 643 219 q 699 285 683 265 q 728 325 714 306 q 763 378 750 356 q 782 421 775 400 q 791 465 789 442 q 793 525 793 489 l 793 750 l 896 750 l 896 525 q 898 465 896 489 q 906 421 900 442 q 925 378 913 400 q 960 325 938 356 q 989 285 974 306 q 1024 242 1004 265 q 1069 191 1044 219 q 1126 128 1093 163 l 1063 63 q 998 134 1024 104 q 954 186 972 164 q 924 225 936 208 q 899 258 911 242 q 859 318 871 294 q 846 350 847 342 l 844 350 z "},"ㅰ":{"ha":1264,"x_min":178,"x_max":1086,"o":"m 1086 83 l 607 83 l 846 807 l 1086 83 m 964 171 l 846 546 l 728 171 l 964 171 m 178 81 l 178 754 l 581 754 l 581 81 l 178 81 m 482 664 l 276 664 l 276 171 l 482 171 l 482 664 z "},"ㅱ":{"ha":1264,"x_min":315,"x_max":947,"o":"m 315 407 l 315 911 l 947 911 l 947 407 l 315 407 m 849 822 l 414 822 l 414 496 l 849 496 l 849 822 m 857 121 q 842 62 857 92 q 800 9 828 32 q 730 -28 772 -14 q 632 -43 688 -43 q 535 -28 576 -43 q 465 9 493 -14 q 422 62 436 32 q 408 121 408 92 l 408 160 q 422 219 408 189 q 465 272 436 249 q 535 309 493 294 q 632 324 576 324 q 730 309 688 324 q 800 272 772 294 q 842 219 828 249 q 857 160 857 189 l 857 121 m 757 154 q 722 217 757 194 q 632 240 688 240 q 543 217 578 240 q 508 154 508 194 l 508 126 q 543 63 508 86 q 632 40 578 40 q 722 63 688 40 q 757 126 757 86 l 757 154 z "},"ㅲ":{"ha":1264,"x_min":200,"x_max":1064,"o":"m 200 82 l 200 754 l 299 754 l 299 503 l 508 503 l 508 754 l 607 754 l 607 82 l 200 82 m 508 414 l 299 414 l 299 172 l 508 172 l 508 414 m 965 81 l 965 664 l 665 664 l 665 754 l 1064 754 l 1064 81 l 965 81 z "},"ㅳ":{"ha":1264,"x_min":213,"x_max":1050,"o":"m 213 82 l 213 754 l 311 754 l 311 503 l 501 503 l 501 754 l 600 754 l 600 82 l 213 82 m 501 414 l 311 414 l 311 172 l 501 172 l 501 414 m 676 83 l 676 751 l 1036 751 l 1036 661 l 776 661 l 776 174 l 1050 174 l 1050 83 l 676 83 z "},"ㅴ":{"ha":1264,"x_min":126,"x_max":1136,"o":"m 453 156 q 540 273 508 225 q 592 363 572 321 q 611 409 604 390 q 621 444 618 428 q 624 481 624 461 q 624 528 624 500 l 624 756 l 724 756 l 724 528 q 724 481 724 500 q 726 444 724 461 q 736 409 729 428 q 756 363 743 390 q 812 265 776 318 q 913 133 847 211 l 850 74 q 790 149 814 118 q 751 203 767 181 q 724 244 735 226 q 703 279 713 261 q 685 313 692 299 q 675 339 678 328 q 647 279 668 315 q 626 244 636 261 q 599 203 615 226 q 560 149 583 181 q 500 74 536 118 l 453 117 l 453 81 l 126 81 l 126 754 l 222 754 l 222 499 l 357 499 l 357 754 l 453 754 l 453 156 m 1038 82 l 1038 664 l 814 664 l 814 754 l 1136 754 l 1136 82 l 1038 82 m 357 413 l 222 413 l 222 168 l 357 168 l 357 413 z "},"ㅵ":{"ha":1264,"x_min":126,"x_max":1138,"o":"m 453 149 q 532 276 503 221 q 581 372 561 331 q 597 441 596 404 q 599 535 599 478 l 599 756 l 699 756 l 699 535 q 700 441 699 478 q 717 372 701 404 q 766 274 736 329 q 847 144 796 219 l 847 754 l 1122 754 l 1122 664 l 947 664 l 947 174 l 1138 174 l 1138 83 l 847 83 l 847 117 l 794 74 q 751 136 768 110 q 720 184 733 163 q 697 224 707 206 q 675 264 686 243 q 658 297 664 283 q 650 322 653 311 q 641 297 647 311 q 625 264 635 283 q 603 224 614 243 q 580 184 593 206 q 549 136 567 163 q 506 74 532 110 l 453 115 l 453 81 l 126 81 l 126 754 l 222 754 l 222 499 l 357 499 l 357 754 l 453 754 l 453 149 m 357 168 l 357 413 l 222 413 l 222 168 l 357 168 z "},"ㅶ":{"ha":1264,"x_min":168,"x_max":1100,"o":"m 168 81 l 168 754 l 267 754 l 267 503 l 467 503 l 467 754 l 565 754 l 565 81 l 168 81 m 844 361 q 833 328 842 347 q 799 264 824 308 q 776 228 788 246 q 749 188 765 211 q 710 135 733 165 q 653 64 688 106 l 586 121 q 676 236 643 192 q 732 322 708 281 q 762 378 750 356 q 781 422 774 400 q 790 467 788 443 q 792 526 792 490 l 792 669 l 622 669 l 622 754 l 1061 754 l 1061 669 l 893 669 l 893 526 q 896 467 893 490 q 905 422 899 443 q 923 378 911 400 q 954 322 935 356 q 1010 237 976 282 q 1100 121 1043 192 l 1035 64 q 978 135 1001 106 q 940 188 956 165 q 913 228 924 211 q 892 264 901 246 q 858 328 867 308 q 846 361 849 347 l 844 361 m 467 414 l 267 414 l 267 171 l 467 171 l 467 414 z "},"ㅷ":{"ha":1264,"x_min":211,"x_max":1051,"o":"m 599 82 l 211 82 l 211 754 l 310 754 l 310 503 l 500 503 l 500 754 l 599 754 l 599 82 m 500 172 l 500 414 l 310 414 l 310 172 l 500 172 m 1029 372 l 776 372 l 776 172 l 1051 172 l 1051 82 l 678 82 l 678 751 l 1038 751 l 1038 661 l 776 661 l 776 463 l 1029 463 l 1029 372 z "},"ㅸ":{"ha":1264,"x_min":315,"x_max":947,"o":"m 315 419 l 315 921 l 414 921 l 414 761 l 849 761 l 849 921 l 947 921 l 947 419 l 315 419 m 849 672 l 414 672 l 414 510 l 849 510 l 849 672 m 857 121 q 842 62 857 92 q 800 9 828 32 q 730 -28 772 -14 q 632 -43 688 -43 q 535 -28 576 -43 q 465 9 493 -14 q 422 62 436 32 q 408 121 408 92 l 408 160 q 422 219 408 189 q 465 272 436 249 q 535 309 493 294 q 632 324 576 324 q 730 309 688 324 q 800 272 772 294 q 842 219 828 249 q 857 160 857 189 l 857 121 m 757 154 q 722 217 757 194 q 632 240 688 240 q 543 217 578 240 q 508 154 508 194 l 508 126 q 543 63 508 86 q 632 40 578 40 q 722 63 688 40 q 757 126 757 86 l 757 154 z "},"ㅹ":{"ha":1264,"x_min":276,"x_max":986,"o":"m 276 404 l 276 899 l 368 899 l 368 731 l 508 731 l 508 899 l 600 899 l 600 404 l 276 404 m 508 646 l 368 646 l 368 490 l 508 490 l 508 646 m 663 404 l 663 899 l 754 899 l 754 731 l 894 731 l 894 899 l 986 899 l 986 404 l 663 404 m 894 646 l 754 646 l 754 490 l 894 490 l 894 646 m 857 121 q 842 62 857 92 q 800 9 828 32 q 730 -28 772 -14 q 632 -43 688 -43 q 535 -28 576 -43 q 465 9 493 -14 q 422 62 436 32 q 408 121 408 92 l 408 160 q 422 219 408 189 q 465 272 436 249 q 535 309 493 294 q 632 324 576 324 q 730 309 688 324 q 800 272 772 294 q 842 219 828 249 q 857 160 857 189 l 857 121 m 757 154 q 722 217 757 194 q 632 240 688 240 q 543 217 578 240 q 508 154 508 194 l 508 126 q 543 63 508 86 q 632 40 578 40 q 722 63 688 40 q 757 126 757 86 l 757 154 z "},"ㅺ":{"ha":1264,"x_min":185,"x_max":1081,"o":"m 981 83 l 981 661 l 658 661 l 658 751 l 1081 751 l 1081 83 l 981 83 m 468 358 q 455 325 467 350 q 415 264 443 300 q 390 231 403 247 q 358 192 376 214 q 315 140 340 169 q 250 68 289 110 l 185 133 q 242 197 218 168 q 287 248 267 225 q 322 291 307 271 q 351 331 338 311 q 386 383 374 361 q 406 426 399 406 q 415 471 413 447 q 417 531 417 494 l 417 756 l 519 756 l 519 531 q 522 471 519 494 q 530 426 524 447 q 549 383 536 406 q 583 331 561 361 q 613 291 597 311 q 648 248 628 271 q 692 197 668 225 q 750 133 717 168 l 686 68 q 622 140 647 110 q 578 192 596 169 q 547 231 560 214 q 522 264 535 247 q 483 325 494 300 q 469 358 471 350 l 468 358 z "},"ㅻ":{"ha":1264,"x_min":149,"x_max":1114,"o":"m 425 358 q 412 326 424 350 q 372 264 400 303 q 348 231 360 247 q 319 192 336 214 q 278 140 303 169 q 214 68 253 110 l 149 129 q 206 192 182 164 q 248 245 229 221 q 281 290 267 269 q 308 331 294 311 q 343 385 331 364 q 363 428 356 407 q 372 472 369 449 q 374 531 374 494 l 374 750 l 476 750 l 476 531 q 478 472 476 494 q 487 428 481 449 q 506 385 493 407 q 540 331 518 364 q 568 290 554 311 q 601 245 582 269 q 643 192 619 221 q 700 129 667 164 l 636 68 q 572 140 597 110 q 531 192 547 169 q 503 231 514 214 q 479 264 492 247 q 440 326 451 303 q 426 358 428 350 l 425 358 m 814 750 l 814 174 l 1114 174 l 1114 83 l 714 83 l 714 750 l 814 750 z "},"ㅼ":{"ha":1264,"x_min":149,"x_max":1110,"o":"m 715 83 l 715 751 l 1096 751 l 1096 661 l 815 661 l 815 174 l 1110 174 l 1110 83 l 715 83 m 425 358 q 412 326 424 350 q 372 264 400 303 q 348 231 360 247 q 319 192 336 214 q 278 140 303 169 q 214 68 253 110 l 149 129 q 206 192 182 164 q 248 245 229 221 q 281 290 267 269 q 308 331 294 311 q 343 385 331 364 q 363 428 356 407 q 372 472 369 449 q 374 531 374 494 l 374 750 l 476 750 l 476 531 q 478 472 476 494 q 487 428 481 449 q 506 385 493 407 q 540 331 518 364 q 568 290 554 311 q 601 245 582 269 q 643 192 619 221 q 700 129 667 164 l 636 68 q 572 140 597 110 q 531 192 547 169 q 503 231 514 214 q 479 264 492 247 q 440 326 451 303 q 426 358 428 350 l 425 358 z "},"ㅽ":{"ha":1264,"x_min":149,"x_max":1107,"o":"m 710 81 l 710 754 l 808 754 l 808 503 l 1008 503 l 1008 754 l 1107 754 l 1107 81 l 710 81 m 1008 414 l 808 414 l 808 171 l 1008 171 l 1008 414 m 425 358 q 412 326 424 350 q 372 264 400 303 q 348 231 360 247 q 319 192 336 214 q 278 140 303 169 q 214 68 253 110 l 149 129 q 206 192 182 164 q 248 245 229 221 q 281 290 267 269 q 308 331 294 311 q 343 385 331 364 q 363 428 356 407 q 372 472 369 449 q 374 531 374 494 l 374 750 l 476 750 l 476 531 q 478 472 476 494 q 487 428 481 449 q 506 385 493 407 q 540 331 518 364 q 568 290 554 311 q 601 245 582 269 q 643 192 619 221 q 700 129 667 164 l 636 68 q 572 140 597 110 q 531 192 547 169 q 503 231 514 214 q 479 264 492 247 q 440 326 451 303 q 426 358 428 350 l 425 358 z "},"ㅾ":{"ha":1264,"x_min":149,"x_max":1114,"o":"m 425 358 q 412 326 424 350 q 372 264 400 303 q 348 231 360 247 q 319 192 336 214 q 278 140 303 169 q 214 68 253 110 l 149 129 q 206 192 182 164 q 248 245 229 221 q 281 290 267 269 q 308 331 294 311 q 343 385 331 364 q 363 428 356 407 q 372 472 369 449 q 374 531 374 494 l 374 750 l 476 750 l 476 531 q 478 472 476 494 q 487 428 481 449 q 506 385 493 407 q 540 331 518 364 q 584 266 560 300 q 644 192 608 232 q 698 260 676 231 q 739 322 719 290 q 769 376 757 353 q 788 420 781 399 q 797 466 794 442 q 799 526 799 490 l 799 669 l 615 669 l 615 754 l 1082 754 l 1082 669 l 900 669 l 900 526 q 903 466 900 490 q 912 420 906 442 q 930 376 918 399 q 961 322 942 353 q 988 281 974 301 q 1019 237 1001 261 q 1060 184 1038 213 q 1114 121 1083 156 l 1049 64 q 989 136 1013 106 q 949 189 965 167 q 920 229 932 211 q 897 264 908 247 q 864 327 872 304 q 853 364 856 350 l 851 364 q 837 325 849 350 q 800 260 825 300 q 772 219 789 243 q 735 168 756 194 q 692 115 715 142 q 647 64 669 88 l 646 64 q 547 176 592 121 q 479 264 503 231 q 440 326 451 303 q 426 358 428 350 l 425 358 z "},"ㅿ":{"ha":1264,"x_min":315,"x_max":949,"o":"m 949 94 l 315 94 l 631 856 l 949 94 m 806 179 l 631 621 l 460 179 l 806 179 z "},"ㆀ":{"ha":1264,"x_min":147,"x_max":1114,"o":"m 372 63 q 203 144 258 63 q 147 372 147 225 l 147 463 q 203 691 147 610 q 372 772 258 772 q 544 691 489 772 q 600 463 600 610 l 600 372 q 544 144 600 225 q 372 63 489 63 m 372 682 q 272 619 303 682 q 242 450 242 556 l 242 385 q 272 216 242 279 q 372 153 303 153 q 474 216 443 153 q 506 385 506 279 l 506 450 q 474 619 506 556 q 372 682 443 682 m 886 63 q 717 144 772 63 q 661 372 661 225 l 661 463 q 717 691 661 610 q 886 772 772 772 q 1058 691 1003 772 q 1114 463 1114 610 l 1114 372 q 1058 144 1114 225 q 886 63 1003 63 m 886 682 q 786 619 817 682 q 756 450 756 556 l 756 385 q 786 216 756 279 q 886 153 817 153 q 988 216 957 153 q 1019 385 1019 279 l 1019 450 q 988 619 1019 556 q 886 682 957 682 z "},"ㆁ":{"ha":1264,"x_min":289,"x_max":974,"o":"m 631 -7 q 485 19 549 -7 q 378 89 422 46 q 312 185 335 132 q 289 290 289 238 l 289 381 q 308 478 289 429 q 365 567 328 526 q 457 637 403 608 q 581 674 511 665 l 581 913 l 681 913 l 681 674 q 805 637 750 665 q 897 567 860 608 q 954 478 935 526 q 974 381 974 429 l 974 290 q 951 185 974 238 q 884 89 928 132 q 776 19 840 46 q 631 -7 713 -7 m 631 585 q 534 568 578 585 q 459 523 490 551 q 410 456 428 494 q 392 371 392 417 l 392 300 q 410 215 392 254 q 459 148 428 176 q 534 103 490 119 q 631 88 578 88 q 727 103 683 88 q 803 148 771 119 q 853 215 835 176 q 871 300 871 254 l 871 371 q 853 456 871 417 q 803 523 835 494 q 727 568 771 551 q 631 585 683 585 z "},"ㆂ":{"ha":1264,"x_min":154,"x_max":1114,"o":"m 371 69 q 210 132 267 69 q 154 310 154 194 l 154 379 q 197 540 154 479 q 321 615 240 600 l 321 778 l 421 778 l 421 615 q 549 540 504 600 q 593 379 593 479 l 593 310 q 536 132 593 194 q 371 69 479 69 m 839 358 q 826 326 838 350 q 786 264 814 303 q 762 231 774 247 q 733 192 750 214 q 692 140 717 169 q 628 68 667 110 l 563 129 q 619 192 596 164 q 662 245 643 221 q 694 290 681 269 q 722 331 708 311 q 757 385 744 364 q 776 428 769 407 q 785 472 783 449 q 788 531 788 494 l 788 750 l 890 750 l 890 531 q 892 472 890 494 q 901 428 894 449 q 919 385 907 407 q 954 331 932 364 q 982 290 968 311 q 1015 245 996 269 q 1057 192 1033 221 q 1114 129 1081 164 l 1050 68 q 986 140 1011 110 q 944 192 961 169 q 917 231 928 214 q 893 264 906 247 q 853 326 865 303 q 840 358 842 350 l 839 358 m 371 536 q 278 494 311 536 q 246 369 246 451 l 246 319 q 278 195 246 238 q 371 153 311 153 q 468 195 435 153 q 501 319 501 238 l 501 369 q 468 494 501 451 q 371 536 435 536 z "},"ㆃ":{"ha":1264,"x_min":183,"x_max":1093,"o":"m 400 69 q 240 132 296 69 q 183 310 183 194 l 183 379 q 226 540 183 479 q 350 615 269 600 l 350 778 l 450 778 l 450 615 q 578 540 533 600 q 622 379 622 479 l 622 310 q 565 132 622 194 q 400 69 508 69 m 1093 83 l 614 83 l 853 807 l 1093 83 m 400 536 q 308 494 340 536 q 275 369 275 451 l 275 319 q 308 195 275 238 q 400 153 340 153 q 497 195 464 153 q 531 319 531 238 l 531 369 q 497 494 531 451 q 400 536 464 536 m 971 171 l 853 546 l 735 171 l 971 171 z "},"ㆄ":{"ha":1264,"x_min":293,"x_max":971,"o":"m 958 921 l 958 836 l 829 836 l 829 508 l 971 508 l 971 424 l 293 424 l 293 508 l 435 508 l 435 836 l 306 836 l 306 921 l 958 921 m 857 121 q 842 62 857 92 q 800 9 828 32 q 730 -28 772 -14 q 632 -43 688 -43 q 535 -28 576 -43 q 465 9 493 -14 q 422 62 436 32 q 408 121 408 92 l 408 160 q 422 219 408 189 q 465 272 436 249 q 535 309 493 294 q 632 324 576 324 q 730 309 688 324 q 800 272 772 294 q 842 219 828 249 q 857 160 857 189 l 857 121 m 532 508 l 732 508 l 732 836 l 532 836 l 532 508 m 757 154 q 722 217 757 194 q 632 240 688 240 q 543 217 578 240 q 508 154 508 194 l 508 126 q 543 63 508 86 q 632 40 578 40 q 722 63 688 40 q 757 126 757 86 l 757 154 z "},"ㆅ":{"ha":1264,"x_min":186,"x_max":1075,"o":"m 583 260 q 572 182 583 219 q 538 115 561 144 q 480 69 515 86 q 394 51 444 51 q 308 69 344 51 q 249 115 272 86 q 216 182 226 144 q 206 260 206 219 l 206 307 q 216 383 206 346 q 249 450 226 421 q 308 497 272 479 q 394 515 344 515 q 480 497 444 515 q 538 450 515 479 q 572 383 561 421 q 583 307 583 346 l 583 260 m 1050 260 q 1039 182 1050 219 q 1005 115 1028 144 q 947 69 982 86 q 861 51 911 51 q 775 69 811 51 q 716 115 739 86 q 683 182 693 144 q 672 260 672 219 l 672 307 q 683 383 672 346 q 716 450 693 421 q 775 497 739 479 q 861 515 811 515 q 947 497 911 515 q 1005 450 982 479 q 1039 383 1028 421 q 1050 307 1050 346 l 1050 260 m 493 301 q 472 392 493 356 q 394 429 451 429 q 319 392 342 429 q 296 301 296 356 l 296 265 q 317 174 296 211 q 394 138 338 138 q 472 174 451 138 q 493 265 493 211 l 493 301 m 960 301 q 939 392 960 356 q 861 429 918 429 q 785 392 808 429 q 763 301 763 356 l 763 265 q 783 174 763 211 q 861 138 804 138 q 939 174 918 138 q 960 265 960 211 l 960 301 m 910 658 l 1075 658 l 1075 575 l 653 575 l 653 658 l 813 658 l 813 786 l 910 786 l 910 658 m 443 658 l 608 658 l 608 575 l 186 575 l 186 658 l 346 658 l 346 786 l 443 786 l 443 658 z "},"ㆆ":{"ha":1264,"x_min":290,"x_max":972,"o":"m 972 800 l 290 800 l 290 889 l 972 889 l 972 800 m 631 8 q 496 33 556 8 q 396 98 436 58 q 334 187 356 138 q 313 285 313 236 l 313 369 q 334 467 313 418 q 396 556 356 517 q 496 621 436 596 q 631 646 556 646 q 766 621 707 646 q 866 556 825 596 q 928 467 907 517 q 950 369 950 418 l 950 285 q 928 187 950 236 q 866 98 907 138 q 766 33 825 58 q 631 8 707 8 m 631 556 q 542 540 582 556 q 472 499 501 525 q 427 438 443 474 q 411 360 411 401 l 411 294 q 427 217 411 253 q 472 155 443 181 q 542 114 501 129 q 631 99 582 99 q 719 114 679 99 q 789 155 760 129 q 835 217 818 181 q 851 294 851 253 l 851 360 q 835 438 851 401 q 789 499 818 474 q 719 540 760 525 q 631 556 679 556 z "},"ㆇ":{"ha":1264,"x_min":39,"x_max":1249,"o":"m 1047 733 l 1249 733 l 1249 646 l 1047 646 l 1047 418 l 1249 418 l 1249 331 l 1047 331 l 1047 -189 l 949 -189 l 949 1081 l 1047 1081 l 1047 733 m 631 182 q 742 190 689 186 q 851 201 796 194 l 860 117 q 694 102 774 108 q 523 92 615 96 q 315 86 431 88 q 39 85 199 85 l 39 171 l 251 171 l 251 560 l 350 560 l 350 172 q 445 174 400 174 q 532 178 490 175 l 532 560 l 631 560 l 631 182 z "},"ㆈ":{"ha":1264,"x_min":68,"x_max":1168,"o":"m 913 733 l 1071 733 l 1071 1081 l 1168 1081 l 1168 -189 l 1071 -189 l 1071 331 l 913 331 l 913 -154 l 815 -154 l 815 1058 l 913 1058 l 913 733 m 582 201 q 660 206 621 204 q 744 210 700 207 l 749 126 q 606 119 678 122 q 453 114 535 115 q 278 112 372 113 q 68 111 183 111 l 68 196 l 217 196 l 217 560 l 315 560 l 315 196 l 483 199 l 483 560 l 582 560 l 582 201 m 913 418 l 1071 418 l 1071 646 l 913 646 l 913 418 z "},"ㆉ":{"ha":1264,"x_min":81,"x_max":1118,"o":"m 686 182 q 808 190 750 186 q 922 201 865 194 l 931 117 q 760 102 844 108 q 578 92 676 96 q 360 86 481 88 q 81 85 240 85 l 81 171 l 307 171 l 307 560 l 406 560 l 406 172 q 499 174 454 174 q 588 178 544 175 l 588 560 l 686 560 l 686 182 m 1118 -189 l 1019 -189 l 1019 1081 l 1118 1081 l 1118 -189 z "},"ㆊ":{"ha":1264,"x_min":75,"x_max":1111,"o":"m 924 414 q 782 401 851 407 q 633 392 713 396 l 633 -149 l 533 -149 l 533 389 q 463 386 499 388 q 388 385 428 385 l 388 -149 l 288 -149 l 288 382 l 75 382 l 75 468 q 349 470 225 468 q 576 476 474 472 q 762 485 678 479 q 915 499 846 490 l 924 414 m 1013 299 l 1013 1081 l 1111 1081 l 1111 -189 l 1013 -189 l 1013 6 l 753 6 l 753 93 l 1013 93 l 1013 211 l 753 211 l 753 299 l 1013 299 z "},"ㆋ":{"ha":1264,"x_min":47,"x_max":1147,"o":"m 732 397 q 640 392 688 394 q 542 388 593 390 l 542 -107 l 443 -107 l 443 385 q 378 384 411 385 q 311 383 346 383 l 311 -107 l 213 -107 l 213 382 l 47 382 l 47 468 q 267 469 174 468 q 437 471 360 469 q 582 475 514 472 q 728 482 650 478 l 732 397 m 828 293 l 828 1058 l 925 1058 l 925 -154 l 828 -154 l 828 0 l 644 0 l 644 88 l 828 88 l 828 206 l 644 206 l 644 293 l 828 293 m 1147 -189 l 1050 -189 l 1050 1081 l 1147 1081 l 1147 -189 z "},"ㆌ":{"ha":1264,"x_min":75,"x_max":1111,"o":"m 924 414 q 801 403 861 407 q 675 394 742 399 l 675 -149 l 575 -149 l 575 390 q 485 387 532 388 q 388 385 439 386 l 388 -149 l 288 -149 l 288 382 l 75 382 l 75 468 q 349 470 225 468 q 576 476 474 472 q 762 485 678 479 q 915 499 846 490 l 924 414 m 1111 -189 l 1013 -189 l 1013 1081 l 1111 1081 l 1111 -189 z "},"ㆍ":{"ha":1264,"x_min":551,"x_max":711,"o":"m 551 471 q 574 528 551 506 q 631 550 596 550 q 688 528 665 550 q 711 471 711 506 q 688 413 711 436 q 631 390 665 390 q 574 413 596 390 q 551 471 551 436 z "},"ㆎ":{"ha":1264,"x_min":319,"x_max":764,"o":"m 319 471 q 342 528 319 506 q 399 550 364 550 q 456 528 433 550 q 479 471 479 506 q 456 413 479 436 q 399 390 433 390 q 342 413 364 390 q 319 471 319 436 m 764 -189 l 665 -189 l 665 1081 l 764 1081 l 764 -189 z "},"ⅰ":{"ha":1264,"x_min":581,"x_max":683,"o":"m 585 713 l 679 713 l 679 -36 l 585 -36 l 585 713 m 581 961 l 683 961 l 683 856 l 581 856 l 581 961 z "},"ⅱ":{"ha":1264,"x_min":403,"x_max":860,"o":"m 407 713 l 501 713 l 501 -36 l 407 -36 l 407 713 m 403 961 l 506 961 l 506 856 l 403 856 l 403 961 m 761 713 l 856 713 l 856 -36 l 761 -36 l 761 713 m 757 961 l 860 961 l 860 856 l 757 856 l 757 961 z "},"ⅲ":{"ha":1264,"x_min":263,"x_max":1000,"o":"m 267 713 l 361 713 l 361 -36 l 267 -36 l 267 713 m 263 961 l 365 961 l 365 856 l 263 856 l 263 961 m 585 713 l 679 713 l 679 -36 l 585 -36 l 585 713 m 581 961 l 683 961 l 683 856 l 581 856 l 581 961 m 901 713 l 996 713 l 996 -36 l 901 -36 l 901 713 m 897 961 l 1000 961 l 1000 856 l 897 856 l 897 961 z "},"ⅳ":{"ha":1264,"x_min":308,"x_max":1039,"o":"m 313 713 l 407 713 l 407 -36 l 313 -36 l 313 713 m 308 961 l 411 961 l 411 856 l 308 856 l 308 961 m 718 -36 l 501 713 l 601 713 l 775 64 l 942 713 l 1039 713 l 826 -36 l 718 -36 z "},"ⅴ":{"ha":1264,"x_min":307,"x_max":956,"o":"m 581 -36 l 307 713 l 408 713 l 635 61 l 857 713 l 956 713 l 686 -36 l 581 -36 z "},"ⅵ":{"ha":1264,"x_min":225,"x_max":956,"o":"m 857 713 l 951 713 l 951 -36 l 857 -36 l 857 713 m 853 961 l 956 961 l 956 856 l 853 856 l 853 961 m 442 -36 l 225 713 l 325 713 l 499 64 l 665 713 l 763 713 l 550 -36 l 442 -36 z "},"ⅶ":{"ha":1264,"x_min":126,"x_max":1104,"o":"m 753 713 l 847 713 l 847 -36 l 753 -36 l 753 713 m 749 961 l 851 961 l 851 856 l 749 856 l 749 961 m 338 -36 l 126 713 l 226 713 l 394 64 l 556 713 l 653 713 l 446 -36 l 338 -36 m 1006 713 l 1100 713 l 1100 -36 l 1006 -36 l 1006 713 m 1001 961 l 1104 961 l 1104 856 l 1001 856 l 1001 961 z "},"ⅷ":{"ha":1264,"x_min":82,"x_max":1168,"o":"m 653 713 l 747 713 l 747 -36 l 653 -36 l 653 713 m 649 961 l 751 961 l 751 856 l 649 856 l 649 961 m 279 -36 l 82 713 l 181 713 l 336 64 l 485 713 l 581 713 l 388 -36 l 279 -36 m 861 713 l 956 713 l 956 -36 l 861 -36 l 861 713 m 857 961 l 960 961 l 960 856 l 857 856 l 857 961 m 1069 713 l 1164 713 l 1164 -36 l 1069 -36 l 1069 713 m 1065 961 l 1168 961 l 1168 856 l 1065 856 l 1065 961 z "},"ⅸ":{"ha":1264,"x_min":321,"x_max":1072,"o":"m 325 713 l 419 713 l 419 -36 l 325 -36 l 325 713 m 321 961 l 424 961 l 424 856 l 321 856 l 321 961 m 850 351 l 1072 -36 l 964 -36 l 790 288 l 614 -36 l 510 -36 l 735 351 l 525 713 l 629 713 l 796 413 l 957 713 l 1060 713 l 850 351 z "},"ⅹ":{"ha":1264,"x_min":308,"x_max":954,"o":"m 690 351 l 954 -36 l 844 -36 l 632 293 l 413 -36 l 308 -36 l 575 351 l 324 713 l 429 713 l 635 407 l 839 713 l 942 713 l 690 351 z "},"Ⅰ":{"ha":1264,"x_min":583,"x_max":681,"o":"m 583 965 l 681 965 l 681 -36 l 583 -36 l 583 965 z "},"Ⅱ":{"ha":1264,"x_min":415,"x_max":849,"o":"m 415 965 l 513 965 l 513 -36 l 415 -36 l 415 965 m 751 965 l 849 965 l 849 -36 l 751 -36 l 751 965 z "},"Ⅲ":{"ha":1264,"x_min":257,"x_max":1007,"o":"m 257 965 l 354 965 l 354 -36 l 257 -36 l 257 965 m 910 965 l 1007 965 l 1007 -36 l 910 -36 l 910 965 m 583 965 l 681 965 l 681 -36 l 583 -36 l 583 965 z "},"Ⅳ":{"ha":1264,"x_min":263,"x_max":1142,"o":"m 454 965 l 561 965 l 800 76 l 801 76 l 1040 965 l 1142 965 l 854 -36 l 740 -36 l 454 965 m 263 965 l 360 965 l 360 -36 l 263 -36 l 263 965 z "},"Ⅴ":{"ha":1264,"x_min":218,"x_max":1044,"o":"m 218 965 l 325 965 l 633 64 l 635 64 l 943 965 l 1044 965 l 686 -36 l 575 -36 l 218 965 z "},"Ⅵ":{"ha":1264,"x_min":122,"x_max":1001,"o":"m 122 965 l 229 965 l 468 72 l 469 72 l 708 965 l 810 965 l 522 -36 l 408 -36 l 122 965 m 904 965 l 1001 965 l 1001 -36 l 904 -36 l 904 965 z "},"Ⅶ":{"ha":1264,"x_min":54,"x_max":1115,"o":"m 54 965 l 161 965 l 375 79 l 376 79 l 585 965 l 686 965 l 433 -36 l 311 -36 l 54 965 m 768 965 l 865 965 l 865 -36 l 768 -36 l 768 965 m 1018 965 l 1115 965 l 1115 -36 l 1018 -36 l 1018 965 z "},"Ⅷ":{"ha":1264,"x_min":61,"x_max":1160,"o":"m 61 965 l 165 965 l 313 83 l 314 83 l 456 965 l 554 965 l 371 -36 l 249 -36 l 61 965 m 625 965 l 719 965 l 719 -36 l 625 -36 l 625 965 m 849 965 l 943 965 l 943 -36 l 849 -36 l 849 965 m 1065 965 l 1160 965 l 1160 -36 l 1065 -36 l 1065 965 z "},"Ⅸ":{"ha":1264,"x_min":279,"x_max":1154,"o":"m 878 483 l 1154 -36 l 1038 -36 l 811 418 l 578 -36 l 469 -36 l 747 485 l 486 965 l 597 965 l 817 546 l 1026 965 l 1133 965 l 878 483 m 279 965 l 376 965 l 376 -36 l 279 -36 l 279 965 z "},"Ⅹ":{"ha":1264,"x_min":233,"x_max":1029,"o":"m 693 483 l 1029 -36 l 910 -36 l 631 418 l 344 -36 l 233 -36 l 571 485 l 250 965 l 364 965 l 636 546 l 899 965 l 1008 965 l 693 483 z "},"Α":{"ha":914,"x_min":31,"x_max":883,"o":"m 883 -36 l 779 -36 l 668 275 l 244 275 l 131 -36 l 31 -36 l 403 965 l 513 965 l 883 -36 m 275 360 l 638 360 l 540 631 q 522 679 531 656 q 504 731 514 703 q 483 795 494 760 q 457 879 472 831 q 432 795 443 831 q 411 731 421 760 q 393 679 401 703 q 375 631 385 656 l 275 360 z "},"Β":{"ha":854,"x_min":115,"x_max":799,"o":"m 115 965 l 435 965 q 753 721 753 965 l 753 692 q 744 627 753 658 q 717 569 736 596 q 667 523 699 543 q 592 492 636 503 q 741 422 683 478 q 799 263 799 367 l 799 228 q 720 34 799 104 q 478 -36 642 -36 l 115 -36 l 115 965 m 211 50 l 469 50 q 644 95 588 50 q 700 229 700 140 l 700 260 q 688 340 700 306 q 644 399 675 375 q 564 434 614 422 q 439 446 514 446 l 211 446 l 211 50 m 211 881 l 211 528 l 438 528 q 599 564 542 528 q 656 694 656 600 l 656 719 q 601 844 656 808 q 428 881 546 881 l 211 881 z "}}}
